<?xml version="1.0" encoding="UTF-8" standalone="no"?>
<svg width="1207px" height="887px" viewBox="0 0 1207 887" version="1.1" xmlns="http://www.w3.org/2000/svg" xmlns:xlink="http://www.w3.org/1999/xlink" xmlns:sketch="http://www.bohemiancoding.com/sketch/ns">
    <!-- Generator: Sketch 3.4 (15575) - http://www.bohemiancoding.com/sketch -->
    <title>Artboard 1</title>
    <desc>Created with Sketch.</desc>
    <defs></defs>
    <g id="Page-1" stroke="none" stroke-width="1" fill="none" fill-rule="evenodd" sketch:type="MSPage">
        <g id="Artboard-1" sketch:type="MSArtboardGroup" stroke="#1A1918" stroke-width="0.567">
            <g id="Tangram" sketch:type="MSLayerGroup" transform="translate(33.000000, 45.000000)">
                <path d="M77.8735,81.8281 L8.7075,81.8281 L0.2045,81.8281 L0.2045,90.3321 L0.2045,159.7791 L7.2915,159.7791 L7.2915,159.7811 L8.7075,159.7811 L8.7075,174.2371 L0.2055,174.2371 L0.2055,173.9521 L0.2055,174.2371 L0.2045,230.6461 L8.7085,230.6461 L8.7085,245.1031 L0.2045,245.1031 L0.2045,301.5131 L0.2055,301.5131 L8.7075,301.5131 L8.7075,315.9691 L0.2055,315.9691 L0.2045,315.6851 L0.2045,385.1341 L0.2045,393.6381 L8.7085,393.6381 L77.8735,393.6381 L77.8735,385.1341 L92.6135,385.1341 L92.6135,393.6381 L148.7395,393.6381 L148.7395,385.1341 L163.4805,385.1341 L163.4805,393.6381 L219.6065,393.6381 L219.6065,385.1341 L234.3455,385.1341 L234.3455,393.6381 L303.5115,393.6381 L312.0155,393.6381 L312.0155,385.1341 L312.0155,315.6851 L303.5125,315.6851 L303.5115,301.5131 L312.0145,301.5131 L312.0145,244.8201 L303.5095,244.8201 L303.5095,230.6461 L312.0145,230.6461 L312.0145,173.9521 L303.5115,173.9521 L303.5115,159.7791 L312.0145,159.7791 L312.0145,90.3321 L312.0155,81.8281 L303.5105,81.8281 L234.3455,81.8281 L234.3455,90.3321 L219.6055,90.3321 L219.6055,81.8281 L163.4805,81.8281 L163.4805,90.3321 L148.7395,90.3321 L148.7395,81.8281 L92.6135,81.8281 L92.6135,90.3321 L77.8735,90.3321 L77.8735,81.8281 L77.8735,81.8281 Z" id="Stroke-1" sketch:type="MSShapeGroup"></path>
                <path d="M8.8218,9.0303 L8.8218,26.4953 L0.2048,26.4953 L0.2048,40.6673 L8.8218,40.6673 L8.8218,65.7803 L127.7518,65.7803 L127.7518,74.2853 L184.4438,74.2853 L184.4438,65.7793 L312.0148,65.7793 L312.0148,40.9493 L303.5108,40.9493 L303.5108,26.2113 L312.0148,26.2113 L312.0148,9.0863 L234.0498,9.0863 L234.0498,0.2713 L219.8758,0.2713 L219.8758,9.0863 L163.1838,9.0863 L163.1838,0.2713 L149.0108,0.2713 L149.0108,9.0873 L92.3178,9.0873 L92.3178,0.2713 L78.1438,0.2713 L78.1438,9.0873 L8.8218,9.0303 L8.8218,9.0303 Z" id="Stroke-3" sketch:type="MSShapeGroup"></path>
                <path d="M330.1743,9.0303 L330.1743,26.4953 L321.5573,26.4953 L321.5573,40.6673 L330.1743,40.6673 L330.1743,65.7803 L449.1043,65.7803 L449.1043,74.2853 L505.7963,74.2853 L505.7963,65.7793 L633.3303,65.7793 L633.3303,40.9493 L624.8263,40.9493 L624.8263,26.2113 L633.3303,26.2113 L633.3303,9.0863 L555.4013,9.0863 L555.4013,0.2713 L541.2283,0.2713 L541.2283,9.0863 L484.5363,9.0863 L484.5363,0.2713 L470.3633,0.2713 L470.3633,9.0873 L413.6703,9.0873 L413.6703,0.2713 L399.4963,0.2713 L399.4963,9.0873 L330.1743,9.0303 L330.1743,9.0303 Z" id="Stroke-5" sketch:type="MSShapeGroup"></path>
                <path d="M8.8218,406.9834 L8.8218,424.4484 L0.2048,424.4484 L0.2048,438.6204 L8.8218,438.6204 L8.8218,463.7334 L127.7518,463.7334 L127.7518,472.2384 L184.4438,472.2384 L184.4438,463.7324 L312.0148,463.7324 L312.0148,438.9024 L303.5108,438.9024 L303.5108,424.1644 L312.0148,424.1644 L312.0148,407.0394 L234.0488,407.0394 L234.0488,398.2244 L219.8758,398.2244 L219.8758,407.0394 L163.1838,407.0394 L163.1838,398.2244 L149.0108,398.2244 L149.0108,407.0404 L92.3178,407.0404 L92.3178,398.2244 L78.1438,398.2244 L78.1438,407.0404 L8.8218,406.9834 L8.8218,406.9834 Z" id="Stroke-7" sketch:type="MSShapeGroup"></path>
                <path d="M330.1743,406.9834 L330.1743,424.4484 L321.5573,424.4484 L321.5573,438.6204 L330.1743,438.6204 L330.1743,463.7334 L449.1043,463.7334 L449.1043,472.2384 L505.7963,472.2384 L505.7963,463.7324 L633.3293,463.7324 L633.3293,438.9024 L624.8253,438.9024 L624.8253,424.1644 L633.3293,424.1644 L633.3293,407.0394 L555.4023,407.0394 L555.4023,398.2244 L541.2283,398.2244 L541.2283,407.0394 L484.5363,407.0394 L484.5363,398.2244 L470.3633,398.2244 L470.3633,407.0404 L413.6703,407.0404 L413.6703,398.2244 L399.4963,398.2244 L399.4963,407.0404 L330.1743,406.9834 L330.1743,406.9834 Z" id="Stroke-9" sketch:type="MSShapeGroup"></path>
                <path d="M515.71,90.2778 L458.449,90.2778 L458.449,81.8278 L331.174,81.8278 L331.174,209.1028 L339.678,209.1028 L339.678,266.3628 L331.174,266.3628 L331.174,393.6378 L458.449,393.6378 L458.449,385.1338 L515.71,385.1338 L515.71,393.6378 L642.947,393.6378 L642.947,266.3628 L634.443,266.3628 L634.443,209.1028 L642.947,209.1028 L642.947,81.8278 L515.71,81.8278 L515.71,90.2778 L515.71,90.2778 Z" id="Stroke-11" sketch:type="MSShapeGroup"></path>
                <path d="M717.7002,185.4082 L703.1822,185.4082 L703.1822,176.3372 L717.7012,176.3372 L691.3382,149.9742 L691.3382,163.7462 L682.2672,163.7462 L682.2672,140.9172 L651.3692,110.0062 L651.3712,176.3362 L665.5432,176.3362 L665.5422,185.4072 L651.3702,185.4072 L651.3702,251.7402 L682.2662,220.8322 L682.2662,197.6722 L691.3372,197.6722 L691.3372,211.7722 L717.7002,185.4082 L717.7002,185.4082 Z" id="Stroke-13" sketch:type="MSShapeGroup"></path>
                <path d="M726.4297,176.4263 L726.4297,161.9083 L735.5007,161.9083 L735.5007,176.4273 L761.8647,150.0643 L748.0907,150.0643 L748.0907,140.9933 L770.9207,140.9933 L801.8307,110.0953 L735.5017,110.0973 L735.5017,124.2693 L726.4307,124.2683 L726.4307,110.0963 L660.0987,110.0963 L691.0057,140.9923 L714.1647,140.9923 L714.1647,150.0633 L700.0657,150.0633 L726.4297,176.4263 L726.4297,176.4263 Z" id="Stroke-15" sketch:type="MSShapeGroup"></path>
                <path d="M878.4238,177.7817 L878.4238,163.2637 L887.4948,163.2637 L887.4948,177.7827 L913.8588,151.4197 L900.0848,151.4197 L900.0848,142.3487 L922.9148,142.3487 L953.8248,111.4507 L887.4958,111.4527 L887.4958,125.6247 L878.4248,125.6237 L878.4248,111.4517 L812.0928,111.4517 L842.9998,142.3477 L866.1588,142.3477 L866.1588,151.4187 L852.0598,151.4187 L878.4238,177.7817 L878.4238,177.7817 Z" id="Stroke-17" sketch:type="MSShapeGroup"></path>
                <path d="M1037.33,176.4263 L1037.33,161.9083 L1046.401,161.9083 L1046.401,176.4273 L1072.765,150.0643 L1058.991,150.0643 L1058.991,140.9933 L1081.821,140.9933 L1112.731,110.0953 L1046.402,110.0973 L1046.402,124.2693 L1037.331,124.2683 L1037.331,110.0963 L970.999,110.0963 L1001.906,140.9923 L1025.065,140.9923 L1025.065,150.0633 L1010.966,150.0633 L1037.33,176.4263 L1037.33,176.4263 Z" id="Stroke-19" sketch:type="MSShapeGroup"></path>
                <path d="M1051.565,180.335 L1066.083,180.335 L1066.083,189.406 L1051.564,189.406 L1077.927,215.77 L1077.927,201.996 L1086.998,201.996 L1086.998,224.826 L1117.896,255.736 L1117.894,189.407 L1103.722,189.407 L1103.723,180.336 L1117.895,180.336 L1117.895,114.004 L1086.999,144.911 L1086.999,168.07 L1077.928,168.07 L1077.928,153.971 L1051.565,180.335 L1051.565,180.335 Z" id="Stroke-21" sketch:type="MSShapeGroup"></path>
                <path d="M764.376,407.7949 L755.304,407.7949 L755.304,379.4469 L659.49,379.4469 L704.781,424.7379 L704.782,396.9589 L713.854,396.9569 L713.853,418.8909 L726.438,406.3049 L732.853,412.7209 L720.268,425.3049 L742.198,425.3049 L742.199,434.3749 L714.419,434.3749 L755.174,475.1309 L755.176,447.0679 L764.248,447.0679 L764.246,475.1309 L805.002,434.3749 L777.224,434.3749 L777.223,425.3049 L799.557,425.3049 L786.772,412.5199 L792.784,406.5059 L805.57,419.2909 L805.568,396.9589 L814.64,396.9589 L814.64,424.7379 L859.931,379.4469 L764.376,379.4469 L764.376,407.7949 L764.376,407.7949 Z" id="Stroke-23" sketch:type="MSShapeGroup"></path>
                <path d="M909.3984,408.8721 L909.3984,417.9441 L881.0504,417.9441 L881.0504,513.7591 L926.3424,468.4681 L898.5624,468.4661 L898.5614,459.3951 L920.4954,459.3951 L907.9094,446.8101 L914.3244,440.3951 L926.9094,452.9811 L926.9094,431.0501 L935.9784,431.0501 L935.9784,458.8291 L976.7354,418.0751 L948.6714,418.0731 L948.6714,409.0011 L976.7354,409.0031 L935.9784,368.2471 L935.9784,396.0251 L926.9094,396.0271 L926.9094,373.6931 L914.1234,386.4781 L908.1104,380.4641 L920.8954,367.6791 L898.5624,367.6811 L898.5624,358.6091 L926.3414,358.6091 L881.0504,313.3181 L881.0504,408.8721 L909.3984,408.8721 L909.3984,408.8721 Z" id="Stroke-25" sketch:type="MSShapeGroup"></path>
                <path d="M1061.265,415.8525 L1061.265,406.7795 L1089.613,406.7795 L1089.613,310.9665 L1044.321,356.2565 L1072.101,356.2585 L1072.102,365.3295 L1050.168,365.3295 L1062.753,377.9145 L1056.339,384.3285 L1043.753,371.7425 L1043.753,393.6745 L1034.684,393.6745 L1034.685,365.8955 L993.928,406.6485 L1021.991,406.6505 L1021.991,415.7235 L993.928,415.7215 L1034.684,456.4775 L1034.684,428.7005 L1043.754,428.6985 L1043.753,451.0325 L1056.54,438.2475 L1062.553,444.2605 L1049.768,457.0455 L1072.101,457.0435 L1072.101,466.1145 L1044.322,466.1165 L1089.613,511.4055 L1089.613,415.8525 L1061.265,415.8525 L1061.265,415.8525 Z" id="Stroke-27" sketch:type="MSShapeGroup"></path>
                <path d="M979.718,490.4873 L988.79,490.4873 L988.79,518.8353 L1084.605,518.8353 L1039.314,473.5443 L1039.312,501.3233 L1030.241,501.3253 L1030.241,479.3913 L1017.656,491.9753 L1011.241,485.5613 L1023.827,472.9753 L1001.896,472.9753 L1001.896,463.9073 L1029.675,463.9073 L988.921,423.1513 L988.919,451.2143 L979.847,451.2143 L979.849,423.1513 L939.093,463.9073 L966.87,463.9073 L966.872,472.9773 L944.538,472.9753 L957.323,485.7623 L951.31,491.7763 L938.525,478.9913 L938.527,501.3233 L929.456,501.3233 L929.454,473.5443 L884.165,518.8353 L979.718,518.8353 L979.718,490.4873 L979.718,490.4873 Z" id="Stroke-29" sketch:type="MSShapeGroup"></path>
                <path d="M764.377,298.0439 L755.305,298.0439 L755.305,269.6959 L659.49,269.6959 L704.781,314.9879 L704.783,287.2079 L713.854,287.2069 L713.854,309.1409 L726.439,296.5559 L732.854,302.9699 L720.268,315.5559 L742.199,315.5559 L742.199,324.6249 L714.42,324.6239 L755.174,365.3809 L755.176,337.3179 L764.248,337.3179 L764.246,365.3809 L805.002,324.6249 L777.225,324.6249 L777.223,315.5549 L799.557,315.5559 L786.772,302.7689 L792.785,296.7559 L805.57,309.5409 L805.568,287.2079 L814.639,287.2079 L814.641,314.9869 L859.93,269.6959 L764.377,269.6959 L764.377,298.0439 L764.377,298.0439 Z" id="Stroke-31" sketch:type="MSShapeGroup"></path>
                <path d="M801.6416,170.5972 L810.7116,170.5982 L810.7116,184.7712 L877.0446,184.7712 L845.8066,153.5342 L835.7856,163.5552 L829.3706,157.1402 L839.3916,147.1192 L810.7116,118.4382 L810.7116,132.3532 L801.6406,132.3542 L801.6406,118.4402 L771.7736,148.3072 L781.7946,158.3302 L775.3826,164.7432 L765.3616,154.7212 L735.3096,184.7712 L801.6406,184.7712 L801.6416,170.5972 L801.6416,170.5972 Z" id="Stroke-33" sketch:type="MSShapeGroup"></path>
                <path d="M884.3711,243.5591 L893.4411,243.5601 L893.4411,257.7331 L959.7741,257.7331 L928.5361,226.4961 L918.5151,236.5171 L912.1001,230.1021 L922.1211,220.0811 L893.4411,191.4001 L893.4411,205.3151 L884.3701,205.3161 L884.3701,191.4021 L854.5031,221.2691 L864.5241,231.2921 L858.1121,237.7051 L848.0911,227.6831 L818.0391,257.7331 L884.3701,257.7331 L884.3711,243.5591 L884.3711,243.5591 Z" id="Stroke-35" sketch:type="MSShapeGroup"></path>
                <path d="M1035.06,243.5591 L1044.13,243.5601 L1044.13,257.7331 L1110.463,257.7331 L1079.225,226.4961 L1069.204,236.5171 L1062.789,230.1021 L1072.81,220.0811 L1044.13,191.4001 L1044.13,205.3151 L1035.059,205.3161 L1035.059,191.4021 L1005.192,221.2691 L1015.213,231.2921 L1008.801,237.7051 L998.78,227.6831 L968.728,257.7331 L1035.059,257.7331 L1035.06,243.5591 L1035.06,243.5591 Z" id="Stroke-37" sketch:type="MSShapeGroup"></path>
                <path d="M810.7129,203.5879 L801.6429,203.5869 L801.6429,189.4139 L735.3099,189.4139 L766.5479,220.6509 L776.5689,210.6299 L782.9839,217.0449 L772.9629,227.0659 L801.6429,255.7469 L801.6429,241.8319 L810.7139,241.8309 L810.7139,255.7449 L840.5809,225.8779 L830.5599,215.8549 L836.9719,209.4419 L846.9929,219.4639 L877.0449,189.4139 L810.7139,189.4139 L810.7129,203.5879 L810.7129,203.5879 Z" id="Stroke-39" sketch:type="MSShapeGroup"></path>
                <path d="M719.6807,243.5586 L728.7507,243.5596 L728.7507,257.7326 L795.0837,257.7326 L763.8457,226.4956 L753.8247,236.5166 L747.4097,230.1016 L757.4307,220.0806 L728.7507,191.3996 L728.7507,205.3146 L719.6797,205.3156 L719.6797,191.4016 L689.8127,221.2686 L699.8337,231.2916 L693.4217,237.7046 L683.4007,227.6826 L653.3487,257.7326 L719.6797,257.7326 L719.6807,243.5586 L719.6807,243.5586 Z" id="Stroke-41" sketch:type="MSShapeGroup"></path>
                <path d="M230.1021,540.0977 L239.1711,540.0967 L239.1711,554.2697 L294.1341,554.2697 L315.0991,533.3057 L287.0011,533.3057 L287.0011,524.2357 L315.0641,524.2347 L315.0641,504.6747 L324.1341,504.6737 L324.1341,524.2697 L365.0011,483.4027 L287.5461,483.4037 L287.5461,497.5767 L278.4761,497.5777 L278.4761,483.4027 L223.2681,483.4047 L202.2931,504.3807 L230.2661,504.3817 L230.2681,513.4517 L202.2041,513.4517 L202.2041,533.0107 L193.1311,533.0107 L193.1311,513.5417 L152.4021,554.2697 L230.1021,554.2697 L230.1021,540.0977 L230.1021,540.0977 Z" id="Stroke-43" sketch:type="MSShapeGroup"></path>
                <path d="M381.5581,540.0977 L390.6261,540.0977 L390.6281,554.2697 L445.5911,554.2697 L466.5561,533.3067 L438.4571,533.3067 L438.4591,524.2357 L466.5201,524.2347 L466.5211,504.6747 L475.5911,504.6737 L475.5911,524.2697 L516.4581,483.4027 L439.0041,483.4037 L439.0031,497.5767 L429.9331,497.5777 L429.9331,483.4027 L374.7241,483.4047 L353.7491,504.3807 L381.7221,504.3817 L381.7241,513.4517 L353.6601,513.4517 L353.6601,533.0117 L344.5871,533.0117 L344.5871,513.5417 L303.8591,554.2697 L381.5581,554.2697 L381.5581,540.0977 L381.5581,540.0977 Z" id="Stroke-45" sketch:type="MSShapeGroup"></path>
                <path d="M534.1021,540.0977 L543.1701,540.0977 L543.1721,554.2697 L598.0961,554.2697 L619.0601,533.3067 L590.9631,533.3067 L590.9651,524.2367 L619.0251,524.2347 L619.0271,504.6757 L628.0961,504.6737 L628.0961,524.2697 L668.9631,483.4027 L591.5101,483.4047 L591.5081,497.5777 L582.4421,497.5777 L582.4421,483.4027 L527.2681,483.4047 L506.2931,504.3807 L534.2661,504.3827 L534.2681,513.4527 L506.2041,513.4527 L506.2041,533.0117 L497.1311,533.0117 L497.1311,513.5427 L456.4031,554.2697 L534.1021,554.2697 L534.1021,540.0977 L534.1021,540.0977 Z" id="Stroke-47" sketch:type="MSShapeGroup"></path>
                <path d="M689.1016,540.0977 L698.1696,540.0977 L698.1716,554.2697 L753.1326,554.2697 L774.0976,533.3067 L745.9996,533.3067 L746.0016,524.2367 L774.0626,524.2347 L774.0646,504.6757 L783.1326,504.6737 L783.1326,524.2697 L823.9996,483.4027 L746.5466,483.4047 L746.5446,497.5777 L737.4766,497.5777 L737.4766,483.4027 L682.2676,483.4047 L661.2926,504.3807 L689.2656,504.3827 L689.2676,513.4527 L661.2036,513.4527 L661.2036,533.0117 L652.1306,533.0117 L652.1306,513.5427 L611.4026,554.2697 L689.1016,554.2697 L689.1016,540.0977 L689.1016,540.0977 Z" id="Stroke-49" sketch:type="MSShapeGroup"></path>
                <path d="M77.9038,540.0967 L86.9718,540.0967 L86.9738,554.2687 L141.9348,554.2687 L162.8998,533.3057 L134.8018,533.3057 L134.8038,524.2357 L162.8648,524.2337 L162.8668,504.6747 L171.9348,504.6727 L171.9348,524.2687 L212.8028,483.4017 L135.3488,483.4037 L135.3468,497.5767 L126.2788,497.5767 L126.2788,483.4017 L71.0698,483.4037 L50.0948,504.3797 L78.0678,504.3817 L78.0698,513.4517 L50.0058,513.4517 L50.0058,533.0107 L40.9328,533.0107 L40.9328,513.5417 L0.2048,554.2687 L77.9038,554.2687 L77.9038,540.0967 L77.9038,540.0967 Z" id="Stroke-51" sketch:type="MSShapeGroup"></path>
                <path d="M115.7915,695.2148 L65.6825,745.3238 L59.2685,738.9108 L109.3775,688.8018 L12.3635,591.7868 L12.3635,685.1908 L39.3795,658.1748 L45.7915,664.5898 L23.3115,687.0688 L40.7115,687.0688 L40.7095,696.1398 L23.3125,696.1398 L38.6215,711.4478 L32.2075,717.8618 L12.3635,698.0178 L12.3635,785.8138 L32.3405,765.8358 L38.7545,772.2498 L18.7765,792.2278 L105.9995,792.2278 L86.1545,772.3828 L92.5695,765.9678 L107.8775,781.2758 L107.8775,763.8778 L116.9475,763.8788 L116.9485,781.2778 L139.7135,758.5108 L146.1285,764.9258 L118.8265,792.2278 L212.8035,792.2278 L115.7915,695.2148 L115.7915,695.2148 Z" id="Stroke-53" sketch:type="MSShapeGroup"></path>
                <path d="M116.5439,679.793 L166.6529,629.684 L173.0669,636.097 L122.9579,686.206 L219.9719,783.221 L219.9719,689.817 L192.9559,716.833 L186.5439,710.418 L209.0239,687.939 L191.6239,687.939 L191.6259,678.868 L209.0229,678.868 L193.7139,663.56 L200.1279,657.146 L219.9719,676.99 L219.9719,589.194 L199.9949,609.172 L193.5809,602.758 L213.5589,582.78 L126.3359,582.78 L146.1809,602.625 L139.7659,609.04 L124.4579,593.732 L124.4579,611.13 L115.3879,611.129 L115.3869,593.73 L92.6219,616.497 L86.2069,610.082 L113.5089,582.78 L19.5319,582.78 L116.5439,679.793 L116.5439,679.793 Z" id="Stroke-55" sketch:type="MSShapeGroup"></path>
                <path d="M334.3433,679.793 L384.4523,629.684 L390.8663,636.097 L340.7573,686.206 L437.7713,783.221 L437.7713,689.817 L410.7553,716.833 L404.3433,710.418 L426.8233,687.939 L409.4233,687.939 L409.4253,678.868 L426.8223,678.868 L411.5133,663.56 L417.9273,657.146 L437.7713,676.99 L437.7713,589.194 L417.7943,609.172 L411.3803,602.758 L431.3573,582.78 L344.1343,582.78 L363.9803,602.625 L357.5643,609.04 L342.2573,593.732 L342.2573,611.13 L333.1873,611.129 L333.1853,593.73 L310.4213,616.497 L304.0063,610.082 L331.3083,582.78 L237.3313,582.78 L334.3433,679.793 L334.3433,679.793 Z" id="Stroke-57" sketch:type="MSShapeGroup"></path>
                <path d="M334.3823,695.2158 L284.2733,745.3248 L277.8593,738.9108 L327.9683,688.8018 L230.9543,591.7868 L230.9553,685.1918 L257.9703,658.1748 L264.3823,664.5908 L241.9023,687.0698 L259.3023,687.0698 L259.3003,696.1398 L241.9033,696.1408 L257.2123,711.4478 L250.7983,717.8618 L230.9553,698.0188 L230.9553,785.8148 L250.9313,765.8358 L257.3453,772.2498 L237.3683,792.2278 L324.5913,792.2278 L304.7453,772.3828 L311.1613,765.9688 L326.4683,781.2758 L326.4683,763.8788 L335.5383,763.8788 L335.5403,781.2788 L358.3043,758.5118 L364.7193,764.9268 L337.4173,792.2278 L431.3943,792.2278 L334.3823,695.2158 L334.3823,695.2158 Z" id="Stroke-59" sketch:type="MSShapeGroup"></path>
                <path d="M547.979,679.793 L598.051,629.684 L604.465,636.097 L554.393,686.206 L651.369,783.221 L651.369,689.817 L624.354,716.833 L617.941,710.418 L640.422,687.939 L623.021,687.939 L623.023,678.868 L640.42,678.868 L625.111,663.56 L631.525,657.146 L651.369,676.99 L651.369,589.194 L631.393,609.172 L624.979,602.758 L644.955,582.78 L557.77,582.78 L577.59,602.625 L571.185,609.04 L555.893,593.732 L555.893,611.13 L546.823,611.129 L546.821,593.73 L524.056,616.497 L517.642,610.082 L544.944,582.78 L450.966,582.78 L547.979,679.793 L547.979,679.793 Z" id="Stroke-61" sketch:type="MSShapeGroup"></path>
                <path d="M531.3984,715.2568 L524.9854,708.8428 L545.0284,688.7998 L448.0154,591.7858 L448.0154,685.5298 L467.7964,665.7468 L474.2094,672.1618 L458.9014,687.4728 L476.2994,687.4708 L476.2994,696.5418 L458.9654,696.5418 L474.2724,711.8488 L467.8574,718.2638 L448.0154,698.4218 L448.0154,785.8128 L494.9184,738.9088 L501.3334,745.3238 L454.4304,792.2278 L541.8214,792.2278 L521.9764,772.3828 L528.3904,765.9698 L543.7014,781.2778 L543.7004,763.8808 L552.7704,763.8808 L552.7704,781.2778 L568.0674,765.9698 L574.4714,772.3848 L554.6504,792.2268 L648.4184,792.2278 L551.4424,695.2128 L531.3984,715.2568 L531.3984,715.2568 Z" id="Stroke-63" sketch:type="MSShapeGroup"></path>
                <path d="M786.0205,656.874 L792.4335,663.288 L772.3905,683.331 L869.4035,780.345 L869.4035,686.601 L849.6225,706.384 L843.2095,699.969 L858.5175,684.658 L841.1195,684.66 L841.1195,675.589 L858.4535,675.589 L843.1465,660.282 L849.5615,653.867 L869.4035,673.709 L869.4035,586.318 L822.5005,633.222 L816.0855,626.807 L862.9885,579.903 L775.5975,579.903 L795.4425,599.748 L789.0285,606.161 L773.7175,590.853 L773.7185,608.25 L764.6485,608.25 L764.6485,590.853 L749.3415,606.161 L742.9265,599.746 L762.7685,579.904 L668.9625,579.903 L765.9765,676.918 L786.0205,656.874 L786.0205,656.874 Z" id="Stroke-65" sketch:type="MSShapeGroup"></path>
                <path d="M1002.169,656.874 L1008.582,663.288 L988.539,683.331 L1085.552,780.345 L1085.552,686.601 L1065.771,706.384 L1059.358,699.969 L1074.666,684.658 L1057.268,684.66 L1057.268,675.589 L1074.602,675.589 L1059.295,660.282 L1065.71,653.867 L1085.552,673.709 L1085.552,586.318 L1038.649,633.222 L1032.234,626.807 L1079.137,579.903 L991.746,579.903 L1011.591,599.748 L1005.177,606.161 L989.866,590.853 L989.867,608.25 L980.797,608.25 L980.797,590.853 L965.49,606.161 L959.075,599.746 L978.917,579.904 L885.111,579.903 L982.125,676.918 L1002.169,656.874 L1002.169,656.874 Z" id="Stroke-67" sketch:type="MSShapeGroup"></path>
                <path d="M963.5195,711.8096 L957.1065,705.3956 L977.1495,685.3526 L880.1365,588.3386 L880.1365,682.0826 L899.9175,662.2996 L906.3305,668.7146 L891.0225,684.0256 L908.4205,684.0236 L908.4205,693.0946 L891.0865,693.0946 L906.3935,708.4016 L899.9785,714.8166 L880.1365,694.9746 L880.1365,782.3656 L927.0395,735.4616 L933.4545,741.8766 L886.5515,788.7806 L973.9425,788.7806 L954.0975,768.9356 L960.5115,762.5226 L975.8225,777.8306 L975.8215,760.4336 L984.8915,760.4336 L984.8915,777.8306 L1000.1985,762.5226 L1006.6135,768.9376 L986.7715,788.7796 L1080.5775,788.7806 L983.5635,691.7656 L963.5195,711.8096 L963.5195,711.8096 Z" id="Stroke-69" sketch:type="MSShapeGroup"></path>
                <path d="M742.873,711.8096 L736.46,705.3956 L756.503,685.3526 L659.49,588.3386 L659.49,682.0826 L679.271,662.2996 L685.684,668.7146 L670.376,684.0256 L687.774,684.0236 L687.774,693.0946 L670.44,693.0946 L685.747,708.4016 L679.332,714.8166 L659.49,694.9746 L659.49,782.3656 L706.393,735.4616 L712.808,741.8766 L665.905,788.7806 L753.296,788.7806 L733.451,768.9356 L739.865,762.5226 L755.176,777.8306 L755.175,760.4336 L764.245,760.4336 L764.245,777.8306 L779.552,762.5226 L785.967,768.9376 L766.125,788.7796 L859.931,788.7806 L762.917,691.7656 L742.873,711.8096 L742.873,711.8096 Z" id="Stroke-71" sketch:type="MSShapeGroup"></path>
                <path d="M653.9268,103.1753 L693.2858,103.1743 L693.2858,89.0013 L702.3578,89.0013 L702.3578,103.1753 L741.7188,103.1753 L731.7078,93.3663 L738.1228,86.9503 L747.9328,96.9613 L747.9338,57.6003 L734.7298,57.6013 L734.7298,48.5303 L747.9328,48.5293 L747.9338,9.1673 L738.1358,19.1663 L731.7218,12.7523 L741.7188,2.9573 L702.3578,2.9563 L702.3578,17.1293 L693.2868,17.1303 L693.2858,2.9563 L653.9268,2.9573 L663.9768,12.8043 L657.5628,19.2193 L647.7118,9.1683 L647.7128,48.5313 L662.8578,48.5303 L662.8578,57.6013 L647.7118,57.6013 L647.7128,96.9613 L657.5248,86.9493 L663.9388,93.3623 L653.9268,103.1753 L653.9268,103.1753 Z" id="Stroke-73" sketch:type="MSShapeGroup"></path>
                <path d="M759.3506,103.1753 L798.7096,103.1743 L798.7096,89.0013 L807.7816,89.0013 L807.7816,103.1753 L847.1426,103.1753 L837.1316,93.3663 L843.5466,86.9503 L853.3566,96.9613 L853.3576,57.6003 L840.1536,57.6013 L840.1536,48.5303 L853.3566,48.5293 L853.3576,9.1673 L843.5596,19.1663 L837.1456,12.7523 L847.1426,2.9573 L807.7816,2.9563 L807.7816,17.1293 L798.7106,17.1303 L798.7096,2.9563 L759.3506,2.9573 L769.4006,12.8043 L762.9866,19.2193 L753.1356,9.1683 L753.1366,48.5313 L768.2816,48.5303 L768.2816,57.6013 L753.1356,57.6013 L753.1366,96.9613 L762.9486,86.9493 L769.3626,93.3623 L759.3506,103.1753 L759.3506,103.1753 Z" id="Stroke-75" sketch:type="MSShapeGroup"></path>
                <path d="M864.3516,103.1753 L903.7106,103.1743 L903.7106,89.0013 L912.7826,89.0013 L912.7826,103.1753 L952.1436,103.1753 L942.1326,93.3663 L948.5476,86.9503 L958.3576,96.9613 L958.3586,57.6003 L945.1546,57.6013 L945.1546,48.5303 L958.3576,48.5293 L958.3586,9.1673 L948.5606,19.1663 L942.1466,12.7523 L952.1436,2.9573 L912.7826,2.9563 L912.7826,17.1293 L903.7116,17.1303 L903.7106,2.9563 L864.3516,2.9573 L874.4016,12.8043 L867.9876,19.2193 L858.1366,9.1683 L858.1376,48.5313 L873.2826,48.5303 L873.2826,57.6013 L858.1366,57.6013 L858.1376,96.9613 L867.9496,86.9493 L874.3636,93.3623 L864.3516,103.1753 L864.3516,103.1753 Z" id="Stroke-77" sketch:type="MSShapeGroup"></path>
                <path d="M969.017,103.1753 L1008.376,103.1743 L1008.376,89.0013 L1017.448,89.0013 L1017.448,103.1753 L1056.809,103.1753 L1046.798,93.3663 L1053.213,86.9503 L1063.023,96.9613 L1063.024,57.6003 L1049.82,57.6013 L1049.82,48.5303 L1063.023,48.5293 L1063.024,9.1673 L1053.226,19.1663 L1046.812,12.7523 L1056.809,2.9573 L1017.448,2.9563 L1017.448,17.1293 L1008.377,17.1303 L1008.376,2.9563 L969.017,2.9573 L979.067,12.8043 L972.653,19.2193 L962.802,9.1683 L962.803,48.5313 L977.948,48.5303 L977.948,57.6013 L962.802,57.6013 L962.803,96.9613 L972.615,86.9493 L979.029,93.3623 L969.017,103.1753 L969.017,103.1753 Z" id="Stroke-79" sketch:type="MSShapeGroup"></path>
                <path d="M896.8945,187.2788 L924.7265,215.1098 L934.7485,205.0878 L941.1635,211.5018 L931.1405,221.5248 L958.9735,249.3568 L958.8315,235.3418 L967.9035,235.3418 L967.7605,249.3568 L995.5945,221.5248 L986.2565,212.1888 L992.6705,205.7748 L1002.0065,215.1108 L1029.8415,187.2778 L1015.8425,187.4198 L1015.8425,178.3488 L1029.8375,178.4918 L1002.0055,150.6588 L991.9845,160.6798 L985.5705,154.2668 L995.5915,144.2448 L967.7595,116.4138 L967.9035,130.4838 L958.8325,130.4838 L958.9735,116.4108 L931.1405,144.2458 L941.8495,154.9538 L935.4355,161.3678 L924.7265,150.6578 L896.8955,178.4908 L910.9125,178.3488 L910.9135,187.4198 L896.8945,187.2788 L896.8945,187.2788 Z" id="Stroke-81" sketch:type="MSShapeGroup"></path>
            </g>
        </g>
    </g>
</svg>