  0
SECTION
  2
HEADER
  9
$ACADVER
  1
AC1014
  9
$HANDSEED
  5
FFFF
  9
$MEASUREMENT
 70
     1
  0
ENDSEC
  0
SECTION
  2
TABLES
  0
TABLE
  2
VPORT
  5
8
330
0
100
AcDbSymbolTable
 70
     4
  0
VPORT
  5
2E
330
8
100
AcDbSymbolTableRecord
100
AcDbViewportTableRecord
  2
*ACTIVE
 70
     0
 10
0.0
 20
0.0
 11
1.0
 21
1.0
 12
210.0
 22
148.5
 13
0.0
 23
0.0
 14
10.0
 24
10.0
 15
10.0
 25
10.0
 16
0.0
 26
0.0
 36
1.0
 17
0.0
 27
0.0
 37
0.0
 40
341.0
 41
1.24
 42
50.0
 43
0.0
 44
0.0
 50
0.0
 51
0.0
 71
     0
 72
   100
 73
     1
 74
     3
 75
     0
 76
     0
 77
     0
 78
     0
  0
ENDTAB
  0
TABLE
  2
LTYPE
  5
5
330
0
100
AcDbSymbolTable
 70
     1
  0
LTYPE
  5
14
330
5
100
AcDbSymbolTableRecord
100
AcDbLinetypeTableRecord
  2
BYBLOCK
 70
     0
  3

 72
    65
 73
     0
 40
0.0
  0
LTYPE
  5
15
330
5
100
AcDbSymbolTableRecord
100
AcDbLinetypeTableRecord
  2
BYLAYER
 70
     0
  3

 72
    65
 73
     0
 40
0.0
  0
LTYPE
  5
16
330
5
100
AcDbSymbolTableRecord
100
AcDbLinetypeTableRecord
  2
CONTINUOUS
 70
     0
  3
Solid line
 72
    65
 73
     0
 40
0.0
  0
ENDTAB
  0
TABLE
  2
LAYER
  5
2
100
AcDbSymbolTable
 70
2
  0
LAYER
  5
50
100
AcDbSymbolTableRecord
100
AcDbLayerTableRecord
  2
0
 70
0
  6
CONTINUOUS
  0
LAYER
  5
51
100
AcDbSymbolTableRecord
100
AcDbLayerTableRecord
  2
Layer_1
 70
0
  6
CONTINUOUS
  0
ENDTAB
  0
TABLE
  2
STYLE
  5
3
330
0
100
AcDbSymbolTable
 70
     1
  0
STYLE
  5
11
330
3
100
AcDbSymbolTableRecord
100
AcDbTextStyleTableRecord
  2
STANDARD
 70
     0
 40
0.0
 41
1.0
 50
0.0
 71
     0
 42
2.5
  3
txt
  4

  0
ENDTAB
  0
TABLE
  2
VIEW
  5
6
330
0
100
AcDbSymbolTable
 70
     0
  0
ENDTAB
  0
TABLE
  2
UCS
  5
7
330
0
100
AcDbSymbolTable
 70
     0
  0
ENDTAB
  0
TABLE
  2
APPID
  5
9
330
0
100
AcDbSymbolTable
 70
     2
  0
APPID
  5
12
330
9
100
AcDbSymbolTableRecord
100
AcDbRegAppTableRecord
  2
ACAD
 70
     0
  0
ENDTAB
  0
TABLE
  2
DIMSTYLE
  5
A
330
0
100
AcDbSymbolTable
 70
     1
  0
DIMSTYLE
105
27
330
A
100
AcDbSymbolTableRecord
100
AcDbDimStyleTableRecord
  2
ISO-25
 70
     0
  3

  4

  5

  6

  7

 40
1.0
 41
2.5
 42
0.625
 43
3.75
 44
1.25
 45
0.0
 46
0.0
 47
0.0
 48
0.0
140
2.5
141
2.5
142
0.0
143
0.03937007874016
144
1.0
145
0.0
146
1.0
147
0.625
 71
     0
 72
     0
 73
     0
 74
     0
 75
     0
 76
     0
 77
     1
 78
     8
170
     0
171
     3
172
     1
173
     0
174
     0
175
     0
176
     0
177
     0
178
     0
270
     2
271
     2
272
     2
273
     2
274
     3
340
11
275
     0
280
     0
281
     0
282
     0
283
     0
284
     8
285
     0
286
     0
287
     3
288
     0
  0
ENDTAB
  0
TABLE
  2
BLOCK_RECORD
  5
1
330
0
100
AcDbSymbolTable
 70
     1
  0
BLOCK_RECORD
  5
1F
330
1
100
AcDbSymbolTableRecord
100
AcDbBlockTableRecord
  2
*MODEL_SPACE
  0
BLOCK_RECORD
  5
1B
330
1
100
AcDbSymbolTableRecord
100
AcDbBlockTableRecord
  2
*PAPER_SPACE
  0
ENDTAB
  0
ENDSEC
  0
SECTION
  2
BLOCKS
  0
BLOCK
  5
20
330
1F
100
AcDbEntity
  8
0
100
AcDbBlockBegin
  2
*MODEL_SPACE
 70
     0
 10
0.0
 20
0.0
 30
0.0
  3
*MODEL_SPACE
  1

  0
ENDBLK
  5
21
330
1F
100
AcDbEntity
  8
0
100
AcDbBlockEnd
  0
BLOCK
  5
1C
330
1B
100
AcDbEntity
 67
     1
  8
0
100
AcDbBlockBegin
  2
*PAPER_SPACE
  1

  0
ENDBLK
  5
1D
330
1B
100
AcDbEntity
 67
     1
  8
0
100
AcDbBlockEnd
  0
ENDSEC
  0
SECTION
  2
ENTITIES
  0
SPLINE
  5
100
100
AcDbEntity
  8
Layer_1
 62
1
100
AcDbSpline
 70
8
 71
3
 72
8
 73
4
 74
0
 40
0
 40
0
 40
0
 40
0
 40
1
 40
1
 40
1
 40
1
 10
360.861460
 20
230.699730
 30
0.0
 10
355.175800
 20
230.372130
 30
0.0
 10
350.466280
 20
228.085330
 30
0.0
 10
346.513800
 20
225.234830
 30
0.0
  0
SPLINE
  5
101
100
AcDbEntity
  8
Layer_1
 62
1
100
AcDbSpline
 70
8
 71
3
 72
8
 73
4
 74
0
 40
0
 40
0
 40
0
 40
0
 40
1
 40
1
 40
1
 40
1
 10
346.513800
 20
225.234830
 30
0.0
 10
338.608850
 20
219.533830
 30
0.0
 10
334.377080
 20
211.283730
 30
0.0
 10
334.377080
 20
211.283730
 30
0.0
  0
LINE
  5
102
100
AcDbEntity
  8
Layer_1
 62
1
100
AcDbLine
 10
334.377080
 20
211.283730
 30
0.0
 11
331.998180
 21
206.572730
 31
0.0
  0
LINE
  5
103
100
AcDbEntity
  8
Layer_1
 62
1
100
AcDbLine
 10
331.998180
 20
206.572730
 30
0.0
 11
329.168100
 21
211.027830
 31
0.0
  0
SPLINE
  5
104
100
AcDbEntity
  8
Layer_1
 62
1
100
AcDbSpline
 70
8
 71
3
 72
8
 73
4
 74
0
 40
0
 40
0
 40
0
 40
0
 40
1
 40
1
 40
1
 40
1
 10
329.168100
 20
211.027830
 30
0.0
 10
329.168100
 20
211.027830
 30
0.0
 10
324.188930
 20
218.780130
 30
0.0
 10
316.088020
 20
224.293430
 30
0.0
  0
SPLINE
  5
105
100
AcDbEntity
  8
Layer_1
 62
1
100
AcDbSpline
 70
8
 71
3
 72
8
 73
4
 74
0
 40
0
 40
0
 40
0
 40
0
 40
1
 40
1
 40
1
 40
1
 10
316.088020
 20
224.293430
 30
0.0
 10
307.987110
 20
229.806830
 30
0.0
 10
297.546020
 20
233.188230
 30
0.0
 10
284.570440
 20
224.678230
 30
0.0
  0
SPLINE
  5
106
100
AcDbEntity
  8
Layer_1
 62
1
100
AcDbSpline
 70
8
 71
3
 72
8
 73
4
 74
0
 40
0
 40
0
 40
0
 40
0
 40
1
 40
1
 40
1
 40
1
 10
284.570440
 20
224.678230
 30
0.0
 10
274.850130
 20
218.303230
 30
0.0
 10
270.527000
 20
209.696830
 30
0.0
 10
270.111450
 20
200.787630
 30
0.0
  0
SPLINE
  5
107
100
AcDbEntity
  8
Layer_1
 62
1
100
AcDbSpline
 70
8
 71
3
 72
8
 73
4
 74
0
 40
0
 40
0
 40
0
 40
0
 40
1
 40
1
 40
1
 40
1
 10
270.111450
 20
200.787630
 30
0.0
 10
269.695910
 20
191.878330
 30
0.0
 10
273.349710
 20
182.605130
 30
0.0
 10
280.232540
 20
175.436030
 30
0.0
  0
SPLINE
  5
108
100
AcDbEntity
  8
Layer_1
 62
1
100
AcDbSpline
 70
8
 71
3
 72
8
 73
4
 74
0
 40
0
 40
0
 40
0
 40
0
 40
1
 40
1
 40
1
 40
1
 10
280.232540
 20
175.436030
 30
0.0
 10
289.202810
 20
166.092730
 30
0.0
 10
300.289220
 20
157.684630
 30
0.0
 10
310.357550
 20
149.318870
 30
0.0
  0
SPLINE
  5
109
100
AcDbEntity
  8
Layer_1
 62
1
100
AcDbSpline
 70
8
 71
3
 72
8
 73
4
 74
0
 40
0
 40
0
 40
0
 40
0
 40
1
 40
1
 40
1
 40
1
 10
310.357550
 20
149.318870
 30
0.0
 10
319.431810
 20
141.779100
 30
0.0
 10
327.560740
 20
134.243440
 30
0.0
 10
332.654430
 20
125.732940
 30
0.0
  0
SPLINE
  5
10a
100
AcDbEntity
  8
Layer_1
 62
1
100
AcDbSpline
 70
8
 71
3
 72
8
 73
4
 74
0
 40
0
 40
0
 40
0
 40
0
 40
1
 40
1
 40
1
 40
1
 10
332.654430
 20
125.732940
 30
0.0
 10
347.618820
 20
134.265110
 30
0.0
 10
375.188920
 20
154.639240
 30
0.0
 10
387.673960
 20
175.162630
 30
0.0
  0
SPLINE
  5
10b
100
AcDbEntity
  8
Layer_1
 62
1
100
AcDbSpline
 70
8
 71
3
 72
8
 73
4
 74
0
 40
0
 40
0
 40
0
 40
0
 40
1
 40
1
 40
1
 40
1
 10
387.673960
 20
175.162630
 30
0.0
 10
399.731180
 20
194.982730
 30
0.0
 10
393.405280
 20
216.599430
 30
0.0
 10
381.072400
 20
224.414530
 30
0.0
  0
SPLINE
  5
10c
100
AcDbEntity
  8
Layer_1
 62
1
100
AcDbSpline
 70
8
 71
3
 72
8
 73
4
 74
0
 40
0
 40
0
 40
0
 40
0
 40
1
 40
1
 40
1
 40
1
 10
381.072400
 20
224.414530
 30
0.0
 10
373.210080
 20
229.396730
 30
0.0
 10
366.547120
 20
231.027330
 30
0.0
 10
360.861460
 20
230.699730
 30
0.0
  0
LINE
  5
10d
100
AcDbEntity
  8
Layer_1
 62
1
100
AcDbLine
 10
360.861460
 20
230.699730
 30
0.0
 11
360.861460
 21
230.699730
 31
0.0
  0
SPLINE
  5
10e
100
AcDbEntity
  8
Layer_1
 62
1
100
AcDbSpline
 70
8
 71
3
 72
8
 73
4
 74
0
 40
0
 40
0
 40
0
 40
0
 40
1
 40
1
 40
1
 40
1
 10
361.149640
 20
225.707430
 30
0.0
 10
356.639710
 20
225.447530
 30
0.0
 10
352.891850
 20
223.670430
 30
0.0
 10
349.438700
 20
221.180030
 30
0.0
  0
SPLINE
  5
10f
100
AcDbEntity
  8
Layer_1
 62
1
100
AcDbSpline
 70
8
 71
3
 72
8
 73
4
 74
0
 40
0
 40
0
 40
0
 40
0
 40
1
 40
1
 40
1
 40
1
 10
349.438700
 20
221.180030
 30
0.0
 10
342.712600
 20
216.329230
 30
0.0
 10
338.843940
 20
209.034230
 30
0.0
 10
338.833230
 20
209.014030
 30
0.0
  0
SPLINE
  5
110
100
AcDbEntity
  8
Layer_1
 62
1
100
AcDbSpline
 70
8
 71
3
 72
8
 73
4
 74
0
 40
0
 40
0
 40
0
 40
0
 40
1
 40
1
 40
1
 40
1
 10
338.833230
 20
209.014030
 30
0.0
 10
338.833230
 20
209.014030
 30
0.0
 10
336.911750
 20
205.089020
 30
0.0
 10
335.098250
 20
204.139810
 30
0.0
  0
SPLINE
  5
111
100
AcDbEntity
  8
Layer_1
 62
1
100
AcDbSpline
 70
8
 71
3
 72
8
 73
4
 74
0
 40
0
 40
0
 40
0
 40
0
 40
1
 40
1
 40
1
 40
1
 10
335.098250
 20
204.139810
 30
0.0
 10
333.379910
 20
203.240420
 30
0.0
 10
331.089810
 20
203.150400
 30
0.0
 10
329.286350
 20
203.863930
 30
0.0
  0
SPLINE
  5
112
100
AcDbEntity
  8
Layer_1
 62
1
100
AcDbSpline
 70
8
 71
3
 72
8
 73
4
 74
0
 40
0
 40
0
 40
0
 40
0
 40
1
 40
1
 40
1
 40
1
 10
329.286350
 20
203.863930
 30
0.0
 10
327.359870
 20
204.626120
 30
0.0
 10
324.960190
 20
208.326530
 30
0.0
 10
324.960190
 20
208.326530
 30
0.0
  0
SPLINE
  5
113
100
AcDbEntity
  8
Layer_1
 62
1
100
AcDbSpline
 70
8
 71
3
 72
8
 73
4
 74
0
 40
0
 40
0
 40
0
 40
0
 40
1
 40
1
 40
1
 40
1
 10
324.960190
 20
208.326530
 30
0.0
 10
324.960190
 20
208.326530
 30
0.0
 10
320.361080
 20
215.337630
 30
0.0
 10
313.274640
 20
220.160530
 30
0.0
  0
SPLINE
  5
114
100
AcDbEntity
  8
Layer_1
 62
1
100
AcDbSpline
 70
8
 71
3
 72
8
 73
4
 74
0
 40
0
 40
0
 40
0
 40
0
 40
1
 40
1
 40
1
 40
1
 10
313.274640
 20
220.160530
 30
0.0
 10
309.657150
 20
222.622530
 30
0.0
 10
305.819940
 20
224.395130
 30
0.0
 10
301.710190
 20
224.764030
 30
0.0
  0
SPLINE
  5
115
100
AcDbEntity
  8
Layer_1
 62
1
100
AcDbSpline
 70
8
 71
3
 72
8
 73
4
 74
0
 40
0
 40
0
 40
0
 40
0
 40
1
 40
1
 40
1
 40
1
 10
301.710190
 20
224.764030
 30
0.0
 10
297.600430
 20
225.132930
 30
0.0
 10
293.031300
 20
224.247630
 30
0.0
 10
287.311750
 20
220.496430
 30
0.0
  0
SPLINE
  5
116
100
AcDbEntity
  8
Layer_1
 62
1
100
AcDbSpline
 70
8
 71
3
 72
8
 73
4
 74
0
 40
0
 40
0
 40
0
 40
0
 40
1
 40
1
 40
1
 40
1
 10
287.311750
 20
220.496430
 30
0.0
 10
278.748590
 20
214.880330
 30
0.0
 10
275.454010
 20
208.001730
 30
0.0
 10
275.106670
 20
200.555030
 30
0.0
  0
SPLINE
  5
117
100
AcDbEntity
  8
Layer_1
 62
1
100
AcDbSpline
 70
8
 71
3
 72
8
 73
4
 74
0
 40
0
 40
0
 40
0
 40
0
 40
1
 40
1
 40
1
 40
1
 10
275.106670
 20
200.555030
 30
0.0
 10
274.762190
 20
193.169630
 30
0.0
 10
277.835810
 20
185.151730
 30
0.0
 10
283.839090
 20
178.898830
 30
0.0
  0
SPLINE
  5
118
100
AcDbEntity
  8
Layer_1
 62
1
100
AcDbSpline
 70
8
 71
3
 72
8
 73
4
 74
0
 40
0
 40
0
 40
0
 40
0
 40
1
 40
1
 40
1
 40
1
 10
283.839090
 20
178.898830
 30
0.0
 10
292.421850
 20
169.959130
 30
0.0
 10
303.362600
 20
161.630730
 30
0.0
 10
313.551980
 20
153.164420
 30
0.0
  0
SPLINE
  5
119
100
AcDbEntity
  8
Layer_1
 62
1
100
AcDbSpline
 70
8
 71
3
 72
8
 73
4
 74
0
 40
0
 40
0
 40
0
 40
0
 40
1
 40
1
 40
1
 40
1
 10
313.551980
 20
153.164420
 30
0.0
 10
321.319110
 20
146.710740
 30
0.0
 10
328.510490
 20
140.081060
 30
0.0
 10
333.985580
 20
132.535510
 30
0.0
  0
SPLINE
  5
11a
100
AcDbEntity
  8
Layer_1
 62
1
100
AcDbSpline
 70
8
 71
3
 72
8
 73
4
 74
0
 40
0
 40
0
 40
0
 40
0
 40
1
 40
1
 40
1
 40
1
 10
333.985580
 20
132.535510
 30
0.0
 10
348.865980
 20
141.716640
 30
0.0
 10
372.716050
 20
160.196730
 30
0.0
 10
383.401590
 20
177.762030
 30
0.0
  0
SPLINE
  5
11b
100
AcDbEntity
  8
Layer_1
 62
1
100
AcDbSpline
 70
8
 71
3
 72
8
 73
4
 74
0
 40
0
 40
0
 40
0
 40
0
 40
1
 40
1
 40
1
 40
1
 10
383.401590
 20
177.762030
 30
0.0
 10
394.216300
 20
195.539730
 30
0.0
 10
387.860380
 20
214.194230
 30
0.0
 10
378.395730
 20
220.191730
 30
0.0
  0
SPLINE
  5
11c
100
AcDbEntity
  8
Layer_1
 62
1
100
AcDbSpline
 70
8
 71
3
 72
8
 73
4
 74
0
 40
0
 40
0
 40
0
 40
0
 40
1
 40
1
 40
1
 40
1
 10
378.395730
 20
220.191730
 30
0.0
 10
371.195600
 20
224.754330
 30
0.0
 10
365.660110
 20
225.967230
 30
0.0
 10
361.149640
 20
225.707430
 30
0.0
  0
LINE
  5
11d
100
AcDbEntity
  8
Layer_1
 62
1
100
AcDbLine
 10
361.149640
 20
225.707430
 30
0.0
 11
361.149640
 21
225.707430
 31
0.0
  0
SPLINE
  5
11e
100
AcDbEntity
  8
Layer_1
 62
1
100
AcDbSpline
 70
8
 71
3
 72
8
 73
4
 74
0
 40
0
 40
0
 40
0
 40
0
 40
1
 40
1
 40
1
 40
1
 10
282.693624
 20
61.782288
 30
0.0
 10
282.693624
 20
61.782288
 30
0.0
 10
303.566384
 20
28.932388
 30
0.0
 10
331.468064
 20
47.231588
 30
0.0
  0
SPLINE
  5
11f
100
AcDbEntity
  8
Layer_1
 62
1
100
AcDbSpline
 70
8
 71
3
 72
8
 73
4
 74
0
 40
0
 40
0
 40
0
 40
0
 40
1
 40
1
 40
1
 40
1
 10
331.468064
 20
47.231588
 30
0.0
 10
352.337104
 20
60.918388
 30
0.0
 10
351.143044
 20
85.626588
 30
0.0
 10
336.325334
 20
101.060588
 30
0.0
  0
SPLINE
  5
120
100
AcDbEntity
  8
Layer_1
 62
1
100
AcDbSpline
 70
8
 71
3
 72
8
 73
4
 74
0
 40
0
 40
0
 40
0
 40
0
 40
1
 40
1
 40
1
 40
1
 10
336.325334
 20
101.060588
 30
0.0
 10
317.925374
 20
120.225758
 30
0.0
 10
291.612094
 20
134.908908
 30
0.0
 10
282.693614
 20
152.803468
 30
0.0
  0
SPLINE
  5
121
100
AcDbEntity
  8
Layer_1
 62
1
100
AcDbSpline
 70
8
 71
3
 72
8
 73
4
 74
0
 40
0
 40
0
 40
0
 40
0
 40
1
 40
1
 40
1
 40
1
 10
282.693614
 20
152.803468
 30
0.0
 10
267.869804
 20
144.834088
 30
0.0
 10
237.802894
 20
123.249128
 30
0.0
 10
224.155774
 20
100.815488
 30
0.0
  0
SPLINE
  5
122
100
AcDbEntity
  8
Layer_1
 62
1
100
AcDbSpline
 70
8
 71
3
 72
8
 73
4
 74
0
 40
0
 40
0
 40
0
 40
0
 40
1
 40
1
 40
1
 40
1
 10
224.155774
 20
100.815488
 30
0.0
 10
211.355424
 20
79.773788
 30
0.0
 10
217.713014
 20
56.344188
 30
0.0
 10
231.715914
 20
47.470788
 30
0.0
  0
SPLINE
  5
123
100
AcDbEntity
  8
Layer_1
 62
1
100
AcDbSpline
 70
8
 71
3
 72
8
 73
4
 74
0
 40
0
 40
0
 40
0
 40
0
 40
1
 40
1
 40
1
 40
1
 10
231.715914
 20
47.470788
 30
0.0
 10
264.860444
 20
26.467788
 30
0.0
 10
282.693624
 20
61.782288
 30
0.0
 10
282.693624
 20
61.782288
 30
0.0
  0
LINE
  5
124
100
AcDbEntity
  8
Layer_1
 62
1
100
AcDbLine
 10
282.693624
 20
61.782288
 30
0.0
 11
282.693624
 21
61.782288
 31
0.0
  0
SPLINE
  5
125
100
AcDbEntity
  8
Layer_1
 62
1
100
AcDbSpline
 70
8
 71
3
 72
8
 73
4
 74
0
 40
0
 40
0
 40
0
 40
0
 40
1
 40
1
 40
1
 40
1
 10
254.101668
 20
31.267452
 30
0.0
 10
245.611698
 20
30.811702
 30
0.0
 10
236.062218
 20
32.877362
 30
0.0
 10
226.363388
 20
39.023312
 30
0.0
  0
SPLINE
  5
126
100
AcDbEntity
  8
Layer_1
 62
1
100
AcDbSpline
 70
8
 71
3
 72
8
 73
4
 74
0
 40
0
 40
0
 40
0
 40
0
 40
1
 40
1
 40
1
 40
1
 10
226.363388
 20
39.023312
 30
0.0
 10
206.793788
 20
51.424232
 30
0.0
 10
200.335928
 20
80.899872
 30
0.0
 10
215.613388
 20
106.013542
 30
0.0
  0
SPLINE
  5
127
100
AcDbEntity
  8
Layer_1
 62
1
100
AcDbSpline
 70
8
 71
3
 72
8
 73
4
 74
0
 40
0
 40
0
 40
0
 40
0
 40
1
 40
1
 40
1
 40
1
 10
215.613388
 20
106.013542
 30
0.0
 10
231.169698
 20
131.585582
 30
0.0
 10
261.469488
 20
152.746282
 30
0.0
 10
277.959098
 20
161.611202
 30
0.0
  0
LINE
  5
128
100
AcDbEntity
  8
Layer_1
 62
1
100
AcDbLine
 10
277.959098
 20
161.611202
 30
0.0
 11
287.043078
 21
166.495962
 31
0.0
  0
LINE
  5
129
100
AcDbEntity
  8
Layer_1
 62
1
100
AcDbLine
 10
287.043078
 20
166.495962
 30
0.0
 11
291.642688
 21
157.263542
 31
0.0
  0
SPLINE
  5
12a
100
AcDbEntity
  8
Layer_1
 62
1
100
AcDbSpline
 70
8
 71
3
 72
8
 73
4
 74
0
 40
0
 40
0
 40
0
 40
0
 40
1
 40
1
 40
1
 40
1
 10
291.642688
 20
157.263542
 30
0.0
 10
294.837638
 20
150.853012
 30
0.0
 10
302.601448
 20
143.194422
 30
0.0
 10
312.343858
 20
135.099482
 30
0.0
  0
SPLINE
  5
12b
100
AcDbEntity
  8
Layer_1
 62
1
100
AcDbSpline
 70
8
 71
3
 72
8
 73
4
 74
0
 40
0
 40
0
 40
0
 40
0
 40
1
 40
1
 40
1
 40
1
 10
312.343858
 20
135.099482
 30
0.0
 10
322.086268
 20
127.004542
 30
0.0
 10
333.573468
 20
118.366352
 30
0.0
 10
343.539168
 20
107.986202
 30
0.0
  0
SPLINE
  5
12c
100
AcDbEntity
  8
Layer_1
 62
1
100
AcDbSpline
 70
8
 71
3
 72
8
 73
4
 74
0
 40
0
 40
0
 40
0
 40
0
 40
1
 40
1
 40
1
 40
1
 10
343.539168
 20
107.986202
 30
0.0
 10
352.701408
 20
98.442892
 30
0.0
 10
357.866748
 20
85.868732
 30
0.0
 10
357.267688
 20
73.025262
 30
0.0
  0
SPLINE
  5
12d
100
AcDbEntity
  8
Layer_1
 62
1
100
AcDbSpline
 70
8
 71
3
 72
8
 73
4
 74
0
 40
0
 40
0
 40
0
 40
0
 40
1
 40
1
 40
1
 40
1
 10
357.267688
 20
73.025262
 30
0.0
 10
356.668648
 20
60.182242
 30
0.0
 10
349.767598
 20
47.273802
 30
0.0
 10
336.953238
 20
38.869012
 30
0.0
  0
LINE
  5
12e
100
AcDbEntity
  8
Layer_1
 62
1
100
AcDbLine
 10
336.953238
 20
38.869012
 30
0.0
 11
336.951238
 21
38.869012
 31
0.0
  0
SPLINE
  5
12f
100
AcDbEntity
  8
Layer_1
 62
1
100
AcDbSpline
 70
8
 71
3
 72
8
 73
4
 74
0
 40
0
 40
0
 40
0
 40
0
 40
1
 40
1
 40
1
 40
1
 10
336.951238
 20
38.869012
 30
0.0
 10
319.749958
 20
27.588572
 30
0.0
 10
301.714488
 20
32.079472
 30
0.0
 10
290.992258
 20
39.376822
 30
0.0
  0
SPLINE
  5
130
100
AcDbEntity
  8
Layer_1
 62
1
100
AcDbSpline
 70
8
 71
3
 72
8
 73
4
 74
0
 40
0
 40
0
 40
0
 40
0
 40
1
 40
1
 40
1
 40
1
 10
290.992258
 20
39.376822
 30
0.0
 10
288.030028
 20
41.392862
 30
0.0
 10
285.516998
 20
43.566652
 30
0.0
 10
283.300848
 20
45.699092
 30
0.0
  0
SPLINE
  5
131
100
AcDbEntity
  8
Layer_1
 62
1
100
AcDbSpline
 70
8
 71
3
 72
8
 73
4
 74
0
 40
0
 40
0
 40
0
 40
0
 40
1
 40
1
 40
1
 40
1
 10
283.300848
 20
45.699092
 30
0.0
 10
281.107758
 20
43.308652
 30
0.0
 10
278.585998
 20
40.878732
 30
0.0
 10
275.482488
 20
38.640502
 30
0.0
  0
SPLINE
  5
132
100
AcDbEntity
  8
Layer_1
 62
1
100
AcDbSpline
 70
8
 71
3
 72
8
 73
4
 74
0
 40
0
 40
0
 40
0
 40
0
 40
1
 40
1
 40
1
 40
1
 10
275.482488
 20
38.640502
 30
0.0
 10
270.021128
 20
34.701792
 30
0.0
 10
262.591598
 20
31.723202
 30
0.0
 10
254.101628
 20
31.267452
 30
0.0
  0
LINE
  5
133
100
AcDbEntity
  8
Layer_1
 62
1
100
AcDbLine
 10
254.101628
 20
31.267452
 30
0.0
 11
254.101668
 21
31.267452
 31
0.0
  0
SPLINE
  5
134
100
AcDbEntity
  8
Layer_1
 62
1
100
AcDbSpline
 70
8
 71
3
 72
8
 73
4
 74
0
 40
0
 40
0
 40
0
 40
0
 40
1
 40
1
 40
1
 40
1
 10
99.118951
 20
230.699730
 30
0.0
 10
93.433291
 20
230.372130
 30
0.0
 10
88.723771
 20
228.085430
 30
0.0
 10
84.771291
 20
225.234930
 30
0.0
  0
SPLINE
  5
135
100
AcDbEntity
  8
Layer_1
 62
1
100
AcDbSpline
 70
8
 71
3
 72
8
 73
4
 74
0
 40
0
 40
0
 40
0
 40
0
 40
1
 40
1
 40
1
 40
1
 10
84.771291
 20
225.234930
 30
0.0
 10
76.866331
 20
219.533930
 30
0.0
 10
72.634561
 20
211.283710
 30
0.0
 10
72.634561
 20
211.283710
 30
0.0
  0
LINE
  5
136
100
AcDbEntity
  8
Layer_1
 62
1
100
AcDbLine
 10
72.634561
 20
211.283710
 30
0.0
 11
70.255661
 21
206.572810
 31
0.0
  0
LINE
  5
137
100
AcDbEntity
  8
Layer_1
 62
1
100
AcDbLine
 10
70.255661
 20
206.572810
 30
0.0
 11
67.425581
 21
211.027810
 31
0.0
  0
SPLINE
  5
138
100
AcDbEntity
  8
Layer_1
 62
1
100
AcDbSpline
 70
8
 71
3
 72
8
 73
4
 74
0
 40
0
 40
0
 40
0
 40
0
 40
1
 40
1
 40
1
 40
1
 10
67.425581
 20
211.027810
 30
0.0
 10
67.425581
 20
211.027810
 30
0.0
 10
62.446411
 20
218.780130
 30
0.0
 10
54.345511
 20
224.293530
 30
0.0
  0
SPLINE
  5
139
100
AcDbEntity
  8
Layer_1
 62
1
100
AcDbSpline
 70
8
 71
3
 72
8
 73
4
 74
0
 40
0
 40
0
 40
0
 40
0
 40
1
 40
1
 40
1
 40
1
 10
54.345511
 20
224.293530
 30
0.0
 10
46.244601
 20
229.806830
 30
0.0
 10
35.803511
 20
233.188230
 30
0.0
 10
22.827931
 20
224.678230
 30
0.0
  0
SPLINE
  5
13a
100
AcDbEntity
  8
Layer_1
 62
1
100
AcDbSpline
 70
8
 71
3
 72
8
 73
4
 74
0
 40
0
 40
0
 40
0
 40
0
 40
1
 40
1
 40
1
 40
1
 10
22.827931
 20
224.678230
 30
0.0
 10
13.107621
 20
218.303230
 30
0.0
 10
8.784501
 20
209.696810
 30
0.0
 10
8.368951
 20
200.787610
 30
0.0
  0
SPLINE
  5
13b
100
AcDbEntity
  8
Layer_1
 62
1
100
AcDbSpline
 70
8
 71
3
 72
8
 73
4
 74
0
 40
0
 40
0
 40
0
 40
0
 40
1
 40
1
 40
1
 40
1
 10
8.368951
 20
200.787610
 30
0.0
 10
7.953401
 20
191.878410
 30
0.0
 10
11.607201
 20
182.605110
 30
0.0
 10
18.490041
 20
175.436010
 30
0.0
  0
SPLINE
  5
13c
100
AcDbEntity
  8
Layer_1
 62
1
100
AcDbSpline
 70
8
 71
3
 72
8
 73
4
 74
0
 40
0
 40
0
 40
0
 40
0
 40
1
 40
1
 40
1
 40
1
 10
18.490041
 20
175.436010
 30
0.0
 10
27.460311
 20
166.092710
 30
0.0
 10
38.546711
 20
157.684610
 30
0.0
 10
48.615041
 20
149.318850
 30
0.0
  0
SPLINE
  5
13d
100
AcDbEntity
  8
Layer_1
 62
1
100
AcDbSpline
 70
8
 71
3
 72
8
 73
4
 74
0
 40
0
 40
0
 40
0
 40
0
 40
1
 40
1
 40
1
 40
1
 10
48.615041
 20
149.318850
 30
0.0
 10
57.689301
 20
141.779080
 30
0.0
 10
65.818221
 20
134.243420
 30
0.0
 10
70.911911
 20
125.732920
 30
0.0
  0
SPLINE
  5
13e
100
AcDbEntity
  8
Layer_1
 62
1
100
AcDbSpline
 70
8
 71
3
 72
8
 73
4
 74
0
 40
0
 40
0
 40
0
 40
0
 40
1
 40
1
 40
1
 40
1
 10
70.911911
 20
125.732920
 30
0.0
 10
85.876311
 20
134.265090
 30
0.0
 10
113.446411
 20
154.639220
 30
0.0
 10
125.931451
 20
175.162610
 30
0.0
  0
SPLINE
  5
13f
100
AcDbEntity
  8
Layer_1
 62
1
100
AcDbSpline
 70
8
 71
3
 72
8
 73
4
 74
0
 40
0
 40
0
 40
0
 40
0
 40
1
 40
1
 40
1
 40
1
 10
125.931451
 20
175.162610
 30
0.0
 10
137.988671
 20
194.982710
 30
0.0
 10
131.662771
 20
216.599530
 30
0.0
 10
119.329881
 20
224.414630
 30
0.0
  0
SPLINE
  5
140
100
AcDbEntity
  8
Layer_1
 62
1
100
AcDbSpline
 70
8
 71
3
 72
8
 73
4
 74
0
 40
0
 40
0
 40
0
 40
0
 40
1
 40
1
 40
1
 40
1
 10
119.329881
 20
224.414630
 30
0.0
 10
111.467571
 20
229.396730
 30
0.0
 10
104.804611
 20
231.027330
 30
0.0
 10
99.118951
 20
230.699730
 30
0.0
  0
LINE
  5
141
100
AcDbEntity
  8
Layer_1
 62
1
100
AcDbLine
 10
99.118951
 20
230.699730
 30
0.0
 11
99.118951
 21
230.699730
 31
0.0
  0
SPLINE
  5
142
100
AcDbEntity
  8
Layer_1
 62
1
100
AcDbSpline
 70
8
 71
3
 72
8
 73
4
 74
0
 40
0
 40
0
 40
0
 40
0
 40
1
 40
1
 40
1
 40
1
 10
200.815440
 20
209.763159
 30
0.0
 10
200.815440
 20
209.763159
 30
0.0
 10
179.942680
 20
242.613059
 30
0.0
 10
152.041000
 20
224.313859
 30
0.0
  0
SPLINE
  5
143
100
AcDbEntity
  8
Layer_1
 62
1
100
AcDbSpline
 70
8
 71
3
 72
8
 73
4
 74
0
 40
0
 40
0
 40
0
 40
0
 40
1
 40
1
 40
1
 40
1
 10
152.041000
 20
224.313859
 30
0.0
 10
131.171960
 20
210.627059
 30
0.0
 10
132.366020
 20
185.918859
 30
0.0
 10
147.183730
 20
170.484859
 30
0.0
  0
SPLINE
  5
144
100
AcDbEntity
  8
Layer_1
 62
1
100
AcDbSpline
 70
8
 71
3
 72
8
 73
4
 74
0
 40
0
 40
0
 40
0
 40
0
 40
1
 40
1
 40
1
 40
1
 10
147.183730
 20
170.484859
 30
0.0
 10
165.583690
 20
151.319689
 30
0.0
 10
191.896970
 20
136.636539
 30
0.0
 10
200.815450
 20
118.741979
 30
0.0
  0
SPLINE
  5
145
100
AcDbEntity
  8
Layer_1
 62
1
100
AcDbSpline
 70
8
 71
3
 72
8
 73
4
 74
0
 40
0
 40
0
 40
0
 40
0
 40
1
 40
1
 40
1
 40
1
 10
200.815450
 20
118.741979
 30
0.0
 10
215.639260
 20
126.711359
 30
0.0
 10
245.706170
 20
148.296319
 30
0.0
 10
259.353290
 20
170.729959
 30
0.0
  0
SPLINE
  5
146
100
AcDbEntity
  8
Layer_1
 62
1
100
AcDbSpline
 70
8
 71
3
 72
8
 73
4
 74
0
 40
0
 40
0
 40
0
 40
0
 40
1
 40
1
 40
1
 40
1
 10
259.353290
 20
170.729959
 30
0.0
 10
272.153640
 20
191.771659
 30
0.0
 10
265.796050
 20
215.201259
 30
0.0
 10
251.793150
 20
224.074659
 30
0.0
  0
SPLINE
  5
147
100
AcDbEntity
  8
Layer_1
 62
1
100
AcDbSpline
 70
8
 71
3
 72
8
 73
4
 74
0
 40
0
 40
0
 40
0
 40
0
 40
1
 40
1
 40
1
 40
1
 10
251.793150
 20
224.074659
 30
0.0
 10
218.648620
 20
245.077659
 30
0.0
 10
200.815440
 20
209.763159
 30
0.0
 10
200.815440
 20
209.763159
 30
0.0
  0
LINE
  5
148
100
AcDbEntity
  8
Layer_1
 62
1
100
AcDbLine
 10
200.815440
 20
209.763159
 30
0.0
 11
200.815440
 21
209.763159
 31
0.0
  0
SPLINE
  5
149
100
AcDbEntity
  8
Layer_1
 62
1
100
AcDbSpline
 70
8
 71
3
 72
8
 73
4
 74
0
 40
0
 40
0
 40
0
 40
0
 40
1
 40
1
 40
1
 40
1
 10
230.265020
 20
222.833660
 30
0.0
 10
225.755090
 20
222.573760
 30
0.0
 10
222.007230
 20
220.796660
 30
0.0
 10
218.554080
 20
218.306260
 30
0.0
  0
SPLINE
  5
14a
100
AcDbEntity
  8
Layer_1
 62
1
100
AcDbSpline
 70
8
 71
3
 72
8
 73
4
 74
0
 40
0
 40
0
 40
0
 40
0
 40
1
 40
1
 40
1
 40
1
 10
218.554080
 20
218.306260
 30
0.0
 10
211.827980
 20
213.455460
 30
0.0
 10
207.959320
 20
206.160460
 30
0.0
 10
207.948610
 20
206.140260
 30
0.0
  0
SPLINE
  5
14b
100
AcDbEntity
  8
Layer_1
 62
1
100
AcDbSpline
 70
8
 71
3
 72
8
 73
4
 74
0
 40
0
 40
0
 40
0
 40
0
 40
1
 40
1
 40
1
 40
1
 10
207.948610
 20
206.140260
 30
0.0
 10
207.948610
 20
206.140260
 30
0.0
 10
206.027130
 20
202.215260
 30
0.0
 10
204.213630
 20
201.266060
 30
0.0
  0
SPLINE
  5
14c
100
AcDbEntity
  8
Layer_1
 62
1
100
AcDbSpline
 70
8
 71
3
 72
8
 73
4
 74
0
 40
0
 40
0
 40
0
 40
0
 40
1
 40
1
 40
1
 40
1
 10
204.213630
 20
201.266060
 30
0.0
 10
202.495290
 20
200.366660
 30
0.0
 10
200.205190
 20
200.276660
 30
0.0
 10
198.401730
 20
200.990160
 30
0.0
  0
SPLINE
  5
14d
100
AcDbEntity
  8
Layer_1
 62
1
100
AcDbSpline
 70
8
 71
3
 72
8
 73
4
 74
0
 40
0
 40
0
 40
0
 40
0
 40
1
 40
1
 40
1
 40
1
 10
198.401730
 20
200.990160
 30
0.0
 10
196.475250
 20
201.752360
 30
0.0
 10
194.075570
 20
205.452760
 30
0.0
 10
194.075570
 20
205.452760
 30
0.0
  0
SPLINE
  5
14e
100
AcDbEntity
  8
Layer_1
 62
1
100
AcDbSpline
 70
8
 71
3
 72
8
 73
4
 74
0
 40
0
 40
0
 40
0
 40
0
 40
1
 40
1
 40
1
 40
1
 10
194.075570
 20
205.452760
 30
0.0
 10
194.075570
 20
205.452760
 30
0.0
 10
189.476460
 20
212.463860
 30
0.0
 10
182.390020
 20
217.286760
 30
0.0
  0
SPLINE
  5
14f
100
AcDbEntity
  8
Layer_1
 62
1
100
AcDbSpline
 70
8
 71
3
 72
8
 73
4
 74
0
 40
0
 40
0
 40
0
 40
0
 40
1
 40
1
 40
1
 40
1
 10
182.390020
 20
217.286760
 30
0.0
 10
178.772530
 20
219.748760
 30
0.0
 10
174.935320
 20
221.521360
 30
0.0
 10
170.825570
 20
221.890260
 30
0.0
  0
SPLINE
  5
150
100
AcDbEntity
  8
Layer_1
 62
1
100
AcDbSpline
 70
8
 71
3
 72
8
 73
4
 74
0
 40
0
 40
0
 40
0
 40
0
 40
1
 40
1
 40
1
 40
1
 10
170.825570
 20
221.890260
 30
0.0
 10
166.715810
 20
222.259160
 30
0.0
 10
162.146680
 20
221.373860
 30
0.0
 10
156.427130
 20
217.622660
 30
0.0
  0
SPLINE
  5
151
100
AcDbEntity
  8
Layer_1
 62
1
100
AcDbSpline
 70
8
 71
3
 72
8
 73
4
 74
0
 40
0
 40
0
 40
0
 40
0
 40
1
 40
1
 40
1
 40
1
 10
156.427130
 20
217.622660
 30
0.0
 10
147.863970
 20
212.006560
 30
0.0
 10
144.569390
 20
205.127960
 30
0.0
 10
144.222050
 20
197.681260
 30
0.0
  0
SPLINE
  5
152
100
AcDbEntity
  8
Layer_1
 62
1
100
AcDbSpline
 70
8
 71
3
 72
8
 73
4
 74
0
 40
0
 40
0
 40
0
 40
0
 40
1
 40
1
 40
1
 40
1
 10
144.222050
 20
197.681260
 30
0.0
 10
143.877570
 20
190.295860
 30
0.0
 10
146.951190
 20
182.277960
 30
0.0
 10
152.954470
 20
176.025060
 30
0.0
  0
SPLINE
  5
153
100
AcDbEntity
  8
Layer_1
 62
1
100
AcDbSpline
 70
8
 71
3
 72
8
 73
4
 74
0
 40
0
 40
0
 40
0
 40
0
 40
1
 40
1
 40
1
 40
1
 10
152.954470
 20
176.025060
 30
0.0
 10
161.537230
 20
167.085360
 30
0.0
 10
172.477980
 20
158.756960
 30
0.0
 10
182.667360
 20
150.290660
 30
0.0
  0
SPLINE
  5
154
100
AcDbEntity
  8
Layer_1
 62
1
100
AcDbSpline
 70
8
 71
3
 72
8
 73
4
 74
0
 40
0
 40
0
 40
0
 40
0
 40
1
 40
1
 40
1
 40
1
 10
182.667360
 20
150.290660
 30
0.0
 10
190.434490
 20
143.836960
 30
0.0
 10
197.625870
 20
137.207280
 30
0.0
 10
203.100960
 20
129.661730
 30
0.0
  0
SPLINE
  5
155
100
AcDbEntity
  8
Layer_1
 62
1
100
AcDbSpline
 70
8
 71
3
 72
8
 73
4
 74
0
 40
0
 40
0
 40
0
 40
0
 40
1
 40
1
 40
1
 40
1
 10
203.100960
 20
129.661730
 30
0.0
 10
217.981360
 20
138.842860
 30
0.0
 10
241.831430
 20
157.322960
 30
0.0
 10
252.516970
 20
174.888260
 30
0.0
  0
SPLINE
  5
156
100
AcDbEntity
  8
Layer_1
 62
1
100
AcDbSpline
 70
8
 71
3
 72
8
 73
4
 74
0
 40
0
 40
0
 40
0
 40
0
 40
1
 40
1
 40
1
 40
1
 10
252.516970
 20
174.888260
 30
0.0
 10
263.331680
 20
192.665960
 30
0.0
 10
256.975750
 20
211.320460
 30
0.0
 10
247.511100
 20
217.317960
 30
0.0
  0
SPLINE
  5
157
100
AcDbEntity
  8
Layer_1
 62
1
100
AcDbSpline
 70
8
 71
3
 72
8
 73
4
 74
0
 40
0
 40
0
 40
0
 40
0
 40
1
 40
1
 40
1
 40
1
 10
247.511100
 20
217.317960
 30
0.0
 10
240.310980
 20
221.880560
 30
0.0
 10
234.775490
 20
223.093460
 30
0.0
 10
230.265020
 20
222.833660
 30
0.0
  0
LINE
  5
158
100
AcDbEntity
  8
Layer_1
 62
1
100
AcDbLine
 10
230.265020
 20
222.833660
 30
0.0
 11
230.265020
 21
222.833660
 31
0.0
  0
LINE
  5
159
100
AcDbEntity
  8
Layer_1
 62
1
100
AcDbLine
 10
22.824464
 20
233.134041
 30
0.0
 11
22.824464
 21
252.068538
 31
0.0
  0
LINE
  5
15a
100
AcDbEntity
  8
Layer_1
 62
1
100
AcDbLine
 10
22.824464
 20
254.233491
 30
0.0
 11
22.824464
 21
273.167925
 31
0.0
  0
LINE
  5
15b
100
AcDbEntity
  8
Layer_1
 62
1
100
AcDbLine
 10
20.826663
 20
271.773304
 30
0.0
 11
20.826663
 21
234.528702
 31
0.0
  0
LINE
  5
15c
100
AcDbEntity
  8
Layer_1
 62
1
100
AcDbLine
 10
18.828872
 20
233.134041
 30
0.0
 11
18.828872
 21
252.068458
 31
0.0
  0
LINE
  5
15d
100
AcDbEntity
  8
Layer_1
 62
1
100
AcDbLine
 10
18.828872
 20
254.233491
 30
0.0
 11
18.828872
 21
273.167925
 31
0.0
  0
LINE
  5
15e
100
AcDbEntity
  8
Layer_1
 62
1
100
AcDbLine
 10
16.831081
 20
271.773304
 30
0.0
 11
16.831081
 21
234.528702
 31
0.0
  0
LINE
  5
15f
100
AcDbEntity
  8
Layer_1
 62
1
100
AcDbLine
 10
14.833280
 20
233.134041
 30
0.0
 11
14.833280
 21
252.068458
 31
0.0
  0
LINE
  5
160
100
AcDbEntity
  8
Layer_1
 62
1
100
AcDbLine
 10
14.833280
 20
254.233491
 30
0.0
 11
14.833280
 21
273.167925
 31
0.0
  0
LINE
  5
161
100
AcDbEntity
  8
Layer_1
 62
1
100
AcDbLine
 10
12.835484
 20
271.773304
 30
0.0
 11
12.835484
 21
234.528702
 31
0.0
  0
LINE
  5
162
100
AcDbEntity
  8
Layer_1
 62
1
100
AcDbLine
 10
10.837689
 20
233.134041
 30
0.0
 11
10.837689
 21
252.068538
 31
0.0
  0
LINE
  5
163
100
AcDbEntity
  8
Layer_1
 62
1
100
AcDbLine
 10
10.837689
 20
254.233491
 30
0.0
 11
10.837689
 21
273.167925
 31
0.0
  0
LINE
  5
164
100
AcDbEntity
  8
Layer_1
 62
1
100
AcDbLine
 10
38.806823
 20
233.134041
 30
0.0
 11
38.806823
 21
252.068538
 31
0.0
  0
LINE
  5
165
100
AcDbEntity
  8
Layer_1
 62
1
100
AcDbLine
 10
38.806823
 20
254.233491
 30
0.0
 11
38.806823
 21
273.167925
 31
0.0
  0
LINE
  5
166
100
AcDbEntity
  8
Layer_1
 62
1
100
AcDbLine
 10
36.809032
 20
271.773304
 30
0.0
 11
36.809032
 21
234.528702
 31
0.0
  0
LINE
  5
167
100
AcDbEntity
  8
Layer_1
 62
1
100
AcDbLine
 10
34.811241
 20
233.134041
 30
0.0
 11
34.811241
 21
252.068458
 31
0.0
  0
LINE
  5
168
100
AcDbEntity
  8
Layer_1
 62
1
100
AcDbLine
 10
34.811241
 20
254.233491
 30
0.0
 11
34.811241
 21
273.167925
 31
0.0
  0
LINE
  5
169
100
AcDbEntity
  8
Layer_1
 62
1
100
AcDbLine
 10
32.813440
 20
271.773304
 30
0.0
 11
32.813440
 21
234.528702
 31
0.0
  0
LINE
  5
16a
100
AcDbEntity
  8
Layer_1
 62
1
100
AcDbLine
 10
30.815649
 20
233.134041
 30
0.0
 11
30.815649
 21
252.068458
 31
0.0
  0
LINE
  5
16b
100
AcDbEntity
  8
Layer_1
 62
1
100
AcDbLine
 10
30.815649
 20
254.233491
 30
0.0
 11
30.815649
 21
273.167925
 31
0.0
  0
LINE
  5
16c
100
AcDbEntity
  8
Layer_1
 62
1
100
AcDbLine
 10
28.817847
 20
271.773304
 30
0.0
 11
28.817847
 21
234.528702
 31
0.0
  0
LINE
  5
16d
100
AcDbEntity
  8
Layer_1
 62
1
100
AcDbLine
 10
26.820046
 20
233.134041
 30
0.0
 11
26.820046
 21
252.068538
 31
0.0
  0
LINE
  5
16e
100
AcDbEntity
  8
Layer_1
 62
1
100
AcDbLine
 10
26.820046
 20
254.233491
 30
0.0
 11
26.820046
 21
273.167925
 31
0.0
  0
LINE
  5
16f
100
AcDbEntity
  8
Layer_1
 62
1
100
AcDbLine
 10
24.822266
 20
271.773304
 30
0.0
 11
24.822266
 21
234.528702
 31
0.0
  0
LINE
  5
170
100
AcDbEntity
  8
Layer_1
 62
1
100
AcDbLine
 10
54.789193
 20
233.134041
 30
0.0
 11
54.789193
 21
252.068538
 31
0.0
  0
LINE
  5
171
100
AcDbEntity
  8
Layer_1
 62
1
100
AcDbLine
 10
54.789193
 20
254.233491
 30
0.0
 11
54.789193
 21
273.167925
 31
0.0
  0
LINE
  5
172
100
AcDbEntity
  8
Layer_1
 62
1
100
AcDbLine
 10
52.791402
 20
271.773304
 30
0.0
 11
52.791402
 21
234.528702
 31
0.0
  0
LINE
  5
173
100
AcDbEntity
  8
Layer_1
 62
1
100
AcDbLine
 10
50.793601
 20
233.134041
 30
0.0
 11
50.793601
 21
252.068458
 31
0.0
  0
LINE
  5
174
100
AcDbEntity
  8
Layer_1
 62
1
100
AcDbLine
 10
50.793601
 20
254.233491
 30
0.0
 11
50.793601
 21
273.167925
 31
0.0
  0
LINE
  5
175
100
AcDbEntity
  8
Layer_1
 62
1
100
AcDbLine
 10
48.795799
 20
271.773304
 30
0.0
 11
48.795799
 21
234.528702
 31
0.0
  0
LINE
  5
176
100
AcDbEntity
  8
Layer_1
 62
1
100
AcDbLine
 10
46.798008
 20
233.134041
 30
0.0
 11
46.798008
 21
252.068458
 31
0.0
  0
LINE
  5
177
100
AcDbEntity
  8
Layer_1
 62
1
100
AcDbLine
 10
46.798008
 20
254.233491
 30
0.0
 11
46.798008
 21
273.167925
 31
0.0
  0
LINE
  5
178
100
AcDbEntity
  8
Layer_1
 62
1
100
AcDbLine
 10
44.800217
 20
271.773304
 30
0.0
 11
44.800217
 21
234.528702
 31
0.0
  0
LINE
  5
179
100
AcDbEntity
  8
Layer_1
 62
1
100
AcDbLine
 10
42.802416
 20
233.134041
 30
0.0
 11
42.802416
 21
252.068538
 31
0.0
  0
LINE
  5
17a
100
AcDbEntity
  8
Layer_1
 62
1
100
AcDbLine
 10
42.802416
 20
254.233491
 30
0.0
 11
42.802416
 21
273.167925
 31
0.0
  0
LINE
  5
17b
100
AcDbEntity
  8
Layer_1
 62
1
100
AcDbLine
 10
40.804625
 20
271.773304
 30
0.0
 11
40.804625
 21
234.528702
 31
0.0
  0
LINE
  5
17c
100
AcDbEntity
  8
Layer_1
 62
1
100
AcDbLine
 10
70.771584
 20
233.134041
 30
0.0
 11
70.771584
 21
252.068538
 31
0.0
  0
LINE
  5
17d
100
AcDbEntity
  8
Layer_1
 62
1
100
AcDbLine
 10
70.771584
 20
254.233491
 30
0.0
 11
70.771584
 21
273.167925
 31
0.0
  0
LINE
  5
17e
100
AcDbEntity
  8
Layer_1
 62
1
100
AcDbLine
 10
68.773782
 20
271.773304
 30
0.0
 11
68.773782
 21
234.528702
 31
0.0
  0
LINE
  5
17f
100
AcDbEntity
  8
Layer_1
 62
1
100
AcDbLine
 10
66.775970
 20
233.134041
 30
0.0
 11
66.775970
 21
252.068458
 31
0.0
  0
LINE
  5
180
100
AcDbEntity
  8
Layer_1
 62
1
100
AcDbLine
 10
66.775970
 20
254.233491
 30
0.0
 11
66.775970
 21
273.167925
 31
0.0
  0
LINE
  5
181
100
AcDbEntity
  8
Layer_1
 62
1
100
AcDbLine
 10
64.778169
 20
271.773304
 30
0.0
 11
64.778169
 21
234.528702
 31
0.0
  0
LINE
  5
182
100
AcDbEntity
  8
Layer_1
 62
1
100
AcDbLine
 10
62.780378
 20
233.134041
 30
0.0
 11
62.780378
 21
252.068458
 31
0.0
  0
LINE
  5
183
100
AcDbEntity
  8
Layer_1
 62
1
100
AcDbLine
 10
62.780378
 20
254.233491
 30
0.0
 11
62.780378
 21
273.167925
 31
0.0
  0
LINE
  5
184
100
AcDbEntity
  8
Layer_1
 62
1
100
AcDbLine
 10
60.782576
 20
271.773304
 30
0.0
 11
60.782576
 21
234.528702
 31
0.0
  0
LINE
  5
185
100
AcDbEntity
  8
Layer_1
 62
1
100
AcDbLine
 10
58.784785
 20
233.134041
 30
0.0
 11
58.784785
 21
252.068538
 31
0.0
  0
LINE
  5
186
100
AcDbEntity
  8
Layer_1
 62
1
100
AcDbLine
 10
58.784785
 20
254.233491
 30
0.0
 11
58.784785
 21
273.167925
 31
0.0
  0
LINE
  5
187
100
AcDbEntity
  8
Layer_1
 62
1
100
AcDbLine
 10
56.786984
 20
271.773304
 30
0.0
 11
56.786984
 21
234.528702
 31
0.0
  0
LINE
  5
188
100
AcDbEntity
  8
Layer_1
 62
1
100
AcDbLine
 10
86.754017
 20
233.134041
 30
0.0
 11
86.754017
 21
252.068538
 31
0.0
  0
LINE
  5
189
100
AcDbEntity
  8
Layer_1
 62
1
100
AcDbLine
 10
86.754017
 20
254.233491
 30
0.0
 11
86.754017
 21
273.167925
 31
0.0
  0
LINE
  5
18a
100
AcDbEntity
  8
Layer_1
 62
1
100
AcDbLine
 10
84.756215
 20
271.773304
 30
0.0
 11
84.756215
 21
234.528702
 31
0.0
  0
LINE
  5
18b
100
AcDbEntity
  8
Layer_1
 62
1
100
AcDbLine
 10
82.758414
 20
233.134041
 30
0.0
 11
82.758414
 21
252.068458
 31
0.0
  0
LINE
  5
18c
100
AcDbEntity
  8
Layer_1
 62
1
100
AcDbLine
 10
82.758414
 20
254.233491
 30
0.0
 11
82.758414
 21
273.167925
 31
0.0
  0
LINE
  5
18d
100
AcDbEntity
  8
Layer_1
 62
1
100
AcDbLine
 10
80.760612
 20
271.773304
 30
0.0
 11
80.760612
 21
234.528702
 31
0.0
  0
LINE
  5
18e
100
AcDbEntity
  8
Layer_1
 62
1
100
AcDbLine
 10
78.762800
 20
233.134041
 30
0.0
 11
78.762800
 21
252.068458
 31
0.0
  0
LINE
  5
18f
100
AcDbEntity
  8
Layer_1
 62
1
100
AcDbLine
 10
78.762800
 20
254.233491
 30
0.0
 11
78.762800
 21
273.167925
 31
0.0
  0
LINE
  5
190
100
AcDbEntity
  8
Layer_1
 62
1
100
AcDbLine
 10
76.764999
 20
271.773304
 30
0.0
 11
76.764999
 21
234.528702
 31
0.0
  0
LINE
  5
191
100
AcDbEntity
  8
Layer_1
 62
1
100
AcDbLine
 10
74.767197
 20
233.134041
 30
0.0
 11
74.767197
 21
252.068538
 31
0.0
  0
LINE
  5
192
100
AcDbEntity
  8
Layer_1
 62
1
100
AcDbLine
 10
74.767197
 20
254.233491
 30
0.0
 11
74.767197
 21
273.167925
 31
0.0
  0
LINE
  5
193
100
AcDbEntity
  8
Layer_1
 62
1
100
AcDbLine
 10
72.769385
 20
271.773304
 30
0.0
 11
72.769385
 21
234.528702
 31
0.0
  0
LINE
  5
194
100
AcDbEntity
  8
Layer_1
 62
1
100
AcDbLine
 10
102.736450
 20
233.134041
 30
0.0
 11
102.736450
 21
252.068538
 31
0.0
  0
LINE
  5
195
100
AcDbEntity
  8
Layer_1
 62
1
100
AcDbLine
 10
102.736450
 20
254.233491
 30
0.0
 11
102.736450
 21
273.167925
 31
0.0
  0
LINE
  5
196
100
AcDbEntity
  8
Layer_1
 62
1
100
AcDbLine
 10
100.738659
 20
271.773304
 30
0.0
 11
100.738659
 21
234.528702
 31
0.0
  0
LINE
  5
197
100
AcDbEntity
  8
Layer_1
 62
1
100
AcDbLine
 10
98.740847
 20
233.134041
 30
0.0
 11
98.740847
 21
252.068458
 31
0.0
  0
LINE
  5
198
100
AcDbEntity
  8
Layer_1
 62
1
100
AcDbLine
 10
98.740847
 20
254.233491
 30
0.0
 11
98.740847
 21
273.167925
 31
0.0
  0
LINE
  5
199
100
AcDbEntity
  8
Layer_1
 62
1
100
AcDbLine
 10
96.743045
 20
271.773304
 30
0.0
 11
96.743045
 21
234.528702
 31
0.0
  0
LINE
  5
19a
100
AcDbEntity
  8
Layer_1
 62
1
100
AcDbLine
 10
94.745244
 20
233.134041
 30
0.0
 11
94.745244
 21
252.068458
 31
0.0
  0
LINE
  5
19b
100
AcDbEntity
  8
Layer_1
 62
1
100
AcDbLine
 10
94.745244
 20
254.233491
 30
0.0
 11
94.745244
 21
273.167925
 31
0.0
  0
LINE
  5
19c
100
AcDbEntity
  8
Layer_1
 62
1
100
AcDbLine
 10
92.747432
 20
271.773304
 30
0.0
 11
92.747432
 21
234.528702
 31
0.0
  0
LINE
  5
19d
100
AcDbEntity
  8
Layer_1
 62
1
100
AcDbLine
 10
90.749630
 20
233.134041
 30
0.0
 11
90.749630
 21
252.068538
 31
0.0
  0
LINE
  5
19e
100
AcDbEntity
  8
Layer_1
 62
1
100
AcDbLine
 10
90.749630
 20
254.233491
 30
0.0
 11
90.749630
 21
273.167925
 31
0.0
  0
LINE
  5
19f
100
AcDbEntity
  8
Layer_1
 62
1
100
AcDbLine
 10
88.751829
 20
271.773304
 30
0.0
 11
88.751829
 21
234.528702
 31
0.0
  0
LINE
  5
1a0
100
AcDbEntity
  8
Layer_1
 62
1
100
AcDbLine
 10
118.718904
 20
233.134041
 30
0.0
 11
118.718904
 21
252.068538
 31
0.0
  0
LINE
  5
1a1
100
AcDbEntity
  8
Layer_1
 62
1
100
AcDbLine
 10
118.718904
 20
254.233491
 30
0.0
 11
118.718904
 21
273.167925
 31
0.0
  0
LINE
  5
1a2
100
AcDbEntity
  8
Layer_1
 62
1
100
AcDbLine
 10
116.721092
 20
271.773304
 30
0.0
 11
116.721092
 21
234.528702
 31
0.0
  0
LINE
  5
1a3
100
AcDbEntity
  8
Layer_1
 62
1
100
AcDbLine
 10
114.723280
 20
233.134041
 30
0.0
 11
114.723280
 21
252.068458
 31
0.0
  0
LINE
  5
1a4
100
AcDbEntity
  8
Layer_1
 62
1
100
AcDbLine
 10
114.723280
 20
254.233491
 30
0.0
 11
114.723280
 21
273.167925
 31
0.0
  0
LINE
  5
1a5
100
AcDbEntity
  8
Layer_1
 62
1
100
AcDbLine
 10
112.725489
 20
271.773304
 30
0.0
 11
112.725489
 21
234.528702
 31
0.0
  0
LINE
  5
1a6
100
AcDbEntity
  8
Layer_1
 62
1
100
AcDbLine
 10
110.727677
 20
233.134041
 30
0.0
 11
110.727677
 21
252.068458
 31
0.0
  0
LINE
  5
1a7
100
AcDbEntity
  8
Layer_1
 62
1
100
AcDbLine
 10
110.727677
 20
254.233491
 30
0.0
 11
110.727677
 21
273.167925
 31
0.0
  0
LINE
  5
1a8
100
AcDbEntity
  8
Layer_1
 62
1
100
AcDbLine
 10
108.729865
 20
271.773304
 30
0.0
 11
108.729865
 21
234.528702
 31
0.0
  0
LINE
  5
1a9
100
AcDbEntity
  8
Layer_1
 62
1
100
AcDbLine
 10
106.732074
 20
233.134041
 30
0.0
 11
106.732074
 21
252.068538
 31
0.0
  0
LINE
  5
1aa
100
AcDbEntity
  8
Layer_1
 62
1
100
AcDbLine
 10
106.732074
 20
254.233491
 30
0.0
 11
106.732074
 21
273.167925
 31
0.0
  0
LINE
  5
1ab
100
AcDbEntity
  8
Layer_1
 62
1
100
AcDbLine
 10
104.734262
 20
271.773304
 30
0.0
 11
104.734262
 21
234.528702
 31
0.0
  0
LINE
  5
1ac
100
AcDbEntity
  8
Layer_1
 62
1
100
AcDbLine
 10
134.701336
 20
233.134041
 30
0.0
 11
134.701336
 21
252.068538
 31
0.0
  0
LINE
  5
1ad
100
AcDbEntity
  8
Layer_1
 62
1
100
AcDbLine
 10
134.701336
 20
254.233491
 30
0.0
 11
134.701336
 21
273.167925
 31
0.0
  0
LINE
  5
1ae
100
AcDbEntity
  8
Layer_1
 62
1
100
AcDbLine
 10
132.703524
 20
271.773304
 30
0.0
 11
132.703524
 21
234.528702
 31
0.0
  0
LINE
  5
1af
100
AcDbEntity
  8
Layer_1
 62
1
100
AcDbLine
 10
130.705723
 20
233.134041
 30
0.0
 11
130.705723
 21
252.068458
 31
0.0
  0
LINE
  5
1b0
100
AcDbEntity
  8
Layer_1
 62
1
100
AcDbLine
 10
130.705723
 20
254.233491
 30
0.0
 11
130.705723
 21
273.167925
 31
0.0
  0
LINE
  5
1b1
100
AcDbEntity
  8
Layer_1
 62
1
100
AcDbLine
 10
128.707921
 20
271.773304
 30
0.0
 11
128.707921
 21
234.528702
 31
0.0
  0
LINE
  5
1b2
100
AcDbEntity
  8
Layer_1
 62
1
100
AcDbLine
 10
126.710109
 20
233.134041
 30
0.0
 11
126.710109
 21
252.068458
 31
0.0
  0
LINE
  5
1b3
100
AcDbEntity
  8
Layer_1
 62
1
100
AcDbLine
 10
126.710109
 20
254.233491
 30
0.0
 11
126.710109
 21
273.167925
 31
0.0
  0
LINE
  5
1b4
100
AcDbEntity
  8
Layer_1
 62
1
100
AcDbLine
 10
124.712308
 20
271.773304
 30
0.0
 11
124.712308
 21
234.528702
 31
0.0
  0
LINE
  5
1b5
100
AcDbEntity
  8
Layer_1
 62
1
100
AcDbLine
 10
122.714507
 20
233.134041
 30
0.0
 11
122.714507
 21
252.068538
 31
0.0
  0
LINE
  5
1b6
100
AcDbEntity
  8
Layer_1
 62
1
100
AcDbLine
 10
122.714507
 20
254.233491
 30
0.0
 11
122.714507
 21
273.167925
 31
0.0
  0
LINE
  5
1b7
100
AcDbEntity
  8
Layer_1
 62
1
100
AcDbLine
 10
120.716694
 20
271.773304
 30
0.0
 11
120.716694
 21
234.528702
 31
0.0
  0
LINE
  5
1b8
100
AcDbEntity
  8
Layer_1
 62
1
100
AcDbLine
 10
150.683769
 20
233.134041
 30
0.0
 11
150.683769
 21
252.068538
 31
0.0
  0
LINE
  5
1b9
100
AcDbEntity
  8
Layer_1
 62
1
100
AcDbLine
 10
150.683769
 20
254.233491
 30
0.0
 11
150.683769
 21
273.167925
 31
0.0
  0
LINE
  5
1ba
100
AcDbEntity
  8
Layer_1
 62
1
100
AcDbLine
 10
148.685968
 20
271.773304
 30
0.0
 11
148.685968
 21
234.528702
 31
0.0
  0
LINE
  5
1bb
100
AcDbEntity
  8
Layer_1
 62
1
100
AcDbLine
 10
146.688156
 20
233.134041
 30
0.0
 11
146.688156
 21
252.068458
 31
0.0
  0
LINE
  5
1bc
100
AcDbEntity
  8
Layer_1
 62
1
100
AcDbLine
 10
146.688156
 20
254.233491
 30
0.0
 11
146.688156
 21
273.167925
 31
0.0
  0
LINE
  5
1bd
100
AcDbEntity
  8
Layer_1
 62
1
100
AcDbLine
 10
144.690354
 20
271.773304
 30
0.0
 11
144.690354
 21
234.528702
 31
0.0
  0
LINE
  5
1be
100
AcDbEntity
  8
Layer_1
 62
1
100
AcDbLine
 10
142.692553
 20
233.134041
 30
0.0
 11
142.692553
 21
252.068458
 31
0.0
  0
LINE
  5
1bf
100
AcDbEntity
  8
Layer_1
 62
1
100
AcDbLine
 10
142.692553
 20
254.233491
 30
0.0
 11
142.692553
 21
273.167925
 31
0.0
  0
LINE
  5
1c0
100
AcDbEntity
  8
Layer_1
 62
1
100
AcDbLine
 10
140.694751
 20
271.773304
 30
0.0
 11
140.694751
 21
234.528702
 31
0.0
  0
LINE
  5
1c1
100
AcDbEntity
  8
Layer_1
 62
1
100
AcDbLine
 10
138.696939
 20
233.134041
 30
0.0
 11
138.696939
 21
252.068538
 31
0.0
  0
LINE
  5
1c2
100
AcDbEntity
  8
Layer_1
 62
1
100
AcDbLine
 10
138.696939
 20
254.233491
 30
0.0
 11
138.696939
 21
273.167925
 31
0.0
  0
LINE
  5
1c3
100
AcDbEntity
  8
Layer_1
 62
1
100
AcDbLine
 10
136.699138
 20
271.773304
 30
0.0
 11
136.699138
 21
234.528702
 31
0.0
  0
LINE
  5
1c4
100
AcDbEntity
  8
Layer_1
 62
1
100
AcDbLine
 10
166.666213
 20
233.134041
 30
0.0
 11
166.666213
 21
252.068538
 31
0.0
  0
LINE
  5
1c5
100
AcDbEntity
  8
Layer_1
 62
1
100
AcDbLine
 10
166.666213
 20
254.233491
 30
0.0
 11
166.666213
 21
273.167925
 31
0.0
  0
LINE
  5
1c6
100
AcDbEntity
  8
Layer_1
 62
1
100
AcDbLine
 10
164.668401
 20
271.773304
 30
0.0
 11
164.668401
 21
234.528702
 31
0.0
  0
LINE
  5
1c7
100
AcDbEntity
  8
Layer_1
 62
1
100
AcDbLine
 10
162.670589
 20
233.134041
 30
0.0
 11
162.670589
 21
252.068458
 31
0.0
  0
LINE
  5
1c8
100
AcDbEntity
  8
Layer_1
 62
1
100
AcDbLine
 10
162.670589
 20
254.233491
 30
0.0
 11
162.670589
 21
273.167925
 31
0.0
  0
LINE
  5
1c9
100
AcDbEntity
  8
Layer_1
 62
1
100
AcDbLine
 10
160.672798
 20
271.773304
 30
0.0
 11
160.672798
 21
234.528702
 31
0.0
  0
LINE
  5
1ca
100
AcDbEntity
  8
Layer_1
 62
1
100
AcDbLine
 10
158.674986
 20
233.134041
 30
0.0
 11
158.674986
 21
252.068458
 31
0.0
  0
LINE
  5
1cb
100
AcDbEntity
  8
Layer_1
 62
1
100
AcDbLine
 10
158.674986
 20
254.233491
 30
0.0
 11
158.674986
 21
273.167925
 31
0.0
  0
LINE
  5
1cc
100
AcDbEntity
  8
Layer_1
 62
1
100
AcDbLine
 10
156.677184
 20
271.773304
 30
0.0
 11
156.677184
 21
234.528702
 31
0.0
  0
LINE
  5
1cd
100
AcDbEntity
  8
Layer_1
 62
1
100
AcDbLine
 10
154.679383
 20
233.134041
 30
0.0
 11
154.679383
 21
252.068538
 31
0.0
  0
LINE
  5
1ce
100
AcDbEntity
  8
Layer_1
 62
1
100
AcDbLine
 10
154.679383
 20
254.233491
 30
0.0
 11
154.679383
 21
273.167925
 31
0.0
  0
LINE
  5
1cf
100
AcDbEntity
  8
Layer_1
 62
1
100
AcDbLine
 10
152.681571
 20
271.773304
 30
0.0
 11
152.681571
 21
234.528702
 31
0.0
  0
LINE
  5
1d0
100
AcDbEntity
  8
Layer_1
 62
1
100
AcDbLine
 10
182.648646
 20
233.134041
 30
0.0
 11
182.648646
 21
252.068538
 31
0.0
  0
LINE
  5
1d1
100
AcDbEntity
  8
Layer_1
 62
1
100
AcDbLine
 10
182.648646
 20
254.233491
 30
0.0
 11
182.648646
 21
273.167925
 31
0.0
  0
LINE
  5
1d2
100
AcDbEntity
  8
Layer_1
 62
1
100
AcDbLine
 10
180.650834
 20
271.773304
 30
0.0
 11
180.650834
 21
234.528702
 31
0.0
  0
LINE
  5
1d3
100
AcDbEntity
  8
Layer_1
 62
1
100
AcDbLine
 10
178.653043
 20
233.134041
 30
0.0
 11
178.653043
 21
252.068458
 31
0.0
  0
LINE
  5
1d4
100
AcDbEntity
  8
Layer_1
 62
1
100
AcDbLine
 10
178.653043
 20
254.233491
 30
0.0
 11
178.653043
 21
273.167925
 31
0.0
  0
LINE
  5
1d5
100
AcDbEntity
  8
Layer_1
 62
1
100
AcDbLine
 10
176.655231
 20
271.773304
 30
0.0
 11
176.655231
 21
234.528702
 31
0.0
  0
LINE
  5
1d6
100
AcDbEntity
  8
Layer_1
 62
1
100
AcDbLine
 10
174.657419
 20
233.134041
 30
0.0
 11
174.657419
 21
252.068458
 31
0.0
  0
LINE
  5
1d7
100
AcDbEntity
  8
Layer_1
 62
1
100
AcDbLine
 10
174.657419
 20
254.233491
 30
0.0
 11
174.657419
 21
273.167925
 31
0.0
  0
LINE
  5
1d8
100
AcDbEntity
  8
Layer_1
 62
1
100
AcDbLine
 10
172.659628
 20
271.773304
 30
0.0
 11
172.659628
 21
234.528702
 31
0.0
  0
LINE
  5
1d9
100
AcDbEntity
  8
Layer_1
 62
1
100
AcDbLine
 10
170.661816
 20
233.134041
 30
0.0
 11
170.661816
 21
252.068538
 31
0.0
  0
LINE
  5
1da
100
AcDbEntity
  8
Layer_1
 62
1
100
AcDbLine
 10
170.661816
 20
254.233491
 30
0.0
 11
170.661816
 21
273.167925
 31
0.0
  0
LINE
  5
1db
100
AcDbEntity
  8
Layer_1
 62
1
100
AcDbLine
 10
168.664004
 20
271.773304
 30
0.0
 11
168.664004
 21
234.528702
 31
0.0
  0
LINE
  5
1dc
100
AcDbEntity
  8
Layer_1
 62
1
100
AcDbLine
 10
198.631079
 20
233.134041
 30
0.0
 11
198.631079
 21
252.068538
 31
0.0
  0
LINE
  5
1dd
100
AcDbEntity
  8
Layer_1
 62
1
100
AcDbLine
 10
198.631079
 20
254.233491
 30
0.0
 11
198.631079
 21
273.167925
 31
0.0
  0
LINE
  5
1de
100
AcDbEntity
  8
Layer_1
 62
1
100
AcDbLine
 10
196.633277
 20
271.773304
 30
0.0
 11
196.633277
 21
234.528702
 31
0.0
  0
LINE
  5
1df
100
AcDbEntity
  8
Layer_1
 62
1
100
AcDbLine
 10
194.635476
 20
233.134041
 30
0.0
 11
194.635476
 21
252.068458
 31
0.0
  0
LINE
  5
1e0
100
AcDbEntity
  8
Layer_1
 62
1
100
AcDbLine
 10
194.635476
 20
254.233491
 30
0.0
 11
194.635476
 21
273.167925
 31
0.0
  0
LINE
  5
1e1
100
AcDbEntity
  8
Layer_1
 62
1
100
AcDbLine
 10
192.637664
 20
271.773304
 30
0.0
 11
192.637664
 21
234.528702
 31
0.0
  0
LINE
  5
1e2
100
AcDbEntity
  8
Layer_1
 62
1
100
AcDbLine
 10
190.639862
 20
233.134041
 30
0.0
 11
190.639862
 21
252.068458
 31
0.0
  0
LINE
  5
1e3
100
AcDbEntity
  8
Layer_1
 62
1
100
AcDbLine
 10
190.639862
 20
254.233491
 30
0.0
 11
190.639862
 21
273.167925
 31
0.0
  0
LINE
  5
1e4
100
AcDbEntity
  8
Layer_1
 62
1
100
AcDbLine
 10
188.642061
 20
271.773304
 30
0.0
 11
188.642061
 21
234.528702
 31
0.0
  0
LINE
  5
1e5
100
AcDbEntity
  8
Layer_1
 62
1
100
AcDbLine
 10
186.644249
 20
233.134041
 30
0.0
 11
186.644249
 21
252.068538
 31
0.0
  0
LINE
  5
1e6
100
AcDbEntity
  8
Layer_1
 62
1
100
AcDbLine
 10
186.644249
 20
254.233491
 30
0.0
 11
186.644249
 21
273.167925
 31
0.0
  0
LINE
  5
1e7
100
AcDbEntity
  8
Layer_1
 62
1
100
AcDbLine
 10
184.646447
 20
271.773304
 30
0.0
 11
184.646447
 21
234.528702
 31
0.0
  0
LINE
  5
1e8
100
AcDbEntity
  8
Layer_1
 62
1
100
AcDbLine
 10
8.288979
 20
273.122105
 30
0.0
 11
201.179788
 21
273.122105
 31
0.0
  0
LINE
  5
1e9
100
AcDbEntity
  8
Layer_1
 62
1
100
AcDbLine
 10
201.179788
 20
273.122105
 30
0.0
 11
201.179788
 21
233.019667
 31
0.0
  0
LINE
  5
1ea
100
AcDbEntity
  8
Layer_1
 62
1
100
AcDbLine
 10
201.179788
 20
233.019667
 30
0.0
 11
8.288979
 21
233.019667
 31
0.0
  0
LINE
  5
1eb
100
AcDbEntity
  8
Layer_1
 62
1
100
AcDbLine
 10
8.288979
 20
233.019667
 30
0.0
 11
8.288979
 21
273.122105
 31
0.0
  0
LINE
  5
1ec
100
AcDbEntity
  8
Layer_1
 62
1
100
AcDbLine
 10
201.294241
 20
273.122105
 30
0.0
 11
394.185057
 21
273.122105
 31
0.0
  0
LINE
  5
1ed
100
AcDbEntity
  8
Layer_1
 62
1
100
AcDbLine
 10
394.185057
 20
273.122105
 30
0.0
 11
394.185057
 21
233.019667
 31
0.0
  0
LINE
  5
1ee
100
AcDbEntity
  8
Layer_1
 62
1
100
AcDbLine
 10
394.185057
 20
233.019667
 30
0.0
 11
201.294241
 21
233.019667
 31
0.0
  0
LINE
  5
1ef
100
AcDbEntity
  8
Layer_1
 62
1
100
AcDbLine
 10
215.829326
 20
233.053944
 30
0.0
 11
215.829326
 21
251.988441
 31
0.0
  0
LINE
  5
1f0
100
AcDbEntity
  8
Layer_1
 62
1
100
AcDbLine
 10
215.829326
 20
254.153394
 30
0.0
 11
215.829326
 21
273.087828
 31
0.0
  0
LINE
  5
1f1
100
AcDbEntity
  8
Layer_1
 62
1
100
AcDbLine
 10
213.831524
 20
271.693207
 30
0.0
 11
213.831524
 21
234.448605
 31
0.0
  0
LINE
  5
1f2
100
AcDbEntity
  8
Layer_1
 62
1
100
AcDbLine
 10
211.833733
 20
233.053944
 30
0.0
 11
211.833733
 21
251.988361
 31
0.0
  0
LINE
  5
1f3
100
AcDbEntity
  8
Layer_1
 62
1
100
AcDbLine
 10
211.833733
 20
254.153394
 30
0.0
 11
211.833733
 21
273.087828
 31
0.0
  0
LINE
  5
1f4
100
AcDbEntity
  8
Layer_1
 62
1
100
AcDbLine
 10
209.835942
 20
271.693207
 30
0.0
 11
209.835942
 21
234.448605
 31
0.0
  0
LINE
  5
1f5
100
AcDbEntity
  8
Layer_1
 62
1
100
AcDbLine
 10
207.838142
 20
233.053944
 30
0.0
 11
207.838142
 21
251.988361
 31
0.0
  0
LINE
  5
1f6
100
AcDbEntity
  8
Layer_1
 62
1
100
AcDbLine
 10
207.838142
 20
254.153394
 30
0.0
 11
207.838142
 21
273.087828
 31
0.0
  0
LINE
  5
1f7
100
AcDbEntity
  8
Layer_1
 62
1
100
AcDbLine
 10
205.840346
 20
271.693207
 30
0.0
 11
205.840346
 21
234.448605
 31
0.0
  0
LINE
  5
1f8
100
AcDbEntity
  8
Layer_1
 62
1
100
AcDbLine
 10
203.842551
 20
233.053944
 30
0.0
 11
203.842551
 21
251.988441
 31
0.0
  0
LINE
  5
1f9
100
AcDbEntity
  8
Layer_1
 62
1
100
AcDbLine
 10
203.842551
 20
254.153394
 30
0.0
 11
203.842551
 21
273.087828
 31
0.0
  0
LINE
  5
1fa
100
AcDbEntity
  8
Layer_1
 62
1
100
AcDbLine
 10
231.811685
 20
233.053944
 30
0.0
 11
231.811685
 21
251.988441
 31
0.0
  0
LINE
  5
1fb
100
AcDbEntity
  8
Layer_1
 62
1
100
AcDbLine
 10
231.811685
 20
254.153394
 30
0.0
 11
231.811685
 21
273.087828
 31
0.0
  0
LINE
  5
1fc
100
AcDbEntity
  8
Layer_1
 62
1
100
AcDbLine
 10
229.813894
 20
271.693207
 30
0.0
 11
229.813894
 21
234.448605
 31
0.0
  0
LINE
  5
1fd
100
AcDbEntity
  8
Layer_1
 62
1
100
AcDbLine
 10
227.816103
 20
233.053944
 30
0.0
 11
227.816103
 21
251.988361
 31
0.0
  0
LINE
  5
1fe
100
AcDbEntity
  8
Layer_1
 62
1
100
AcDbLine
 10
227.816103
 20
254.153394
 30
0.0
 11
227.816103
 21
273.087828
 31
0.0
  0
LINE
  5
1ff
100
AcDbEntity
  8
Layer_1
 62
1
100
AcDbLine
 10
225.818302
 20
271.693207
 30
0.0
 11
225.818302
 21
234.448605
 31
0.0
  0
LINE
  5
200
100
AcDbEntity
  8
Layer_1
 62
1
100
AcDbLine
 10
223.820511
 20
233.053944
 30
0.0
 11
223.820511
 21
251.988361
 31
0.0
  0
LINE
  5
201
100
AcDbEntity
  8
Layer_1
 62
1
100
AcDbLine
 10
223.820511
 20
254.153394
 30
0.0
 11
223.820511
 21
273.087828
 31
0.0
  0
LINE
  5
202
100
AcDbEntity
  8
Layer_1
 62
1
100
AcDbLine
 10
221.822709
 20
271.693207
 30
0.0
 11
221.822709
 21
234.448605
 31
0.0
  0
LINE
  5
203
100
AcDbEntity
  8
Layer_1
 62
1
100
AcDbLine
 10
219.824908
 20
233.053944
 30
0.0
 11
219.824908
 21
251.988441
 31
0.0
  0
LINE
  5
204
100
AcDbEntity
  8
Layer_1
 62
1
100
AcDbLine
 10
219.824908
 20
254.153394
 30
0.0
 11
219.824908
 21
273.087828
 31
0.0
  0
LINE
  5
205
100
AcDbEntity
  8
Layer_1
 62
1
100
AcDbLine
 10
217.827127
 20
271.693207
 30
0.0
 11
217.827127
 21
234.448605
 31
0.0
  0
LINE
  5
206
100
AcDbEntity
  8
Layer_1
 62
1
100
AcDbLine
 10
247.794055
 20
233.053944
 30
0.0
 11
247.794055
 21
251.988441
 31
0.0
  0
LINE
  5
207
100
AcDbEntity
  8
Layer_1
 62
1
100
AcDbLine
 10
247.794055
 20
254.153394
 30
0.0
 11
247.794055
 21
273.087828
 31
0.0
  0
LINE
  5
208
100
AcDbEntity
  8
Layer_1
 62
1
100
AcDbLine
 10
245.796264
 20
271.693207
 30
0.0
 11
245.796264
 21
234.448605
 31
0.0
  0
LINE
  5
209
100
AcDbEntity
  8
Layer_1
 62
1
100
AcDbLine
 10
243.798462
 20
233.053944
 30
0.0
 11
243.798462
 21
251.988361
 31
0.0
  0
LINE
  5
20a
100
AcDbEntity
  8
Layer_1
 62
1
100
AcDbLine
 10
243.798462
 20
254.153394
 30
0.0
 11
243.798462
 21
273.087828
 31
0.0
  0
LINE
  5
20b
100
AcDbEntity
  8
Layer_1
 62
1
100
AcDbLine
 10
241.800661
 20
271.693207
 30
0.0
 11
241.800661
 21
234.448605
 31
0.0
  0
LINE
  5
20c
100
AcDbEntity
  8
Layer_1
 62
1
100
AcDbLine
 10
239.802870
 20
233.053944
 30
0.0
 11
239.802870
 21
251.988361
 31
0.0
  0
LINE
  5
20d
100
AcDbEntity
  8
Layer_1
 62
1
100
AcDbLine
 10
239.802870
 20
254.153394
 30
0.0
 11
239.802870
 21
273.087828
 31
0.0
  0
LINE
  5
20e
100
AcDbEntity
  8
Layer_1
 62
1
100
AcDbLine
 10
237.805079
 20
271.693207
 30
0.0
 11
237.805079
 21
234.448605
 31
0.0
  0
LINE
  5
20f
100
AcDbEntity
  8
Layer_1
 62
1
100
AcDbLine
 10
235.807277
 20
233.053944
 30
0.0
 11
235.807277
 21
251.988441
 31
0.0
  0
LINE
  5
210
100
AcDbEntity
  8
Layer_1
 62
1
100
AcDbLine
 10
235.807277
 20
254.153394
 30
0.0
 11
235.807277
 21
273.087828
 31
0.0
  0
LINE
  5
211
100
AcDbEntity
  8
Layer_1
 62
1
100
AcDbLine
 10
233.809486
 20
271.693207
 30
0.0
 11
233.809486
 21
234.448605
 31
0.0
  0
LINE
  5
212
100
AcDbEntity
  8
Layer_1
 62
1
100
AcDbLine
 10
263.776445
 20
233.053944
 30
0.0
 11
263.776445
 21
251.988441
 31
0.0
  0
LINE
  5
213
100
AcDbEntity
  8
Layer_1
 62
1
100
AcDbLine
 10
263.776445
 20
254.153394
 30
0.0
 11
263.776445
 21
273.087828
 31
0.0
  0
LINE
  5
214
100
AcDbEntity
  8
Layer_1
 62
1
100
AcDbLine
 10
261.778644
 20
271.693207
 30
0.0
 11
261.778644
 21
234.448605
 31
0.0
  0
LINE
  5
215
100
AcDbEntity
  8
Layer_1
 62
1
100
AcDbLine
 10
259.780832
 20
233.053944
 30
0.0
 11
259.780832
 21
251.988361
 31
0.0
  0
LINE
  5
216
100
AcDbEntity
  8
Layer_1
 62
1
100
AcDbLine
 10
259.780832
 20
254.153394
 30
0.0
 11
259.780832
 21
273.087828
 31
0.0
  0
LINE
  5
217
100
AcDbEntity
  8
Layer_1
 62
1
100
AcDbLine
 10
257.783030
 20
271.693207
 30
0.0
 11
257.783030
 21
234.448605
 31
0.0
  0
LINE
  5
218
100
AcDbEntity
  8
Layer_1
 62
1
100
AcDbLine
 10
255.785240
 20
233.053944
 30
0.0
 11
255.785240
 21
251.988361
 31
0.0
  0
LINE
  5
219
100
AcDbEntity
  8
Layer_1
 62
1
100
AcDbLine
 10
255.785240
 20
254.153394
 30
0.0
 11
255.785240
 21
273.087828
 31
0.0
  0
LINE
  5
21a
100
AcDbEntity
  8
Layer_1
 62
1
100
AcDbLine
 10
253.787438
 20
271.693207
 30
0.0
 11
253.787438
 21
234.448605
 31
0.0
  0
LINE
  5
21b
100
AcDbEntity
  8
Layer_1
 62
1
100
AcDbLine
 10
251.789647
 20
233.053944
 30
0.0
 11
251.789647
 21
251.988441
 31
0.0
  0
LINE
  5
21c
100
AcDbEntity
  8
Layer_1
 62
1
100
AcDbLine
 10
251.789647
 20
254.153394
 30
0.0
 11
251.789647
 21
273.087828
 31
0.0
  0
LINE
  5
21d
100
AcDbEntity
  8
Layer_1
 62
1
100
AcDbLine
 10
249.791846
 20
271.693207
 30
0.0
 11
249.791846
 21
234.448605
 31
0.0
  0
LINE
  5
21e
100
AcDbEntity
  8
Layer_1
 62
1
100
AcDbLine
 10
279.758878
 20
233.053944
 30
0.0
 11
279.758878
 21
251.988441
 31
0.0
  0
LINE
  5
21f
100
AcDbEntity
  8
Layer_1
 62
1
100
AcDbLine
 10
279.758878
 20
254.153394
 30
0.0
 11
279.758878
 21
273.087828
 31
0.0
  0
LINE
  5
220
100
AcDbEntity
  8
Layer_1
 62
1
100
AcDbLine
 10
277.761077
 20
271.693207
 30
0.0
 11
277.761077
 21
234.448605
 31
0.0
  0
LINE
  5
221
100
AcDbEntity
  8
Layer_1
 62
1
100
AcDbLine
 10
275.763275
 20
233.053944
 30
0.0
 11
275.763275
 21
251.988361
 31
0.0
  0
LINE
  5
222
100
AcDbEntity
  8
Layer_1
 62
1
100
AcDbLine
 10
275.763275
 20
254.153394
 30
0.0
 11
275.763275
 21
273.087828
 31
0.0
  0
LINE
  5
223
100
AcDbEntity
  8
Layer_1
 62
1
100
AcDbLine
 10
273.765474
 20
271.693207
 30
0.0
 11
273.765474
 21
234.448605
 31
0.0
  0
LINE
  5
224
100
AcDbEntity
  8
Layer_1
 62
1
100
AcDbLine
 10
271.767662
 20
233.053944
 30
0.0
 11
271.767662
 21
251.988361
 31
0.0
  0
LINE
  5
225
100
AcDbEntity
  8
Layer_1
 62
1
100
AcDbLine
 10
271.767662
 20
254.153394
 30
0.0
 11
271.767662
 21
273.087828
 31
0.0
  0
LINE
  5
226
100
AcDbEntity
  8
Layer_1
 62
1
100
AcDbLine
 10
269.769860
 20
271.693207
 30
0.0
 11
269.769860
 21
234.448605
 31
0.0
  0
LINE
  5
227
100
AcDbEntity
  8
Layer_1
 62
1
100
AcDbLine
 10
267.772059
 20
233.053944
 30
0.0
 11
267.772059
 21
251.988441
 31
0.0
  0
LINE
  5
228
100
AcDbEntity
  8
Layer_1
 62
1
100
AcDbLine
 10
267.772059
 20
254.153394
 30
0.0
 11
267.772059
 21
273.087828
 31
0.0
  0
LINE
  5
229
100
AcDbEntity
  8
Layer_1
 62
1
100
AcDbLine
 10
265.774247
 20
271.693207
 30
0.0
 11
265.774247
 21
234.448605
 31
0.0
  0
LINE
  5
22a
100
AcDbEntity
  8
Layer_1
 62
1
100
AcDbLine
 10
295.741311
 20
233.053944
 30
0.0
 11
295.741311
 21
251.988441
 31
0.0
  0
LINE
  5
22b
100
AcDbEntity
  8
Layer_1
 62
1
100
AcDbLine
 10
295.741311
 20
254.153394
 30
0.0
 11
295.741311
 21
273.087828
 31
0.0
  0
LINE
  5
22c
100
AcDbEntity
  8
Layer_1
 62
1
100
AcDbLine
 10
293.743520
 20
271.693207
 30
0.0
 11
293.743520
 21
234.448605
 31
0.0
  0
LINE
  5
22d
100
AcDbEntity
  8
Layer_1
 62
1
100
AcDbLine
 10
291.745708
 20
233.053944
 30
0.0
 11
291.745708
 21
251.988361
 31
0.0
  0
LINE
  5
22e
100
AcDbEntity
  8
Layer_1
 62
1
100
AcDbLine
 10
291.745708
 20
254.153394
 30
0.0
 11
291.745708
 21
273.087828
 31
0.0
  0
LINE
  5
22f
100
AcDbEntity
  8
Layer_1
 62
1
100
AcDbLine
 10
289.747907
 20
271.693207
 30
0.0
 11
289.747907
 21
234.448605
 31
0.0
  0
LINE
  5
230
100
AcDbEntity
  8
Layer_1
 62
1
100
AcDbLine
 10
287.750105
 20
233.053944
 30
0.0
 11
287.750105
 21
251.988361
 31
0.0
  0
LINE
  5
231
100
AcDbEntity
  8
Layer_1
 62
1
100
AcDbLine
 10
287.750105
 20
254.153394
 30
0.0
 11
287.750105
 21
273.087828
 31
0.0
  0
LINE
  5
232
100
AcDbEntity
  8
Layer_1
 62
1
100
AcDbLine
 10
285.752293
 20
271.693207
 30
0.0
 11
285.752293
 21
234.448605
 31
0.0
  0
LINE
  5
233
100
AcDbEntity
  8
Layer_1
 62
1
100
AcDbLine
 10
283.754492
 20
233.053944
 30
0.0
 11
283.754492
 21
251.988441
 31
0.0
  0
LINE
  5
234
100
AcDbEntity
  8
Layer_1
 62
1
100
AcDbLine
 10
283.754492
 20
254.153394
 30
0.0
 11
283.754492
 21
273.087828
 31
0.0
  0
LINE
  5
235
100
AcDbEntity
  8
Layer_1
 62
1
100
AcDbLine
 10
281.756690
 20
271.693207
 30
0.0
 11
281.756690
 21
234.448605
 31
0.0
  0
LINE
  5
236
100
AcDbEntity
  8
Layer_1
 62
1
100
AcDbLine
 10
311.723765
 20
233.053944
 30
0.0
 11
311.723765
 21
251.988441
 31
0.0
  0
LINE
  5
237
100
AcDbEntity
  8
Layer_1
 62
1
100
AcDbLine
 10
311.723765
 20
254.153394
 30
0.0
 11
311.723765
 21
273.087828
 31
0.0
  0
LINE
  5
238
100
AcDbEntity
  8
Layer_1
 62
1
100
AcDbLine
 10
309.725953
 20
271.693207
 30
0.0
 11
309.725953
 21
234.448605
 31
0.0
  0
LINE
  5
239
100
AcDbEntity
  8
Layer_1
 62
1
100
AcDbLine
 10
307.728141
 20
233.053944
 30
0.0
 11
307.728141
 21
251.988361
 31
0.0
  0
LINE
  5
23a
100
AcDbEntity
  8
Layer_1
 62
1
100
AcDbLine
 10
307.728141
 20
254.153394
 30
0.0
 11
307.728141
 21
273.087828
 31
0.0
  0
LINE
  5
23b
100
AcDbEntity
  8
Layer_1
 62
1
100
AcDbLine
 10
305.730350
 20
271.693207
 30
0.0
 11
305.730350
 21
234.448605
 31
0.0
  0
LINE
  5
23c
100
AcDbEntity
  8
Layer_1
 62
1
100
AcDbLine
 10
303.732538
 20
233.053944
 30
0.0
 11
303.732538
 21
251.988361
 31
0.0
  0
LINE
  5
23d
100
AcDbEntity
  8
Layer_1
 62
1
100
AcDbLine
 10
303.732538
 20
254.153394
 30
0.0
 11
303.732538
 21
273.087828
 31
0.0
  0
LINE
  5
23e
100
AcDbEntity
  8
Layer_1
 62
1
100
AcDbLine
 10
301.734726
 20
271.693207
 30
0.0
 11
301.734726
 21
234.448605
 31
0.0
  0
LINE
  5
23f
100
AcDbEntity
  8
Layer_1
 62
1
100
AcDbLine
 10
299.736935
 20
233.053944
 30
0.0
 11
299.736935
 21
251.988441
 31
0.0
  0
LINE
  5
240
100
AcDbEntity
  8
Layer_1
 62
1
100
AcDbLine
 10
299.736935
 20
254.153394
 30
0.0
 11
299.736935
 21
273.087828
 31
0.0
  0
LINE
  5
241
100
AcDbEntity
  8
Layer_1
 62
1
100
AcDbLine
 10
297.739123
 20
271.693207
 30
0.0
 11
297.739123
 21
234.448605
 31
0.0
  0
LINE
  5
242
100
AcDbEntity
  8
Layer_1
 62
1
100
AcDbLine
 10
327.706198
 20
233.053944
 30
0.0
 11
327.706198
 21
251.988441
 31
0.0
  0
LINE
  5
243
100
AcDbEntity
  8
Layer_1
 62
1
100
AcDbLine
 10
327.706198
 20
254.153394
 30
0.0
 11
327.706198
 21
273.087828
 31
0.0
  0
LINE
  5
244
100
AcDbEntity
  8
Layer_1
 62
1
100
AcDbLine
 10
325.708386
 20
271.693207
 30
0.0
 11
325.708386
 21
234.448605
 31
0.0
  0
LINE
  5
245
100
AcDbEntity
  8
Layer_1
 62
1
100
AcDbLine
 10
323.710585
 20
233.053944
 30
0.0
 11
323.710585
 21
251.988361
 31
0.0
  0
LINE
  5
246
100
AcDbEntity
  8
Layer_1
 62
1
100
AcDbLine
 10
323.710585
 20
254.153394
 30
0.0
 11
323.710585
 21
273.087828
 31
0.0
  0
LINE
  5
247
100
AcDbEntity
  8
Layer_1
 62
1
100
AcDbLine
 10
321.712783
 20
271.693207
 30
0.0
 11
321.712783
 21
234.448605
 31
0.0
  0
LINE
  5
248
100
AcDbEntity
  8
Layer_1
 62
1
100
AcDbLine
 10
319.714971
 20
233.053944
 30
0.0
 11
319.714971
 21
251.988361
 31
0.0
  0
LINE
  5
249
100
AcDbEntity
  8
Layer_1
 62
1
100
AcDbLine
 10
319.714971
 20
254.153394
 30
0.0
 11
319.714971
 21
273.087828
 31
0.0
  0
LINE
  5
24a
100
AcDbEntity
  8
Layer_1
 62
1
100
AcDbLine
 10
317.717170
 20
271.693207
 30
0.0
 11
317.717170
 21
234.448605
 31
0.0
  0
LINE
  5
24b
100
AcDbEntity
  8
Layer_1
 62
1
100
AcDbLine
 10
315.719368
 20
233.053944
 30
0.0
 11
315.719368
 21
251.988441
 31
0.0
  0
LINE
  5
24c
100
AcDbEntity
  8
Layer_1
 62
1
100
AcDbLine
 10
315.719368
 20
254.153394
 30
0.0
 11
315.719368
 21
273.087828
 31
0.0
  0
LINE
  5
24d
100
AcDbEntity
  8
Layer_1
 62
1
100
AcDbLine
 10
313.721556
 20
271.693207
 30
0.0
 11
313.721556
 21
234.448605
 31
0.0
  0
LINE
  5
24e
100
AcDbEntity
  8
Layer_1
 62
1
100
AcDbLine
 10
343.688631
 20
233.053944
 30
0.0
 11
343.688631
 21
251.988441
 31
0.0
  0
LINE
  5
24f
100
AcDbEntity
  8
Layer_1
 62
1
100
AcDbLine
 10
343.688631
 20
254.153394
 30
0.0
 11
343.688631
 21
273.087828
 31
0.0
  0
LINE
  5
250
100
AcDbEntity
  8
Layer_1
 62
1
100
AcDbLine
 10
341.690830
 20
271.693207
 30
0.0
 11
341.690830
 21
234.448605
 31
0.0
  0
LINE
  5
251
100
AcDbEntity
  8
Layer_1
 62
1
100
AcDbLine
 10
339.693018
 20
233.053944
 30
0.0
 11
339.693018
 21
251.988361
 31
0.0
  0
LINE
  5
252
100
AcDbEntity
  8
Layer_1
 62
1
100
AcDbLine
 10
339.693018
 20
254.153394
 30
0.0
 11
339.693018
 21
273.087828
 31
0.0
  0
LINE
  5
253
100
AcDbEntity
  8
Layer_1
 62
1
100
AcDbLine
 10
337.695216
 20
271.693207
 30
0.0
 11
337.695216
 21
234.448605
 31
0.0
  0
LINE
  5
254
100
AcDbEntity
  8
Layer_1
 62
1
100
AcDbLine
 10
335.697415
 20
233.053944
 30
0.0
 11
335.697415
 21
251.988361
 31
0.0
  0
LINE
  5
255
100
AcDbEntity
  8
Layer_1
 62
1
100
AcDbLine
 10
335.697415
 20
254.153394
 30
0.0
 11
335.697415
 21
273.087828
 31
0.0
  0
LINE
  5
256
100
AcDbEntity
  8
Layer_1
 62
1
100
AcDbLine
 10
333.699613
 20
271.693207
 30
0.0
 11
333.699613
 21
234.448605
 31
0.0
  0
LINE
  5
257
100
AcDbEntity
  8
Layer_1
 62
1
100
AcDbLine
 10
331.701801
 20
233.053944
 30
0.0
 11
331.701801
 21
251.988441
 31
0.0
  0
LINE
  5
258
100
AcDbEntity
  8
Layer_1
 62
1
100
AcDbLine
 10
331.701801
 20
254.153394
 30
0.0
 11
331.701801
 21
273.087828
 31
0.0
  0
LINE
  5
259
100
AcDbEntity
  8
Layer_1
 62
1
100
AcDbLine
 10
329.704000
 20
271.693207
 30
0.0
 11
329.704000
 21
234.448605
 31
0.0
  0
LINE
  5
25a
100
AcDbEntity
  8
Layer_1
 62
1
100
AcDbLine
 10
359.671074
 20
233.053944
 30
0.0
 11
359.671074
 21
251.988441
 31
0.0
  0
LINE
  5
25b
100
AcDbEntity
  8
Layer_1
 62
1
100
AcDbLine
 10
359.671074
 20
254.153394
 30
0.0
 11
359.671074
 21
273.087828
 31
0.0
  0
LINE
  5
25c
100
AcDbEntity
  8
Layer_1
 62
1
100
AcDbLine
 10
357.673262
 20
271.693207
 30
0.0
 11
357.673262
 21
234.448605
 31
0.0
  0
LINE
  5
25d
100
AcDbEntity
  8
Layer_1
 62
1
100
AcDbLine
 10
355.675450
 20
233.053944
 30
0.0
 11
355.675450
 21
251.988361
 31
0.0
  0
LINE
  5
25e
100
AcDbEntity
  8
Layer_1
 62
1
100
AcDbLine
 10
355.675450
 20
254.153394
 30
0.0
 11
355.675450
 21
273.087828
 31
0.0
  0
LINE
  5
25f
100
AcDbEntity
  8
Layer_1
 62
1
100
AcDbLine
 10
353.677660
 20
271.693207
 30
0.0
 11
353.677660
 21
234.448605
 31
0.0
  0
LINE
  5
260
100
AcDbEntity
  8
Layer_1
 62
1
100
AcDbLine
 10
351.679848
 20
233.053944
 30
0.0
 11
351.679848
 21
251.988361
 31
0.0
  0
LINE
  5
261
100
AcDbEntity
  8
Layer_1
 62
1
100
AcDbLine
 10
351.679848
 20
254.153394
 30
0.0
 11
351.679848
 21
273.087828
 31
0.0
  0
LINE
  5
262
100
AcDbEntity
  8
Layer_1
 62
1
100
AcDbLine
 10
349.682046
 20
271.693207
 30
0.0
 11
349.682046
 21
234.448605
 31
0.0
  0
LINE
  5
263
100
AcDbEntity
  8
Layer_1
 62
1
100
AcDbLine
 10
347.684245
 20
233.053944
 30
0.0
 11
347.684245
 21
251.988441
 31
0.0
  0
LINE
  5
264
100
AcDbEntity
  8
Layer_1
 62
1
100
AcDbLine
 10
347.684245
 20
254.153394
 30
0.0
 11
347.684245
 21
273.087828
 31
0.0
  0
LINE
  5
265
100
AcDbEntity
  8
Layer_1
 62
1
100
AcDbLine
 10
345.686433
 20
271.693207
 30
0.0
 11
345.686433
 21
234.448605
 31
0.0
  0
LINE
  5
266
100
AcDbEntity
  8
Layer_1
 62
1
100
AcDbLine
 10
375.653507
 20
233.053944
 30
0.0
 11
375.653507
 21
251.988441
 31
0.0
  0
LINE
  5
267
100
AcDbEntity
  8
Layer_1
 62
1
100
AcDbLine
 10
375.653507
 20
254.153394
 30
0.0
 11
375.653507
 21
273.087828
 31
0.0
  0
LINE
  5
268
100
AcDbEntity
  8
Layer_1
 62
1
100
AcDbLine
 10
373.655695
 20
271.693207
 30
0.0
 11
373.655695
 21
234.448605
 31
0.0
  0
LINE
  5
269
100
AcDbEntity
  8
Layer_1
 62
1
100
AcDbLine
 10
371.657904
 20
233.053944
 30
0.0
 11
371.657904
 21
251.988361
 31
0.0
  0
LINE
  5
26a
100
AcDbEntity
  8
Layer_1
 62
1
100
AcDbLine
 10
371.657904
 20
254.153394
 30
0.0
 11
371.657904
 21
273.087828
 31
0.0
  0
LINE
  5
26b
100
AcDbEntity
  8
Layer_1
 62
1
100
AcDbLine
 10
369.660092
 20
271.693207
 30
0.0
 11
369.660092
 21
234.448605
 31
0.0
  0
LINE
  5
26c
100
AcDbEntity
  8
Layer_1
 62
1
100
AcDbLine
 10
367.662280
 20
233.053944
 30
0.0
 11
367.662280
 21
251.988361
 31
0.0
  0
LINE
  5
26d
100
AcDbEntity
  8
Layer_1
 62
1
100
AcDbLine
 10
367.662280
 20
254.153394
 30
0.0
 11
367.662280
 21
273.087828
 31
0.0
  0
LINE
  5
26e
100
AcDbEntity
  8
Layer_1
 62
1
100
AcDbLine
 10
365.664489
 20
271.693207
 30
0.0
 11
365.664489
 21
234.448605
 31
0.0
  0
LINE
  5
26f
100
AcDbEntity
  8
Layer_1
 62
1
100
AcDbLine
 10
363.666677
 20
233.053944
 30
0.0
 11
363.666677
 21
251.988441
 31
0.0
  0
LINE
  5
270
100
AcDbEntity
  8
Layer_1
 62
1
100
AcDbLine
 10
363.666677
 20
254.153394
 30
0.0
 11
363.666677
 21
273.087828
 31
0.0
  0
LINE
  5
271
100
AcDbEntity
  8
Layer_1
 62
1
100
AcDbLine
 10
361.668865
 20
271.693207
 30
0.0
 11
361.668865
 21
234.448605
 31
0.0
  0
LINE
  5
272
100
AcDbEntity
  8
Layer_1
 62
1
100
AcDbLine
 10
391.635940
 20
233.053944
 30
0.0
 11
391.635940
 21
251.988441
 31
0.0
  0
LINE
  5
273
100
AcDbEntity
  8
Layer_1
 62
1
100
AcDbLine
 10
391.635940
 20
254.153394
 30
0.0
 11
391.635940
 21
273.087828
 31
0.0
  0
LINE
  5
274
100
AcDbEntity
  8
Layer_1
 62
1
100
AcDbLine
 10
389.638139
 20
271.693207
 30
0.0
 11
389.638139
 21
234.448605
 31
0.0
  0
LINE
  5
275
100
AcDbEntity
  8
Layer_1
 62
1
100
AcDbLine
 10
387.640337
 20
233.053944
 30
0.0
 11
387.640337
 21
251.988361
 31
0.0
  0
LINE
  5
276
100
AcDbEntity
  8
Layer_1
 62
1
100
AcDbLine
 10
387.640337
 20
254.153394
 30
0.0
 11
387.640337
 21
273.087828
 31
0.0
  0
LINE
  5
277
100
AcDbEntity
  8
Layer_1
 62
1
100
AcDbLine
 10
385.642525
 20
271.693207
 30
0.0
 11
385.642525
 21
234.448605
 31
0.0
  0
LINE
  5
278
100
AcDbEntity
  8
Layer_1
 62
1
100
AcDbLine
 10
383.644724
 20
233.053944
 30
0.0
 11
383.644724
 21
251.988361
 31
0.0
  0
LINE
  5
279
100
AcDbEntity
  8
Layer_1
 62
1
100
AcDbLine
 10
383.644724
 20
254.153394
 30
0.0
 11
383.644724
 21
273.087828
 31
0.0
  0
LINE
  5
27a
100
AcDbEntity
  8
Layer_1
 62
1
100
AcDbLine
 10
381.646922
 20
271.693207
 30
0.0
 11
381.646922
 21
234.448605
 31
0.0
  0
LINE
  5
27b
100
AcDbEntity
  8
Layer_1
 62
1
100
AcDbLine
 10
379.649110
 20
233.053944
 30
0.0
 11
379.649110
 21
251.988441
 31
0.0
  0
LINE
  5
27c
100
AcDbEntity
  8
Layer_1
 62
1
100
AcDbLine
 10
379.649110
 20
254.153394
 30
0.0
 11
379.649110
 21
273.087828
 31
0.0
  0
LINE
  5
27d
100
AcDbEntity
  8
Layer_1
 62
1
100
AcDbLine
 10
377.651309
 20
271.693207
 30
0.0
 11
377.651309
 21
234.448605
 31
0.0
  0
SPLINE
  5
27e
100
AcDbEntity
  8
Layer_1
 62
5
100
AcDbSpline
 70
8
 71
3
 72
8
 73
4
 74
0
 40
0
 40
0
 40
0
 40
0
 40
1
 40
1
 40
1
 40
1
 10
102.028480
 20
43.719477
 30
0.0
 10
107.714140
 20
44.047087
 30
0.0
 10
112.423660
 20
46.333817
 30
0.0
 10
116.376140
 20
49.184317
 30
0.0
  0
SPLINE
  5
27f
100
AcDbEntity
  8
Layer_1
 62
5
100
AcDbSpline
 70
8
 71
3
 72
8
 73
4
 74
0
 40
0
 40
0
 40
0
 40
0
 40
1
 40
1
 40
1
 40
1
 10
116.376140
 20
49.184317
 30
0.0
 10
124.281090
 20
54.885317
 30
0.0
 10
128.512860
 20
63.135487
 30
0.0
 10
128.512860
 20
63.135487
 30
0.0
  0
LINE
  5
280
100
AcDbEntity
  8
Layer_1
 62
5
100
AcDbLine
 10
128.512860
 20
63.135487
 30
0.0
 11
130.891760
 21
67.846427
 31
0.0
  0
LINE
  5
281
100
AcDbEntity
  8
Layer_1
 62
5
100
AcDbLine
 10
130.891760
 20
67.846427
 30
0.0
 11
133.721840
 21
63.391347
 31
0.0
  0
SPLINE
  5
282
100
AcDbEntity
  8
Layer_1
 62
5
100
AcDbSpline
 70
8
 71
3
 72
8
 73
4
 74
0
 40
0
 40
0
 40
0
 40
0
 40
1
 40
1
 40
1
 40
1
 10
133.721840
 20
63.391347
 30
0.0
 10
133.721840
 20
63.391347
 30
0.0
 10
138.701010
 20
55.639047
 30
0.0
 10
146.801920
 20
50.125727
 30
0.0
  0
SPLINE
  5
283
100
AcDbEntity
  8
Layer_1
 62
5
100
AcDbSpline
 70
8
 71
3
 72
8
 73
4
 74
0
 40
0
 40
0
 40
0
 40
0
 40
1
 40
1
 40
1
 40
1
 10
146.801920
 20
50.125727
 30
0.0
 10
154.902830
 20
44.612397
 30
0.0
 10
165.343920
 20
41.231007
 30
0.0
 10
178.319500
 20
49.740957
 30
0.0
  0
SPLINE
  5
284
100
AcDbEntity
  8
Layer_1
 62
5
100
AcDbSpline
 70
8
 71
3
 72
8
 73
4
 74
0
 40
0
 40
0
 40
0
 40
0
 40
1
 40
1
 40
1
 40
1
 10
178.319500
 20
49.740957
 30
0.0
 10
188.039810
 20
56.115957
 30
0.0
 10
192.362930
 20
64.722337
 30
0.0
 10
192.778480
 20
73.631587
 30
0.0
  0
SPLINE
  5
285
100
AcDbEntity
  8
Layer_1
 62
5
100
AcDbSpline
 70
8
 71
3
 72
8
 73
4
 74
0
 40
0
 40
0
 40
0
 40
0
 40
1
 40
1
 40
1
 40
1
 10
192.778480
 20
73.631587
 30
0.0
 10
193.194030
 20
82.540827
 30
0.0
 10
189.540230
 20
91.814047
 30
0.0
 10
182.657390
 20
98.983147
 30
0.0
  0
SPLINE
  5
286
100
AcDbEntity
  8
Layer_1
 62
5
100
AcDbSpline
 70
8
 71
3
 72
8
 73
4
 74
0
 40
0
 40
0
 40
0
 40
0
 40
1
 40
1
 40
1
 40
1
 10
182.657390
 20
98.983147
 30
0.0
 10
173.687120
 20
108.326477
 30
0.0
 10
162.600720
 20
116.734577
 30
0.0
 10
152.532390
 20
125.100337
 30
0.0
  0
SPLINE
  5
287
100
AcDbEntity
  8
Layer_1
 62
5
100
AcDbSpline
 70
8
 71
3
 72
8
 73
4
 74
0
 40
0
 40
0
 40
0
 40
0
 40
1
 40
1
 40
1
 40
1
 10
152.532390
 20
125.100337
 30
0.0
 10
143.458130
 20
132.640107
 30
0.0
 10
135.329200
 20
140.175767
 30
0.0
 10
130.235510
 20
148.686267
 30
0.0
  0
SPLINE
  5
288
100
AcDbEntity
  8
Layer_1
 62
5
100
AcDbSpline
 70
8
 71
3
 72
8
 73
4
 74
0
 40
0
 40
0
 40
0
 40
0
 40
1
 40
1
 40
1
 40
1
 10
130.235510
 20
148.686267
 30
0.0
 10
115.271120
 20
140.154097
 30
0.0
 10
87.701020
 20
119.779967
 30
0.0
 10
75.215980
 20
99.256587
 30
0.0
  0
SPLINE
  5
289
100
AcDbEntity
  8
Layer_1
 62
5
100
AcDbSpline
 70
8
 71
3
 72
8
 73
4
 74
0
 40
0
 40
0
 40
0
 40
0
 40
1
 40
1
 40
1
 40
1
 10
75.215980
 20
99.256587
 30
0.0
 10
63.158760
 20
79.436467
 30
0.0
 10
69.484660
 20
57.819727
 30
0.0
 10
81.817540
 20
50.004627
 30
0.0
  0
SPLINE
  5
28a
100
AcDbEntity
  8
Layer_1
 62
5
100
AcDbSpline
 70
8
 71
3
 72
8
 73
4
 74
0
 40
0
 40
0
 40
0
 40
0
 40
1
 40
1
 40
1
 40
1
 10
81.817540
 20
50.004627
 30
0.0
 10
89.679860
 20
45.022437
 30
0.0
 10
96.342820
 20
43.391857
 30
0.0
 10
102.028480
 20
43.719477
 30
0.0
  0
LINE
  5
28b
100
AcDbEntity
  8
Layer_1
 62
5
100
AcDbLine
 10
102.028480
 20
43.719477
 30
0.0
 11
102.028480
 21
43.719477
 31
0.0
  0
SPLINE
  5
28c
100
AcDbEntity
  8
Layer_1
 62
1
100
AcDbSpline
 70
8
 71
3
 72
8
 73
4
 74
0
 40
0
 40
0
 40
0
 40
0
 40
1
 40
1
 40
1
 40
1
 10
131.189884
 20
61.782267
 30
0.0
 10
131.189884
 20
61.782267
 30
0.0
 10
152.062644
 20
28.932368
 30
0.0
 10
179.964324
 20
47.231568
 30
0.0
  0
SPLINE
  5
28d
100
AcDbEntity
  8
Layer_1
 62
1
100
AcDbSpline
 70
8
 71
3
 72
8
 73
4
 74
0
 40
0
 40
0
 40
0
 40
0
 40
1
 40
1
 40
1
 40
1
 10
179.964324
 20
47.231568
 30
0.0
 10
200.833364
 20
60.918367
 30
0.0
 10
199.639304
 20
85.626567
 30
0.0
 10
184.821594
 20
101.060567
 30
0.0
  0
SPLINE
  5
28e
100
AcDbEntity
  8
Layer_1
 62
1
100
AcDbSpline
 70
8
 71
3
 72
8
 73
4
 74
0
 40
0
 40
0
 40
0
 40
0
 40
1
 40
1
 40
1
 40
1
 10
184.821594
 20
101.060567
 30
0.0
 10
166.421634
 20
120.225737
 30
0.0
 10
140.108354
 20
134.908887
 30
0.0
 10
131.189874
 20
152.803446
 30
0.0
  0
SPLINE
  5
28f
100
AcDbEntity
  8
Layer_1
 62
1
100
AcDbSpline
 70
8
 71
3
 72
8
 73
4
 74
0
 40
0
 40
0
 40
0
 40
0
 40
1
 40
1
 40
1
 40
1
 10
131.189874
 20
152.803446
 30
0.0
 10
116.366064
 20
144.834067
 30
0.0
 10
86.299154
 20
123.249107
 30
0.0
 10
72.652034
 20
100.815467
 30
0.0
  0
SPLINE
  5
290
100
AcDbEntity
  8
Layer_1
 62
1
100
AcDbSpline
 70
8
 71
3
 72
8
 73
4
 74
0
 40
0
 40
0
 40
0
 40
0
 40
1
 40
1
 40
1
 40
1
 10
72.652034
 20
100.815467
 30
0.0
 10
59.851684
 20
79.773767
 30
0.0
 10
66.209274
 20
56.344167
 30
0.0
 10
80.212174
 20
47.470768
 30
0.0
  0
SPLINE
  5
291
100
AcDbEntity
  8
Layer_1
 62
1
100
AcDbSpline
 70
8
 71
3
 72
8
 73
4
 74
0
 40
0
 40
0
 40
0
 40
0
 40
1
 40
1
 40
1
 40
1
 10
80.212174
 20
47.470768
 30
0.0
 10
113.356704
 20
26.467768
 30
0.0
 10
131.189884
 20
61.782267
 30
0.0
 10
131.189884
 20
61.782267
 30
0.0
  0
LINE
  5
292
100
AcDbEntity
  8
Layer_1
 62
1
100
AcDbLine
 10
131.189884
 20
61.782267
 30
0.0
 11
131.189884
 21
61.782267
 31
0.0
  0
SPLINE
  5
293
100
AcDbEntity
  8
Layer_1
 62
1
100
AcDbSpline
 70
8
 71
3
 72
8
 73
4
 74
0
 40
0
 40
0
 40
0
 40
0
 40
1
 40
1
 40
1
 40
1
 10
102.597928
 20
31.267431
 30
0.0
 10
94.107958
 20
30.811681
 30
0.0
 10
84.558478
 20
32.877341
 30
0.0
 10
74.859648
 20
39.023291
 30
0.0
  0
SPLINE
  5
294
100
AcDbEntity
  8
Layer_1
 62
1
100
AcDbSpline
 70
8
 71
3
 72
8
 73
4
 74
0
 40
0
 40
0
 40
0
 40
0
 40
1
 40
1
 40
1
 40
1
 10
74.859648
 20
39.023291
 30
0.0
 10
55.290048
 20
51.424211
 30
0.0
 10
48.832188
 20
80.899851
 30
0.0
 10
64.109648
 20
106.013521
 30
0.0
  0
SPLINE
  5
295
100
AcDbEntity
  8
Layer_1
 62
1
100
AcDbSpline
 70
8
 71
3
 72
8
 73
4
 74
0
 40
0
 40
0
 40
0
 40
0
 40
1
 40
1
 40
1
 40
1
 10
64.109648
 20
106.013521
 30
0.0
 10
79.665958
 20
131.585560
 30
0.0
 10
109.965748
 20
152.746260
 30
0.0
 10
126.455358
 20
161.611180
 30
0.0
  0
LINE
  5
296
100
AcDbEntity
  8
Layer_1
 62
1
100
AcDbLine
 10
126.455358
 20
161.611180
 30
0.0
 11
135.539338
 21
166.495940
 31
0.0
  0
LINE
  5
297
100
AcDbEntity
  8
Layer_1
 62
1
100
AcDbLine
 10
135.539338
 20
166.495940
 30
0.0
 11
140.138948
 21
157.263520
 31
0.0
  0
SPLINE
  5
298
100
AcDbEntity
  8
Layer_1
 62
1
100
AcDbSpline
 70
8
 71
3
 72
8
 73
4
 74
0
 40
0
 40
0
 40
0
 40
0
 40
1
 40
1
 40
1
 40
1
 10
140.138948
 20
157.263520
 30
0.0
 10
143.333898
 20
150.852990
 30
0.0
 10
151.097708
 20
143.194400
 30
0.0
 10
160.840118
 20
135.099460
 30
0.0
  0
SPLINE
  5
299
100
AcDbEntity
  8
Layer_1
 62
1
100
AcDbSpline
 70
8
 71
3
 72
8
 73
4
 74
0
 40
0
 40
0
 40
0
 40
0
 40
1
 40
1
 40
1
 40
1
 10
160.840118
 20
135.099460
 30
0.0
 10
170.582528
 20
127.004520
 30
0.0
 10
182.069728
 20
118.366331
 30
0.0
 10
192.035428
 20
107.986181
 30
0.0
  0
SPLINE
  5
29a
100
AcDbEntity
  8
Layer_1
 62
1
100
AcDbSpline
 70
8
 71
3
 72
8
 73
4
 74
0
 40
0
 40
0
 40
0
 40
0
 40
1
 40
1
 40
1
 40
1
 10
192.035428
 20
107.986181
 30
0.0
 10
201.197668
 20
98.442871
 30
0.0
 10
206.363008
 20
85.868711
 30
0.0
 10
205.763948
 20
73.025241
 30
0.0
  0
SPLINE
  5
29b
100
AcDbEntity
  8
Layer_1
 62
1
100
AcDbSpline
 70
8
 71
3
 72
8
 73
4
 74
0
 40
0
 40
0
 40
0
 40
0
 40
1
 40
1
 40
1
 40
1
 10
205.763948
 20
73.025241
 30
0.0
 10
205.164908
 20
60.182221
 30
0.0
 10
198.263858
 20
47.273781
 30
0.0
 10
185.449498
 20
38.868991
 30
0.0
  0
LINE
  5
29c
100
AcDbEntity
  8
Layer_1
 62
1
100
AcDbLine
 10
185.449498
 20
38.868991
 30
0.0
 11
185.447498
 21
38.868991
 31
0.0
  0
SPLINE
  5
29d
100
AcDbEntity
  8
Layer_1
 62
1
100
AcDbSpline
 70
8
 71
3
 72
8
 73
4
 74
0
 40
0
 40
0
 40
0
 40
0
 40
1
 40
1
 40
1
 40
1
 10
185.447498
 20
38.868991
 30
0.0
 10
168.246218
 20
27.588551
 30
0.0
 10
150.210748
 20
32.079451
 30
0.0
 10
139.488518
 20
39.376801
 30
0.0
  0
SPLINE
  5
29e
100
AcDbEntity
  8
Layer_1
 62
1
100
AcDbSpline
 70
8
 71
3
 72
8
 73
4
 74
0
 40
0
 40
0
 40
0
 40
0
 40
1
 40
1
 40
1
 40
1
 10
139.488518
 20
39.376801
 30
0.0
 10
136.526288
 20
41.392841
 30
0.0
 10
134.013258
 20
43.566631
 30
0.0
 10
131.797108
 20
45.699071
 30
0.0
  0
SPLINE
  5
29f
100
AcDbEntity
  8
Layer_1
 62
1
100
AcDbSpline
 70
8
 71
3
 72
8
 73
4
 74
0
 40
0
 40
0
 40
0
 40
0
 40
1
 40
1
 40
1
 40
1
 10
131.797108
 20
45.699071
 30
0.0
 10
129.604018
 20
43.308631
 30
0.0
 10
127.082258
 20
40.878711
 30
0.0
 10
123.978748
 20
38.640481
 30
0.0
  0
SPLINE
  5
2a0
100
AcDbEntity
  8
Layer_1
 62
1
100
AcDbSpline
 70
8
 71
3
 72
8
 73
4
 74
0
 40
0
 40
0
 40
0
 40
0
 40
1
 40
1
 40
1
 40
1
 10
123.978748
 20
38.640481
 30
0.0
 10
118.517388
 20
34.701771
 30
0.0
 10
111.087858
 20
31.723181
 30
0.0
 10
102.597888
 20
31.267431
 30
0.0
  0
LINE
  5
2a1
100
AcDbEntity
  8
Layer_1
 62
1
100
AcDbLine
 10
102.597888
 20
31.267431
 30
0.0
 11
102.597928
 21
31.267431
 31
0.0
  0
LINE
  5
2a2
100
AcDbEntity
  8
Layer_1
 62
1
100
AcDbLine
 10
387.346254
 20
25.952031
 30
0.0
 11
387.346254
 21
12.712059
 31
0.0
  0
LINE
  5
2a3
100
AcDbEntity
  8
Layer_1
 62
1
100
AcDbLine
 10
393.966242
 20
19.332047
 30
0.0
 11
375.554608
 21
19.332047
 31
0.0
  0
LINE
  5
2a4
100
AcDbEntity
  8
Layer_1
 62
1
100
AcDbLine
 10
392.027290
 20
24.013081
 30
0.0
 11
382.665216
 21
14.651007
 31
0.0
  0
LINE
  5
2a5
100
AcDbEntity
  8
Layer_1
 62
1
100
AcDbLine
 10
392.027293
 20
14.651007
 30
0.0
 11
382.665216
 21
24.013084
 31
0.0
  0
LINE
  5
2a6
100
AcDbEntity
  8
Layer_1
 62
1
100
AcDbLine
 10
385.618614
 20
23.502949
 30
0.0
 11
389.073902
 21
15.161144
 31
0.0
  0
LINE
  5
2a7
100
AcDbEntity
  8
Layer_1
 62
1
100
AcDbLine
 10
391.517161
 20
21.059693
 30
0.0
 11
383.175354
 21
17.604403
 31
0.0
  0
LINE
  5
2a8
100
AcDbEntity
  8
Layer_1
 62
1
100
AcDbLine
 10
389.073898
 20
23.502947
 30
0.0
 11
385.618609
 21
15.161142
 31
0.0
  0
LINE
  5
2a9
100
AcDbEntity
  8
Layer_1
 62
1
100
AcDbLine
 10
391.517158
 20
17.604401
 30
0.0
 11
383.175350
 21
21.059691
 31
0.0
  0
LINE
  5
2aa
100
AcDbEntity
  8
Layer_1
 62
7
100
AcDbLine
 10
367.032143
 20
20.366365
 30
0.0
 11
375.377931
 21
20.366365
 31
0.0
  0
LINE
  5
2ab
100
AcDbEntity
  8
Layer_1
 62
7
100
AcDbLine
 10
375.377931
 20
20.366365
 30
0.0
 11
375.377931
 21
18.297754
 31
0.0
  0
LINE
  5
2ac
100
AcDbEntity
  8
Layer_1
 62
7
100
AcDbLine
 10
375.377931
 20
18.297754
 30
0.0
 11
367.032143
 21
18.297754
 31
0.0
  0
LINE
  5
2ad
100
AcDbEntity
  8
Layer_1
 62
7
100
AcDbLine
 10
367.032143
 20
18.297754
 30
0.0
 11
367.032143
 21
20.366365
 31
0.0
  0
SPLINE
  5
2ae
100
AcDbEntity
  8
Layer_1
 62
7
100
AcDbSpline
 70
8
 71
3
 72
8
 73
4
 74
0
 40
0
 40
0
 40
0
 40
0
 40
1
 40
1
 40
1
 40
1
 10
366.724583
 20
7.765753
 30
0.0
 10
366.684919
 20
7.944304
 30
0.0
 10
366.612455
 20
8.346095
 30
0.0
 10
366.563551
 20
8.658621
 30
0.0
  0
SPLINE
  5
2af
100
AcDbEntity
  8
Layer_1
 62
7
100
AcDbSpline
 70
8
 71
3
 72
8
 73
4
 74
0
 40
0
 40
0
 40
0
 40
0
 40
1
 40
1
 40
1
 40
1
 10
366.563551
 20
8.658621
 30
0.0
 10
366.504069
 20
9.038730
 30
0.0
 10
366.346409
 20
9.347861
 30
0.0
 10
366.087325
 20
9.592365
 30
0.0
  0
LINE
  5
2b0
100
AcDbEntity
  8
Layer_1
 62
7
100
AcDbLine
 10
366.087325
 20
9.592365
 30
0.0
 11
365.700018
 21
9.957878
 31
0.0
  0
LINE
  5
2b1
100
AcDbEntity
  8
Layer_1
 62
7
100
AcDbLine
 10
365.700018
 20
9.957878
 30
0.0
 11
364.272223
 21
9.820975
 31
0.0
  0
SPLINE
  5
2b2
100
AcDbEntity
  8
Layer_1
 62
7
100
AcDbSpline
 70
8
 71
3
 72
8
 73
4
 74
0
 40
0
 40
0
 40
0
 40
0
 40
1
 40
1
 40
1
 40
1
 10
364.272223
 20
9.820975
 30
0.0
 10
363.486935
 20
9.745679
 30
0.0
 10
361.299148
 20
9.684074
 30
0.0
 10
359.410475
 20
9.684074
 30
0.0
  0
LINE
  5
2b3
100
AcDbEntity
  8
Layer_1
 62
7
100
AcDbLine
 10
359.410475
 20
9.684074
 30
0.0
 11
355.976523
 21
9.684074
 31
0.0
  0
LINE
  5
2b4
100
AcDbEntity
  8
Layer_1
 62
7
100
AcDbLine
 10
355.976523
 20
9.684074
 30
0.0
 11
355.289869
 21
9.064308
 31
0.0
  0
LINE
  5
2b5
100
AcDbEntity
  8
Layer_1
 62
7
100
AcDbLine
 10
355.289869
 20
9.064308
 30
0.0
 11
354.603212
 21
8.444544
 31
0.0
  0
LINE
  5
2b6
100
AcDbEntity
  8
Layer_1
 62
7
100
AcDbLine
 10
354.603212
 20
8.444544
 30
0.0
 11
354.143849
 21
8.868567
 31
0.0
  0
SPLINE
  5
2b7
100
AcDbEntity
  8
Layer_1
 62
7
100
AcDbSpline
 70
8
 71
3
 72
8
 73
4
 74
0
 40
0
 40
0
 40
0
 40
0
 40
1
 40
1
 40
1
 40
1
 10
354.143849
 20
8.868567
 30
0.0
 10
353.321002
 20
9.628114
 30
0.0
 10
352.646660
 20
9.962298
 30
0.0
 10
351.758684
 20
10.050584
 30
0.0
  0
SPLINE
  5
2b8
100
AcDbEntity
  8
Layer_1
 62
7
100
AcDbSpline
 70
8
 71
3
 72
8
 73
4
 74
0
 40
0
 40
0
 40
0
 40
0
 40
1
 40
1
 40
1
 40
1
 10
351.758684
 20
10.050584
 30
0.0
 10
350.993857
 20
10.126624
 30
0.0
 10
350.888951
 20
10.105770
 30
0.0
 10
350.150722
 20
9.730928
 30
0.0
  0
SPLINE
  5
2b9
100
AcDbEntity
  8
Layer_1
 62
7
100
AcDbSpline
 70
8
 71
3
 72
8
 73
4
 74
0
 40
0
 40
0
 40
0
 40
0
 40
1
 40
1
 40
1
 40
1
 10
350.150722
 20
9.730928
 30
0.0
 10
349.716358
 20
9.510374
 30
0.0
 10
349.282232
 20
9.329922
 30
0.0
 10
349.185997
 20
9.329922
 30
0.0
  0
SPLINE
  5
2ba
100
AcDbEntity
  8
Layer_1
 62
7
100
AcDbSpline
 70
8
 71
3
 72
8
 73
4
 74
0
 40
0
 40
0
 40
0
 40
0
 40
1
 40
1
 40
1
 40
1
 10
349.185997
 20
9.329922
 30
0.0
 10
348.904850
 20
9.329922
 30
0.0
 10
348.831149
 20
9.537699
 30
0.0
 10
349.021250
 20
9.794375
 30
0.0
  0
SPLINE
  5
2bb
100
AcDbEntity
  8
Layer_1
 62
7
100
AcDbSpline
 70
8
 71
3
 72
8
 73
4
 74
0
 40
0
 40
0
 40
0
 40
0
 40
1
 40
1
 40
1
 40
1
 10
349.021250
 20
9.794375
 30
0.0
 10
349.264375
 20
10.122645
 30
0.0
 10
349.039100
 20
10.285783
 30
0.0
 10
348.237453
 20
10.361974
 30
0.0
  0
LINE
  5
2bc
100
AcDbEntity
  8
Layer_1
 62
7
100
AcDbLine
 10
348.237453
 20
10.361974
 30
0.0
 11
347.596055
 21
10.422936
 31
0.0
  0
LINE
  5
2bd
100
AcDbEntity
  8
Layer_1
 62
7
100
AcDbLine
 10
347.596055
 20
10.422936
 30
0.0
 11
346.075577
 21
9.122411
 31
0.0
  0
SPLINE
  5
2be
100
AcDbEntity
  8
Layer_1
 62
7
100
AcDbSpline
 70
8
 71
3
 72
8
 73
4
 74
0
 40
0
 40
0
 40
0
 40
0
 40
1
 40
1
 40
1
 40
1
 10
346.075577
 20
9.122411
 30
0.0
 10
345.239315
 20
8.407125
 30
0.0
 10
344.423526
 20
7.762513
 30
0.0
 10
344.262711
 20
7.689941
 30
0.0
  0
SPLINE
  5
2bf
100
AcDbEntity
  8
Layer_1
 62
7
100
AcDbSpline
 70
8
 71
3
 72
8
 73
4
 74
0
 40
0
 40
0
 40
0
 40
0
 40
1
 40
1
 40
1
 40
1
 10
344.262711
 20
7.689941
 30
0.0
 10
344.007032
 20
7.574558
 30
0.0
 10
343.977140
 20
7.587844
 30
0.0
 10
344.024623
 20
7.795752
 30
0.0
  0
SPLINE
  5
2c0
100
AcDbEntity
  8
Layer_1
 62
7
100
AcDbSpline
 70
8
 71
3
 72
8
 73
4
 74
0
 40
0
 40
0
 40
0
 40
0
 40
1
 40
1
 40
1
 40
1
 10
344.024623
 20
7.795752
 30
0.0
 10
344.054490
 20
7.926518
 30
0.0
 10
344.303375
 20
8.340137
 30
0.0
 10
344.577701
 20
8.714901
 30
0.0
  0
SPLINE
  5
2c1
100
AcDbEntity
  8
Layer_1
 62
7
100
AcDbSpline
 70
8
 71
3
 72
8
 73
4
 74
0
 40
0
 40
0
 40
0
 40
0
 40
1
 40
1
 40
1
 40
1
 10
344.577701
 20
8.714901
 30
0.0
 10
345.408928
 20
9.850462
 30
0.0
 10
345.426614
 20
10.024401
 30
0.0
 10
344.849686
 20
11.389850
 30
0.0
  0
SPLINE
  5
2c2
100
AcDbEntity
  8
Layer_1
 62
7
100
AcDbSpline
 70
8
 71
3
 72
8
 73
4
 74
0
 40
0
 40
0
 40
0
 40
0
 40
1
 40
1
 40
1
 40
1
 10
344.849686
 20
11.389850
 30
0.0
 10
344.040225
 20
13.305648
 30
0.0
 10
343.519166
 20
14.668604
 30
0.0
 10
343.577435
 20
14.717737
 30
0.0
  0
SPLINE
  5
2c3
100
AcDbEntity
  8
Layer_1
 62
7
100
AcDbSpline
 70
8
 71
3
 72
8
 73
4
 74
0
 40
0
 40
0
 40
0
 40
0
 40
1
 40
1
 40
1
 40
1
 10
343.577435
 20
14.717737
 30
0.0
 10
343.607285
 20
14.742907
 30
0.0
 10
344.496534
 20
14.118618
 30
0.0
 10
345.553542
 20
13.330427
 30
0.0
  0
LINE
  5
2c4
100
AcDbEntity
  8
Layer_1
 62
7
100
AcDbLine
 10
345.553542
 20
13.330427
 30
0.0
 11
347.475377
 21
11.897354
 31
0.0
  0
LINE
  5
2c5
100
AcDbEntity
  8
Layer_1
 62
7
100
AcDbLine
 10
347.475377
 20
11.897354
 30
0.0
 11
348.120920
 21
11.971963
 31
0.0
  0
SPLINE
  5
2c6
100
AcDbEntity
  8
Layer_1
 62
7
100
AcDbSpline
 70
8
 71
3
 72
8
 73
4
 74
0
 40
0
 40
0
 40
0
 40
0
 40
1
 40
1
 40
1
 40
1
 10
348.120920
 20
11.971963
 30
0.0
 10
349.016585
 20
12.075481
 30
0.0
 10
349.754787
 20
12.400757
 30
0.0
 10
349.807902
 20
12.715302
 30
0.0
  0
SPLINE
  5
2c7
100
AcDbEntity
  8
Layer_1
 62
7
100
AcDbSpline
 70
8
 71
3
 72
8
 73
4
 74
0
 40
0
 40
0
 40
0
 40
0
 40
1
 40
1
 40
1
 40
1
 10
349.807902
 20
12.715302
 30
0.0
 10
349.886777
 20
13.182400
 30
0.0
 10
350.191104
 20
13.277882
 30
0.0
 10
350.720940
 20
13.001763
 30
0.0
  0
LINE
  5
2c8
100
AcDbEntity
  8
Layer_1
 62
7
100
AcDbLine
 10
350.720940
 20
13.001763
 30
0.0
 11
351.195291
 21
12.754561
 31
0.0
  0
LINE
  5
2c9
100
AcDbEntity
  8
Layer_1
 62
7
100
AcDbLine
 10
351.195291
 20
12.754561
 30
0.0
 11
354.959882
 21
14.115904
 31
0.0
  0
SPLINE
  5
2ca
100
AcDbEntity
  8
Layer_1
 62
7
100
AcDbSpline
 70
8
 71
3
 72
8
 73
4
 74
0
 40
0
 40
0
 40
0
 40
0
 40
1
 40
1
 40
1
 40
1
 10
354.959882
 20
14.115904
 30
0.0
 10
359.633884
 20
15.806105
 30
0.0
 10
359.494472
 20
15.704577
 30
0.0
 10
359.494472
 20
17.418246
 30
0.0
  0
LINE
  5
2cb
100
AcDbEntity
  8
Layer_1
 62
7
100
AcDbLine
 10
359.494472
 20
17.418246
 30
0.0
 11
359.494472
 21
18.655913
 31
0.0
  0
LINE
  5
2cc
100
AcDbEntity
  8
Layer_1
 62
7
100
AcDbLine
 10
359.494472
 20
18.655913
 30
0.0
 11
359.949471
 21
18.654920
 31
0.0
  0
SPLINE
  5
2cd
100
AcDbEntity
  8
Layer_1
 62
7
100
AcDbSpline
 70
8
 71
3
 72
8
 73
4
 74
0
 40
0
 40
0
 40
0
 40
0
 40
1
 40
1
 40
1
 40
1
 10
359.949471
 20
18.654920
 30
0.0
 10
360.517912
 20
18.653502
 30
0.0
 10
361.583846
 20
18.145092
 30
0.0
 10
362.543380
 20
17.417643
 30
0.0
  0
LINE
  5
2ce
100
AcDbEntity
  8
Layer_1
 62
7
100
AcDbLine
 10
362.543380
 20
17.417643
 30
0.0
 11
363.278045
 21
16.860674
 31
0.0
  0
LINE
  5
2cf
100
AcDbEntity
  8
Layer_1
 62
7
100
AcDbLine
 10
363.278045
 20
16.860674
 30
0.0
 11
364.991250
 21
17.015859
 31
0.0
  0
SPLINE
  5
2d0
100
AcDbEntity
  8
Layer_1
 62
7
100
AcDbSpline
 70
8
 71
3
 72
8
 73
4
 74
0
 40
0
 40
0
 40
0
 40
0
 40
1
 40
1
 40
1
 40
1
 10
364.991250
 20
17.015859
 30
0.0
 10
365.933512
 20
17.101209
 30
0.0
 10
368.279449
 20
17.171507
 30
0.0
 10
370.204444
 20
17.172075
 30
0.0
  0
SPLINE
  5
2d1
100
AcDbEntity
  8
Layer_1
 62
7
100
AcDbSpline
 70
8
 71
3
 72
8
 73
4
 74
0
 40
0
 40
0
 40
0
 40
0
 40
1
 40
1
 40
1
 40
1
 10
370.204444
 20
17.172075
 30
0.0
 10
377.557026
 20
17.174245
 30
0.0
 10
381.088855
 20
16.507147
 30
0.0
 10
380.696882
 20
15.190250
 30
0.0
  0
SPLINE
  5
2d2
100
AcDbEntity
  8
Layer_1
 62
7
100
AcDbSpline
 70
8
 71
3
 72
8
 73
4
 74
0
 40
0
 40
0
 40
0
 40
0
 40
1
 40
1
 40
1
 40
1
 10
380.696882
 20
15.190250
 30
0.0
 10
380.568156
 20
14.757776
 30
0.0
 10
379.490332
 20
13.964239
 30
0.0
 10
378.560867
 20
13.617630
 30
0.0
  0
SPLINE
  5
2d3
100
AcDbEntity
  8
Layer_1
 62
7
100
AcDbSpline
 70
8
 71
3
 72
8
 73
4
 74
0
 40
0
 40
0
 40
0
 40
0
 40
1
 40
1
 40
1
 40
1
 10
378.560867
 20
13.617630
 30
0.0
 10
378.124472
 20
13.454893
 30
0.0
 10
377.504176
 20
13.117139
 30
0.0
 10
377.182434
 20
12.867062
 30
0.0
  0
SPLINE
  5
2d4
100
AcDbEntity
  8
Layer_1
 62
7
100
AcDbSpline
 70
8
 71
3
 72
8
 73
4
 74
0
 40
0
 40
0
 40
0
 40
0
 40
1
 40
1
 40
1
 40
1
 10
377.182434
 20
12.867062
 30
0.0
 10
376.581128
 20
12.399695
 30
0.0
 10
375.215693
 20
11.977685
 30
0.0
 10
371.184441
 20
11.013285
 30
0.0
  0
SPLINE
  5
2d5
100
AcDbEntity
  8
Layer_1
 62
7
100
AcDbSpline
 70
8
 71
3
 72
8
 73
4
 74
0
 40
0
 40
0
 40
0
 40
0
 40
1
 40
1
 40
1
 40
1
 10
371.184441
 20
11.013285
 30
0.0
 10
369.632621
 20
10.642040
 30
0.0
 10
369.780445
 20
10.762912
 30
0.0
 10
368.928797
 20
9.168894
 30
0.0
  0
SPLINE
  5
2d6
100
AcDbEntity
  8
Layer_1
 62
7
100
AcDbSpline
 70
8
 71
3
 72
8
 73
4
 74
0
 40
0
 40
0
 40
0
 40
0
 40
1
 40
1
 40
1
 40
1
 10
368.928797
 20
9.168894
 30
0.0
 10
368.499767
 20
8.365886
 30
0.0
 10
367.515402
 20
7.441228
 30
0.0
 10
367.089573
 20
7.441228
 30
0.0
  0
SPLINE
  5
2d7
100
AcDbEntity
  8
Layer_1
 62
7
100
AcDbSpline
 70
8
 71
3
 72
8
 73
4
 74
0
 40
0
 40
0
 40
0
 40
0
 40
1
 40
1
 40
1
 40
1
 10
367.089573
 20
7.441228
 30
0.0
 10
366.880892
 20
7.441228
 30
0.0
 10
366.775969
 20
7.534551
 30
0.0
 10
366.724583
 20
7.765868
 30
0.0
  0
LINE
  5
2d8
100
AcDbEntity
  8
Layer_1
 62
7
100
AcDbLine
 10
366.724583
 20
7.765868
 30
0.0
 11
366.724583
 21
7.765753
 31
0.0
  0
ENDSEC
  0
SECTION
  2
OBJECTS
  0
DICTIONARY
  5
C
330
0
100
AcDbDictionary
  3
ACAD_GROUP
350
D
  3
ACAD_MLINESTYLE
350
17
  0
DICTIONARY
  5
D
330
C
100
AcDbDictionary
  0
DICTIONARY
  5
1A
330
C
100
AcDbDictionary
  0
DICTIONARY
  5
17
330
C
100
AcDbDictionary
  3
STANDARD
350
18
  0
DICTIONARY
  5
19
330
C
100
AcDbDictionary
  0
ENDSEC
  0
EOF
