<?xml version="1.0" encoding="UTF-8" standalone="no"?>
<svg width="1000px" height="595px" viewBox="0 0 1000 595" version="1.1" xmlns="http://www.w3.org/2000/svg" xmlns:xlink="http://www.w3.org/1999/xlink" xmlns:sketch="http://www.bohemiancoding.com/sketch/ns">
    <!-- Generator: Sketch 3.4 (15575) - http://www.bohemiancoding.com/sketch -->
    <title>A4</title>
    <desc>Created with Sketch.</desc>
    <defs></defs>
    <g id="Page-1" stroke="none" stroke-width="1" fill="none" fill-rule="evenodd" sketch:type="MSPage">
        <g id="A4" sketch:type="MSArtboardGroup" stroke="#000000" stroke-width="2">
            <g id="m1-f" sketch:type="MSLayerGroup" transform="translate(44.000000, 176.000000)">
                <path d="M69.4911685,180.009671 L69.4911685,188 L83.3573299,188 C83.3677184,188 83.3884883,180.991724 83.3884883,180.991724 C83.3884883,177.211912 84.6922197,173.737638 86.8719225,171 C86.8719225,171 93.5942438,170.820312 101.209939,167.927734 C108.825635,165.035156 117.756944,159.47998 120.528423,152.5 C123.299902,145.52002 123.995621,133.996875 123.995621,133.996875 C124.04652,133.446316 123.648168,133 123.089868,133 L121.90011,133 C121.973004,132.009383 122.010099,131.008724 122.010099,129.999333 L122.010099,104 L123.00462,104 C123.549722,104 123.995431,103.553614 123.995431,103.00297 L123.995431,96.9970301 C123.995431,96.4530363 123.55183,96 123.00462,96 L122.010099,96 L122.010099,50.0006665 C122.010099,47.9611786 121.858605,45.9573581 121.566336,44 L122.010134,44 C122.564245,44 123.002765,43.5536144 123.002765,43.0029699 L123.002765,36.9970301 C123.002765,36.4530363 122.558349,36 122.010134,36 L119.510175,36 C116.856557,28.8459055 112.228085,22.6624926 106.292976,18.1227377 C93.8594339,6.71434708 78.6268782,0 62.171126,0 C43.326843,0 26.086618,8.80496304 12.816872,23.380979 C9.71118964,27.0455459 7.12682175,31.3146363 5.38938841,36 L2.89017983,36 C2.33606912,36 1.89754929,36.4463856 1.89754929,36.9970301 L1.89754929,43.0029699 C1.89754929,43.5469637 2.34196512,44 2.89017983,44 L3.33383318,44 C3.04165471,45.9573735 2.89021499,47.9611955 2.89021499,50.0006665 L2.89021499,96 L1.89569398,96 C1.35059226,96 0.904883588,96.4463856 0.904883588,96.9970301 L0.904883588,103.00297 C0.904883588,103.546964 1.34848451,104 1.89569398,104 L2.89021499,104 L2.89021499,129.999333 C2.89021499,131.008729 2.92732367,132.009387 3.00024157,133 L0.910131981,133 C0.351832311,133 -0.0465201007,133.446316 0.00437917282,133.996875 C0.00437917282,133.996875 0.22876259,146.52002 3.00024148,153.5 C5.77172037,160.47998 15.1743648,165.035156 22.7900605,167.927734 C30.4057562,170.820312 37.1280775,171 37.1280775,171 C39.3077803,173.737638 40.6115117,177.211912 40.6115117,180.991724 C40.6115117,180.991724 40.6322816,188 40.6426701,188 L54.5088315,188 L54.5088315,180.009671 C54.5088315,175.330807 57.698361,171.401734 62,170.304884 C66.301639,171.401734 69.4911685,175.330807 69.4911685,180.009671 Z" id="Path-Copy" sketch:type="MSShapeGroup"></path>
            </g>
            <g id="m1-b" sketch:type="MSLayerGroup" transform="translate(183.000000, 176.000000)">
                <path d="M69.4911685,180.009671 L69.4911685,188 L83.3573299,188 C83.3677184,188 83.3884883,180.991724 83.3884883,180.991724 C83.3884883,177.211912 84.6922197,173.737638 86.8719225,171 C86.8719225,171 93.5942438,170.820312 101.209939,167.927734 C108.825635,165.035156 117.756944,159.47998 120.528423,152.5 C123.299902,145.52002 123.995621,133.996875 123.995621,133.996875 C124.04652,133.446316 123.648168,133 123.089868,133 L121.90011,133 C121.973004,132.009383 122.010099,131.008724 122.010099,129.999333 L122.010099,104 L123.00462,104 C123.549722,104 123.995431,103.553614 123.995431,103.00297 L123.995431,96.9970301 C123.995431,96.4530363 123.55183,96 123.00462,96 L122.010099,96 L122.010099,50.0006665 C122.010099,47.9611786 121.858605,45.9573581 121.566336,44 L122.010134,44 C122.564245,44 123.002765,43.5536144 123.002765,43.0029699 L123.002765,36.9970301 C123.002765,36.4530363 122.558349,36 122.010134,36 L119.510175,36 C116.856557,28.8459055 112.228085,22.6624926 106.292976,18.1227377 C93.8594339,6.71434708 78.6268782,0 62.171126,0 C43.326843,0 26.086618,8.80496304 12.816872,23.380979 C9.71118964,27.0455459 7.12682175,31.3146363 5.38938841,36 L2.89017983,36 C2.33606912,36 1.89754929,36.4463856 1.89754929,36.9970301 L1.89754929,43.0029699 C1.89754929,43.5469637 2.34196512,44 2.89017983,44 L3.33383318,44 C3.04165471,45.9573735 2.89021499,47.9611955 2.89021499,50.0006665 L2.89021499,96 L1.89569398,96 C1.35059226,96 0.904883588,96.4463856 0.904883588,96.9970301 L0.904883588,103.00297 C0.904883588,103.546964 1.34848451,104 1.89569398,104 L2.89021499,104 L2.89021499,129.999333 C2.89021499,131.008729 2.92732367,132.009387 3.00024157,133 L0.910131981,133 C0.351832311,133 -0.0465201007,133.446316 0.00437917282,133.996875 C0.00437917282,133.996875 0.22876259,146.52002 3.00024148,153.5 C5.77172037,160.47998 15.1743648,165.035156 22.7900605,167.927734 C30.4057562,170.820312 37.1280775,171 37.1280775,171 C39.3077803,173.737638 40.6115117,177.211912 40.6115117,180.991724 C40.6115117,180.991724 40.6322816,188 40.6426701,188 L54.5088315,188 L54.5088315,180.009671 C54.5088315,175.330807 57.698361,171.401734 62,170.304884 C66.301639,171.401734 69.4911685,175.330807 69.4911685,180.009671 Z" id="Path-Copy" sketch:type="MSShapeGroup"></path>
            </g>
            <g id="m1-foot" sketch:type="MSLayerGroup" transform="translate(322.000000, 176.000000)">
                <path d="M73,180.009674 L69.4911685,188 L83.3573299,188 C83.3677184,188 80.3359375,180.009674 80.3359375,180.009674 C80.3359375,176.229862 81.1776275,173.042524 83.3573303,170.304886 C83.3573303,170.304886 93.5942438,170.820312 101.209939,167.927734 C108.825635,165.035156 117.756944,159.47998 120.528423,152.5 C123.299902,145.52002 123.995621,133.996875 123.995621,133.996875 C124.04652,133.446316 123.648168,133 123.089868,133 L121.90011,133 C121.973004,132.009383 122.010099,131.008724 122.010099,129.999333 L122.010099,104 L123.00462,104 C123.549722,104 123.995431,103.553614 123.995431,103.00297 L123.995431,96.9970301 C123.995431,96.4530363 123.55183,96 123.00462,96 L122.010099,96 L122.010099,50.0006665 C122.010099,47.9611786 121.858605,45.9573581 121.566336,44 L122.010134,44 C122.564245,44 123.002765,43.5536144 123.002765,43.0029699 L123.002765,36.9970301 C123.002765,36.4530363 122.558349,36 122.010134,36 L119.510175,36 C116.856557,28.8459055 112.228085,22.6624926 106.292976,18.1227377 C93.8594339,6.71434708 78.6268782,0 62.171126,0 C43.326843,0 26.086618,8.80496304 12.816872,23.380979 C9.71118964,27.0455459 7.12682175,31.3146363 5.38938841,36 L2.89017983,36 C2.33606912,36 1.89754929,36.4463856 1.89754929,36.9970301 L1.89754929,43.0029699 C1.89754929,43.5469637 2.34196512,44 2.89017983,44 L3.33383318,44 C3.04165471,45.9573735 2.89021499,47.9611955 2.89021499,50.0006665 L2.89021499,96 L1.89569398,96 C1.35059226,96 0.904883588,96.4463856 0.904883588,96.9970301 L0.904883588,103.00297 C0.904883588,103.546964 1.34848451,104 1.89569398,104 L2.89021499,104 L2.89021499,129.999333 C2.89021499,131.008729 2.92732367,132.009387 3.00024157,133 L0.910131981,133 C0.351832311,133 -0.0465201007,133.446316 0.00437917282,133.996875 C0.00437917282,133.996875 0.22876259,146.52002 3.00024148,153.5 C5.77172037,160.47998 15.1743648,165.035156 22.7900605,167.927734 C30.4057562,170.820312 42.8066406,170.304886 42.8066406,170.304886 C44.9863434,173.042524 45.3066406,176.229862 45.3066406,180.009674 C45.3066406,180.009674 40.6322816,188 40.6426701,188 L54.5088315,188 L51.4941406,180.009674 C51.4941406,175.33081 57.698361,171.401734 62,170.304884 C66.301639,171.401734 73,175.33081 73,180.009674 Z" id="Path-Copy" sketch:type="MSShapeGroup"></path>
            </g>
            <g id="m2-b" sketch:type="MSLayerGroup" transform="translate(461.000000, 183.000000)">
                <path d="M78.2158203,170.229492 C82.4208984,169.201172 86.0463209,169.044481 93.0478476,166.385175 C100.049374,163.725869 108.260416,158.618692 110.808389,152.201613 C113.356361,145.784534 113.995974,135.190676 113.995974,135.190676 C114.042768,134.684517 113.676541,134.274194 113.163266,134.274194 L112.069456,134.274194 C112.136471,133.363465 112.170575,132.443505 112.170575,131.515516 L112.170575,107.612903 L113.084893,107.612903 C113.586035,107.612903 113.995799,107.202516 113.995799,106.696279 L113.995799,101.174689 C113.995799,100.674566 113.587973,100.258065 113.084893,100.258065 L112.170575,100.258065 L112.170575,57.9683547 C112.170575,56.0933416 112.031299,54.2511196 111.762599,52.4516129 L112.170608,52.4516129 C112.680032,52.4516129 113.083187,52.0412261 113.083187,51.5349884 L113.083187,46.0133987 C113.083187,45.5132753 112.674611,45.0967742 112.170608,45.0967742 L109.872258,45.0967742 C107.432642,38.5196228 103.177433,32.8348722 97.7209617,28.6612266 C88.2451577,19.966707 74.7565244,13.2336559 62.5693359,11.5283203 C60.0548944,11.1764782 62.5460968,0.912109375 57.1573257,0.912109375 C51.7685547,0.912109375 54.0850499,11.2305872 51.7685547,11.5283203 C37.2062287,13.3999783 22.3085516,21.9340106 11.7832533,33.4954162 C8.92802919,36.8644535 6.55207806,40.7892624 4.95476032,45.0967742 L2.65710081,45.0967742 C2.14767645,45.0967742 1.74452112,45.507161 1.74452112,46.0133987 L1.74452112,51.5349884 C1.74452112,52.0351118 2.15309697,52.4516129 2.65710081,52.4516129 L3.06497566,52.4516129 C2.79635998,54.2511337 2.65713314,56.0933572 2.65713314,57.9683547 L2.65713314,100.258065 L1.74281543,100.258065 C1.24167353,100.258065 0.831909105,100.668451 0.831909105,101.174689 L0.831909105,106.696279 C0.831909105,107.196402 1.23973576,107.612903 1.74281543,107.612903 L2.65713314,107.612903 L2.65713314,131.515516 C2.65713314,132.443509 2.69124918,133.363469 2.7582866,134.274194 L0.836734241,134.274194 C0.323458737,134.274194 -0.0427684797,134.684517 0.00402601372,135.190676 C0.00402601372,135.190676 0.210313994,146.703889 2.75828652,153.120968 C5.30625905,159.538046 13.9506257,163.725869 20.9521524,166.385175 C27.9536791,169.044481 29.9052734,169.229492 34.1748047,170.229492 C37.6239348,170.943643 53.2025931,173.218065 57.1573257,172.209671 C61.1120584,173.218065 75.3076172,171.109375 78.2158203,170.229492 Z" id="Path-Copy" sketch:type="MSShapeGroup"></path>
            </g>
            <g id="m2-f" sketch:type="MSLayerGroup" transform="translate(590.000000, 183.000000)">
                <path d="M78.2158203,170.229492 C82.4208984,169.201172 86.0463209,169.044481 93.0478476,166.385175 C100.049374,163.725869 108.260416,158.618692 110.808389,152.201613 C113.356361,145.784534 113.995974,135.190676 113.995974,135.190676 C114.042768,134.684517 113.676541,134.274194 113.163266,134.274194 L112.069456,134.274194 C112.136471,133.363465 112.170575,132.443505 112.170575,131.515516 L112.170575,107.612903 L113.084893,107.612903 C113.586035,107.612903 113.995799,107.202516 113.995799,106.696279 L113.995799,101.174689 C113.995799,100.674566 113.587973,100.258065 113.084893,100.258065 L112.170575,100.258065 L112.170575,57.9683547 C112.170575,56.0933416 112.031299,54.2511196 111.762599,52.4516129 L112.170608,52.4516129 C112.680032,52.4516129 113.083187,52.0412261 113.083187,51.5349884 L113.083187,46.0133987 C113.083187,45.5132753 112.674611,45.0967742 112.170608,45.0967742 L109.872258,45.0967742 C107.432642,38.5196228 103.177433,32.8348722 97.7209617,28.6612266 C88.2451577,19.966707 74.7565244,13.2336559 62.5693359,11.5283203 C60.0548944,11.1764782 62.5460968,0.912109375 57.1573257,0.912109375 C51.7685547,0.912109375 54.0850499,11.2305872 51.7685547,11.5283203 C37.2062287,13.3999783 22.3085516,21.9340106 11.7832533,33.4954162 C8.92802919,36.8644535 6.55207806,40.7892624 4.95476032,45.0967742 L2.65710081,45.0967742 C2.14767645,45.0967742 1.74452112,45.507161 1.74452112,46.0133987 L1.74452112,51.5349884 C1.74452112,52.0351118 2.15309697,52.4516129 2.65710081,52.4516129 L3.06497566,52.4516129 C2.79635998,54.2511337 2.65713314,56.0933572 2.65713314,57.9683547 L2.65713314,100.258065 L1.74281543,100.258065 C1.24167353,100.258065 0.831909105,100.668451 0.831909105,101.174689 L0.831909105,106.696279 C0.831909105,107.196402 1.23973576,107.612903 1.74281543,107.612903 L2.65713314,107.612903 L2.65713314,131.515516 C2.65713314,132.443509 2.69124918,133.363469 2.7582866,134.274194 L0.836734241,134.274194 C0.323458737,134.274194 -0.0427684797,134.684517 0.00402601372,135.190676 C0.00402601372,135.190676 0.210313994,146.703889 2.75828652,153.120968 C5.30625905,159.538046 13.9506257,163.725869 20.9521524,166.385175 C27.9536791,169.044481 29.9052734,169.229492 34.1748047,170.229492 C37.6239348,170.943643 53.2025931,173.218065 57.1573257,172.209671 C61.1120584,173.218065 75.3076172,171.109375 78.2158203,170.229492 Z" id="Path-Copy" sketch:type="MSShapeGroup"></path>
            </g>
            <g id="m3-f" sketch:type="MSLayerGroup" transform="translate(719.000000, 192.000000)">
                <path d="M74.5352557,153.0694 C78.4421363,152.080899 81.8104668,151.930275 88.3154896,149.373944 C94.8205124,146.817613 102.449279,141.908196 104.816566,135.739602 C107.183852,129.571008 107.778108,119.387368 107.778108,119.387368 C107.821584,118.900809 109.842892,119.387365 109.366015,119.387365 L109.366015,114.893243 C109.428278,114.01778 106.082155,114.824019 106.082155,113.931964 L106.082155,92.8774712 L106.931635,92.8774712 C107.397239,92.8774712 107.777945,92.4829756 107.777945,91.9963405 L107.777945,86.6885596 C107.777945,86.2078022 107.399039,85.807429 106.931635,85.807429 L106.082155,85.807429 L106.082155,45.1552753 C106.082155,43.3528671 105.952755,41.5819802 105.70311,39.8521546 L106.082185,39.8521546 C106.555484,39.8521546 106.93005,39.457659 106.93005,38.971024 L106.93005,33.663243 C106.93005,33.1824856 106.550448,32.7821124 106.082185,32.7821124 L103.94682,32.7821124 C101.680205,26.4596437 97.726749,20.9950198 92.6572161,16.9829875 C83.853376,8.62514003 71.3212711,2.15280835 59.9983208,0.513507295 C57.6621875,0.175289285 52.1156865,0.227303093 49.9634624,0.513507295 C36.4338042,2.31269035 22.5925759,10.516265 12.8136651,21.629986 C10.1609153,24.8685663 7.95345159,28.6413975 6.4694055,32.7821124 L4.33468144,32.7821124 C3.86138221,32.7821124 3.48681611,33.176608 3.48681611,33.663243 L3.48681611,38.971024 C3.48681611,39.4517814 3.86641835,39.8521546 4.33468144,39.8521546 L4.71363239,39.8521546 C4.46406522,41.5819938 4.33471147,43.3528821 4.33471147,45.1552753 L4.33471147,85.807429 L3.48523137,85.807429 C3.01962728,85.807429 2.63892075,86.2019246 2.63892075,86.6885596 L2.63892075,91.9963405 C2.63892075,92.477098 3.01782692,92.8774712 3.48523137,92.8774712 L4.33471147,92.8774712 L4.42869148,113.492734 C4.42869148,113.492734 0.403741115,113.613286 0.466024672,114.488745 L0.466024672,119.387365 C-0.010852587,119.387365 1.82626975,118.900809 1.86974588,119.387368 C1.86974588,119.387368 2.06140522,130.454763 4.42869169,136.623357 C6.79597817,142.791952 14.8273412,146.817613 21.332364,149.373944 C27.8373868,151.930275 29.6505864,152.108122 33.6173496,153.0694 C36.8218893,153.755897 51.2958079,155.942248 54.970096,154.972902 C58.6443841,155.942248 71.8332839,153.915212 74.5352557,153.0694 Z" id="Path-Copy" sketch:type="MSShapeGroup"></path>
            </g>
            <g id="m3-b" sketch:type="MSLayerGroup" transform="translate(849.000000, 192.000000)">
                <path d="M74.5352557,153.0694 C78.4421363,152.080899 81.8104668,151.930275 88.3154896,149.373944 C94.8205124,146.817613 102.449279,141.908196 104.816566,135.739602 C107.183852,129.571008 107.778108,119.387368 107.778108,119.387368 C107.821584,118.900809 109.842892,119.387365 109.366015,119.387365 L109.366015,114.893243 C109.428278,114.01778 106.082155,114.824019 106.082155,113.931964 L106.082155,92.8774712 L106.931635,92.8774712 C107.397239,92.8774712 107.777945,92.4829756 107.777945,91.9963405 L107.777945,86.6885596 C107.777945,86.2078022 107.399039,85.807429 106.931635,85.807429 L106.082155,85.807429 L106.082155,45.1552753 C106.082155,43.3528671 105.952755,41.5819802 105.70311,39.8521546 L106.082185,39.8521546 C106.555484,39.8521546 106.93005,39.457659 106.93005,38.971024 L106.93005,33.663243 C106.93005,33.1824856 106.550448,32.7821124 106.082185,32.7821124 L103.94682,32.7821124 C101.680205,26.4596437 97.726749,20.9950198 92.6572161,16.9829875 C83.853376,8.62514003 71.3212711,2.15280835 59.9983208,0.513507295 C57.6621875,0.175289285 52.1156865,0.227303093 49.9634624,0.513507295 C36.4338042,2.31269035 22.5925759,10.516265 12.8136651,21.629986 C10.1609153,24.8685663 7.95345159,28.6413975 6.4694055,32.7821124 L4.33468144,32.7821124 C3.86138221,32.7821124 3.48681611,33.176608 3.48681611,33.663243 L3.48681611,38.971024 C3.48681611,39.4517814 3.86641835,39.8521546 4.33468144,39.8521546 L4.71363239,39.8521546 C4.46406522,41.5819938 4.33471147,43.3528821 4.33471147,45.1552753 L4.33471147,85.807429 L3.48523137,85.807429 C3.01962728,85.807429 2.63892075,86.2019246 2.63892075,86.6885596 L2.63892075,91.9963405 C2.63892075,92.477098 3.01782692,92.8774712 3.48523137,92.8774712 L4.33471147,92.8774712 L4.42869148,113.492734 C4.42869148,113.492734 0.403741115,113.613286 0.466024672,114.488745 L0.466024672,119.387365 C-0.010852587,119.387365 1.82626975,118.900809 1.86974588,119.387368 C1.86974588,119.387368 2.06140522,130.454763 4.42869169,136.623357 C6.79597817,142.791952 14.8273412,146.817613 21.332364,149.373944 C27.8373868,151.930275 29.6505864,152.108122 33.6173496,153.0694 C36.8218893,153.755897 51.2958079,155.942248 54.970096,154.972902 C58.6443841,155.942248 71.8332839,153.915212 74.5352557,153.0694 Z" id="Path-Copy" sketch:type="MSShapeGroup"></path>
            </g>
            <g id="m4-b" sketch:type="MSLayerGroup" transform="translate(43.000000, 402.000000)">
                <path d="M60.983391,144.182115 C64.1799297,143.231633 66.9358365,143.086803 72.2581279,140.628792 C77.5804193,138.170781 83.8221375,133.450189 85.7590083,127.518848 C87.695879,121.587507 88.1820882,111.795546 88.1820882,111.795546 C88.2176595,111.327701 89.8714574,111.795544 89.4812851,111.795544 L89.4812851,107.474272 C89.5322277,106.63248 86.7944902,107.40771 86.7944902,106.549965 L86.7944902,86.3052608 L87.4895193,86.3052608 C87.8704681,86.3052608 88.1819553,85.925938 88.1819553,85.4580198 L88.1819553,80.3543843 C88.1819553,79.8921175 87.8719412,79.5071432 87.4895193,79.5071432 L86.7944902,79.5071432 L86.7944902,40.418534 C86.7944902,38.6854491 86.6886174,36.9826733 86.4843626,35.3193794 L86.7945147,35.3193794 C87.1817596,35.3193794 87.4882227,34.9400567 87.4882227,34.4721384 L87.4882227,29.3685029 C87.4882227,28.9062362 87.1776391,28.5212619 86.7945147,28.5212619 L85.0473979,28.5212619 C83.1928952,22.4419651 79.9582492,17.1875191 75.8104495,13.3297957 C68.6073077,5.29340387 60.141184,2.19929774 50.8769519,0.623046728 C48.9655702,0.297837103 42.6163781,0.347850379 40.8554676,0.623046727 C29.7857472,2.35303043 18.4848348,7.11179323 10.4839078,17.7980635 C8.31347618,20.912083 6.50736949,24.5398053 5.29314995,28.5212619 L3.54655754,28.5212619 C3.15931272,28.5212619 2.85284954,28.9005846 2.85284954,29.3685029 L2.85284954,34.4721384 C2.85284954,34.9344052 3.16343319,35.3193794 3.54655754,35.3193794 L3.85660832,35.3193794 C3.652417,36.9826863 3.54658211,38.6854635 3.54658211,40.418534 L3.54658211,79.5071432 L2.85155294,79.5071432 C2.47060414,79.5071432 2.15911698,79.886466 2.15911698,80.3543843 L2.15911698,85.4580198 C2.15911698,85.9202865 2.46913112,86.3052608 2.85155294,86.3052608 L3.54658211,86.3052608 L3.62347484,106.127629 C3.62347484,106.127629 0.33033364,106.243544 0.381292914,107.085332 L0.381292914,111.795544 C-0.00887938939,111.795544 1.49422071,111.327701 1.52979208,111.795546 C1.52979208,111.795546 1.68660427,122.437272 3.62347502,128.368613 C5.56034577,134.299954 12.131461,138.170781 17.4537524,140.628792 C22.7760438,143.086803 24.2595707,143.25781 27.5051042,144.182115 C30.1270003,144.842209 41.9692974,146.944469 44.9755331,146.012405 C47.9817688,146.944469 58.7726868,144.995396 60.983391,144.182115 Z" id="Path-Copy" sketch:type="MSShapeGroup"></path>
            </g>
            <g id="m4-f" sketch:type="MSLayerGroup" transform="translate(153.000000, 402.000000)">
                <path d="M60.983391,144.182115 C64.1799297,143.231633 66.9358365,143.086803 72.2581279,140.628792 C77.5804193,138.170781 83.8221375,133.450189 85.7590083,127.518848 C87.695879,121.587507 88.1820882,111.795546 88.1820882,111.795546 C88.2176595,111.327701 89.8714574,111.795544 89.4812851,111.795544 L89.4812851,107.474272 C89.5322277,106.63248 86.7944902,107.40771 86.7944902,106.549965 L86.7944902,86.3052608 L87.4895193,86.3052608 C87.8704681,86.3052608 88.1819553,85.925938 88.1819553,85.4580198 L88.1819553,80.3543843 C88.1819553,79.8921175 87.8719412,79.5071432 87.4895193,79.5071432 L86.7944902,79.5071432 L86.7944902,40.418534 C86.7944902,38.6854491 86.6886174,36.9826733 86.4843626,35.3193794 L86.7945147,35.3193794 C87.1817596,35.3193794 87.4882227,34.9400567 87.4882227,34.4721384 L87.4882227,29.3685029 C87.4882227,28.9062362 87.1776391,28.5212619 86.7945147,28.5212619 L85.0473979,28.5212619 C83.1928952,22.4419651 79.9582492,17.1875191 75.8104495,13.3297957 C68.6073077,5.29340387 60.141184,2.19929774 50.8769519,0.623046728 C48.9655702,0.297837103 42.6163781,0.347850379 40.8554676,0.623046727 C29.7857472,2.35303043 18.4848348,7.11179323 10.4839078,17.7980635 C8.31347618,20.912083 6.50736949,24.5398053 5.29314995,28.5212619 L3.54655754,28.5212619 C3.15931272,28.5212619 2.85284954,28.9005846 2.85284954,29.3685029 L2.85284954,34.4721384 C2.85284954,34.9344052 3.16343319,35.3193794 3.54655754,35.3193794 L3.85660832,35.3193794 C3.652417,36.9826863 3.54658211,38.6854635 3.54658211,40.418534 L3.54658211,79.5071432 L2.85155294,79.5071432 C2.47060414,79.5071432 2.15911698,79.886466 2.15911698,80.3543843 L2.15911698,85.4580198 C2.15911698,85.9202865 2.46913112,86.3052608 2.85155294,86.3052608 L3.54658211,86.3052608 L3.62347484,106.127629 C3.62347484,106.127629 0.33033364,106.243544 0.381292914,107.085332 L0.381292914,111.795544 C-0.00887938939,111.795544 1.49422071,111.327701 1.52979208,111.795546 C1.52979208,111.795546 1.68660427,122.437272 3.62347502,128.368613 C5.56034577,134.299954 12.131461,138.170781 17.4537524,140.628792 C22.7760438,143.086803 24.2595707,143.25781 27.5051042,144.182115 C30.1270003,144.842209 41.9692974,146.944469 44.9755331,146.012405 C47.9817688,146.944469 58.7726868,144.995396 60.983391,144.182115 Z" id="Path-Copy" sketch:type="MSShapeGroup"></path>
            </g>
            <g id="m5-f" sketch:type="MSLayerGroup" transform="translate(263.000000, 411.000000)">
                <path d="M51.4970857,127.507993 C54.1963851,126.667431 56.5235952,126.539349 61.0179746,124.365598 C65.5123541,122.191847 72.7831384,116.017174 74.4187181,110.77177 C76.0542979,105.526367 75.4647623,71.0617004 75.4647623,71.0617004 C75.4647623,70.652893 74.2029725,70.3124396 73.8800386,70.3124396 L73.293125,70.3124396 L73.293125,35.7442817 C73.293125,34.2116217 73.2037214,32.7057655 73.0312395,31.2348253 L73.2931458,31.2348253 C73.6201525,31.2348253 73.8789436,30.8993699 73.8789436,30.4855646 L73.8789436,25.9721454 C73.8789436,25.5633381 73.616673,25.2228847 73.2931458,25.2228847 L71.8178027,25.2228847 C70.2517782,19.8466358 67.5202993,15.1998468 64.0177129,11.7882547 C57.9350598,4.68124152 50.7858887,1.94495719 42.9627594,0.550993705 C41.3487037,0.263393356 35.9871638,0.307622784 34.5001726,0.550993704 C25.1524088,2.08091127 15.6094161,6.28934095 8.85307768,15.739784 C7.02026878,18.4936788 5.49511201,21.7018686 4.46977107,25.2228847 L2.99487081,25.2228847 C2.66786407,25.2228847 2.40907295,25.5583402 2.40907295,25.9721454 L2.40907295,30.4855646 C2.40907295,30.8943719 2.67134358,31.2348253 2.99487081,31.2348253 L3.25669147,31.2348253 C3.08426324,32.705777 2.99489156,34.2116344 2.99489156,35.7442817 L2.99489156,70.3124396 L2.40797804,70.3124396 C2.08628794,70.3124396 0.29182439,69.898637 0.29182439,70.3124422 C0.29182439,70.3124422 -0.575756393,106.27786 1.05982335,111.523263 C2.6954031,116.768666 10.2443448,122.191847 14.7387242,124.365598 C19.2331036,126.539349 20.4858597,126.69058 23.2265325,127.507993 C25.4405781,128.091749 35.44074,129.950891 37.9793391,129.126617 C40.5179381,129.950891 49.6302689,128.227221 51.4970857,127.507993 Z" id="Path-Copy" sketch:type="MSShapeGroup"></path>
            </g>
            <g id="m5-b" sketch:type="MSLayerGroup" transform="translate(359.000000, 411.000000)">
                <path d="M51.4970857,127.507993 C54.1963851,126.667431 56.5235952,126.539349 61.0179746,124.365598 C65.5123541,122.191847 72.7831384,116.017174 74.4187181,110.77177 C76.0542979,105.526367 75.4647623,71.0617004 75.4647623,71.0617004 C75.4647623,70.652893 74.2029725,70.3124396 73.8800386,70.3124396 L73.293125,70.3124396 L73.293125,35.7442817 C73.293125,34.2116217 73.2037214,32.7057655 73.0312395,31.2348253 L73.2931458,31.2348253 C73.6201525,31.2348253 73.8789436,30.8993699 73.8789436,30.4855646 L73.8789436,25.9721454 C73.8789436,25.5633381 73.616673,25.2228847 73.2931458,25.2228847 L71.8178027,25.2228847 C70.2517782,19.8466358 67.5202993,15.1998468 64.0177129,11.7882547 C57.9350598,4.68124152 50.7858887,1.94495719 42.9627594,0.550993705 C41.3487037,0.263393356 35.9871638,0.307622784 34.5001726,0.550993704 C25.1524088,2.08091127 15.6094161,6.28934095 8.85307768,15.739784 C7.02026878,18.4936788 5.49511201,21.7018686 4.46977107,25.2228847 L2.99487081,25.2228847 C2.66786407,25.2228847 2.40907295,25.5583402 2.40907295,25.9721454 L2.40907295,30.4855646 C2.40907295,30.8943719 2.67134358,31.2348253 2.99487081,31.2348253 L3.25669147,31.2348253 C3.08426324,32.705777 2.99489156,34.2116344 2.99489156,35.7442817 L2.99489156,70.3124396 L2.40797804,70.3124396 C2.08628794,70.3124396 0.29182439,69.898637 0.29182439,70.3124422 C0.29182439,70.3124422 -0.575756393,106.27786 1.05982335,111.523263 C2.6954031,116.768666 10.2443448,122.191847 14.7387242,124.365598 C19.2331036,126.539349 20.4858597,126.69058 23.2265325,127.507993 C25.4405781,128.091749 35.44074,129.950891 37.9793391,129.126617 C40.5179381,129.950891 49.6302689,128.227221 51.4970857,127.507993 Z" id="Path-Copy" sketch:type="MSShapeGroup"></path>
            </g>
            <g id="m6" sketch:type="MSLayerGroup" transform="translate(455.000000, 412.000000)">
                <path d="M5.6422428,16.8859287 C5.95531986,15.9202274 6.35033539,15.0202766 7.03768796,13.7120828 L7.08344172,13.7079314 C7.10570722,13.666508 7.12808175,13.625152 7.15056492,13.5838636 C11.5571277,5.49159676 20.1372483,0 30,0 C38.7743436,0 46.5335263,4.3464202 51.2419753,11.0036876 C53.3797961,13.8081514 54.6139381,16.2139204 55.6901213,20.8937428 L60,20.8937428 L59.9999982,25.8586924 L56.683111,25.8586916 L56.6831093,29.8621473 L60,29.8621474 L60,33.6753608 L56.4320946,33.6753608 C56.4320946,35.5471183 56.5617827,67.9021709 56.5617827,67.9021709 L58.014877,67.9021709 C58.2680376,67.9021709 59.2572041,68.2402376 59.2572041,68.6461791 C59.2572041,68.6461791 59.7193643,102.86924 58.4371691,108.077872 C57.1549738,113.286504 51.4551204,119.417891 47.9317998,121.576404 C44.4084793,123.734916 42.5840878,123.8621 40.468001,124.69677 C39.0045299,125.410955 31.8610159,127.122543 29.8709084,126.304047 C27.8808009,127.122543 20.0412811,125.276433 18.3056038,124.69677 C16.1570828,123.885087 15.174998,123.734916 11.6516775,121.576404 C8.12835692,119.417891 2.21044497,114.032728 0.928249756,108.824096 C-0.353945456,103.615465 0.3261852,67.9021735 0.3261852,67.9021735 C0.3261852,67.4912691 1.73293567,67.9021709 1.98512117,67.9021709 L3.43821549,67.9021709 C3.43821549,67.9021709 3.47885681,45.2473604 3.55795222,34.2748875 L4.30010923e-14,34.2748881 C4.30010923e-14,34.2748881 -5.57775399e-14,30.5932079 4.60879246e-14,29.4345289 L3.43821553,29.4345289 L3.43821553,25.3755227 L4.25601163e-14,25.3755226 L7.73972232e-14,20.8937437 L4.6376524,20.8937428 C4.69597747,20.6400446 4.75090976,20.3997494 4.80318348,20.171203 L4.65574954,20.1718638 C4.91336472,19.0469826 5.24394453,17.9499222 5.6422428,16.8859287 Z" id="Path-Copy" stroke-linecap="round" stroke-linejoin="round" sketch:type="MSShapeGroup"></path>
                <circle id="Oval-1" sketch:type="MSShapeGroup" cx="30" cy="27" r="21"></circle>
            </g>
            <g id="Oval-" sketch:type="MSLayerGroup" transform="translate(61.000000, 54.000000)">
                <path d="M36,47.4562075 C44.2919316,43.3867992 50,34.859995 50,25 C50,11.1928813 38.8071187,0 25,0 C11.1928813,0 0,11.1928813 0,25 C0,34.859995 5.70806837,43.3867992 14,47.4562075 L14,63 L36,63 L36,47.4562075 Z M25,45 C36.045695,45 45,36.045695 45,25 C45,13.954305 36.045695,5 25,5 C13.954305,5 5,13.954305 5,25 C5,36.045695 13.954305,45 25,45 Z" sketch:type="MSShapeGroup"></path>
            </g>
            <g id="Oval--Copy" sketch:type="MSLayerGroup" transform="translate(121.000000, 54.000000)">
                <path d="M25,50 C38.8071187,50 50,38.8071187 50,25 C50,11.1928813 38.8071187,0 25,0 C11.1928813,0 0,11.1928813 0,25 C0,38.8071187 11.1928813,50 25,50 Z M25,45 C36.045695,45 45,36.045695 45,25 C45,13.954305 36.045695,5 25,5 C13.954305,5 5,13.954305 5,25 C5,36.045695 13.954305,45 25,45 Z" id="Oval-" sketch:type="MSShapeGroup"></path>
            </g>
            <g id="Oval--Copy-2" sketch:type="MSLayerGroup" transform="translate(181.000000, 54.000000)">
                <path d="M25,50 C38.8071187,50 50,38.8071187 50,25 C50,11.1928813 38.8071187,0 25,0 C11.1928813,0 0,11.1928813 0,25 C0,38.8071187 11.1928813,50 25,50 Z M25,45 C36.045695,45 45,36.045695 45,25 C45,13.954305 36.045695,5 25,5 C13.954305,5 5,13.954305 5,25 C5,36.045695 13.954305,45 25,45 Z" id="Oval-" sketch:type="MSShapeGroup"></path>
            </g>
            <g id="Oval--Copy-3" sketch:type="MSLayerGroup" transform="translate(243.000000, 54.000000)">
                <path d="M25,50 C38.8071187,50 50,38.8071187 50,25 C50,11.1928813 38.8071187,0 25,0 C11.1928813,0 0,11.1928813 0,25 C0,38.8071187 11.1928813,50 25,50 Z M25,45 C36.045695,45 45,36.045695 45,25 C45,13.954305 36.045695,5 25,5 C13.954305,5 5,13.954305 5,25 C5,36.045695 13.954305,45 25,45 Z" id="Oval-" sketch:type="MSShapeGroup"></path>
            </g>
            <g id="Oval-s" sketch:type="MSLayerGroup" transform="translate(313.000000, 59.000000)">
                <circle sketch:type="MSShapeGroup" cx="18" cy="18" r="18"></circle>
            </g>
            <g id="Oval-s-Copy" sketch:type="MSLayerGroup" transform="translate(362.000000, 59.000000)">
                <circle id="Oval-s" sketch:type="MSShapeGroup" cx="18" cy="18" r="18"></circle>
            </g>
            <g id="Oval-s-Copy-2" sketch:type="MSLayerGroup" transform="translate(411.000000, 59.000000)">
                <circle id="Oval-s" sketch:type="MSShapeGroup" cx="18" cy="18" r="18"></circle>
            </g>
            <g id="Oval-s-Copy-3" sketch:type="MSLayerGroup" transform="translate(461.000000, 59.000000)">
                <circle id="Oval-s" sketch:type="MSShapeGroup" cx="18" cy="18" r="18"></circle>
            </g>
            <g id="Oval-ss" sketch:type="MSLayerGroup" transform="translate(518.000000, 62.000000)">
                <circle id="Oval-s" sketch:type="MSShapeGroup" cx="15" cy="15" r="15"></circle>
            </g>
            <g id="Oval-ss-Copy" sketch:type="MSLayerGroup" transform="translate(568.000000, 62.000000)">
                <circle id="Oval-s" sketch:type="MSShapeGroup" cx="15" cy="15" r="15"></circle>
            </g>
            <g id="heart1" sketch:type="MSLayerGroup" transform="translate(542.000000, 434.000000)" stroke-linecap="round" stroke-linejoin="round">
                <path d="M53.8750466,85.3904149 C53.1598193,84.9639463 6.13827984,56.8240589 6.88715489,30.3536132 C6.84730807,28.9006129 6.90605958,27.4781827 7.05958094,26.0897503 L1.88740101,24.2072308 C0.845018214,23.8278345 0.30471443,22.683077 0.683158526,21.6433104 L5.8152242,7.54307584 C6.19252223,6.506458 7.34593882,5.9745984 8.38578373,6.353071 L15.3393704,8.88396958 C17.6596425,6.53263583 20.415598,4.46835939 23.555171,2.73775644 C38.9364625,-4.19768404 49.4995102,3.1046454 53.8791678,12.8058461 C58.2588254,3.1046454 68.8218732,-4.19768404 84.2031647,2.73775644 C87.3446873,4.4694341 90.1021159,6.5351998 92.4232874,8.88835046 L99.3889104,6.353071 C100.428755,5.9745984 101.582172,6.506458 101.95947,7.54307584 L107.091536,21.6433104 C107.46998,22.683077 106.929676,23.8278345 105.887293,24.2072308 L100.699387,26.0954742 C100.852437,27.482092 100.910973,28.9026095 100.871181,30.3536132 C101.620056,56.8240589 54.5985163,84.9639463 53.8832891,85.3904149 C53.8832891,85.3953237 53.8819103,85.3945046 53.8791678,85.392871 C53.8764253,85.3945046 53.8750466,85.3953237 53.8750466,85.3953237 Z" id="Rectangle-2" sketch:type="MSShapeGroup"></path>
            </g>
            <g id="heart1-copy" sketch:type="MSLayerGroup" transform="translate(672.000000, 434.000000)" stroke-linecap="round" stroke-linejoin="round">
                <path d="M53.8750466,85.3904149 C53.1598193,84.9639463 6.13827984,56.8240589 6.88715489,30.3536132 C6.84730807,28.9006129 6.90605958,27.4781827 7.05958094,26.0897503 L1.88740101,24.2072308 C0.845018214,23.8278345 0.30471443,22.683077 0.683158526,21.6433104 L5.8152242,7.54307584 C6.19252223,6.506458 7.34593882,5.9745984 8.38578373,6.353071 L15.3393704,8.88396958 C17.6596425,6.53263583 20.415598,4.46835939 23.555171,2.73775644 C38.9364625,-4.19768404 49.4995102,3.1046454 53.8791678,12.8058461 C58.2588254,3.1046454 68.8218732,-4.19768404 84.2031647,2.73775644 C87.3446873,4.4694341 90.1021159,6.5351998 92.4232874,8.88835046 L99.3889104,6.353071 C100.428755,5.9745984 101.582172,6.506458 101.95947,7.54307584 L107.091536,21.6433104 C107.46998,22.683077 106.929676,23.8278345 105.887293,24.2072308 L100.699387,26.0954742 C100.852437,27.482092 100.910973,28.9026095 100.871181,30.3536132 C101.620056,56.8240589 54.5985163,84.9639463 53.8832891,85.3904149 C53.8832891,85.3953237 53.8819103,85.3945046 53.8791678,85.392871 C53.8764253,85.3945046 53.8750466,85.3953237 53.8750466,85.3953237 Z" id="Rectangle-2" sketch:type="MSShapeGroup"></path>
            </g>
            <path d="M844,444.744289 C845.980043,443.713229 848.315594,443 851.319366,443 C861.214381,443 868.919955,455.756631 864.923018,473.053459 C859.008074,498.650498 833.056082,508.223295 833.056082,508.223295 C832.048096,508.661867 830.403446,508.607142 829.409026,508.122526 C829.409026,508.122526 801.231113,495.557451 796.631698,472.064128 C793.642623,456.79625 801.682653,443 811.871814,443 C815.152285,443 817.758348,443.788009 820,444.906095 L820,435.990795 C820,434.891309 820.897026,434 822.004947,434 L841.995053,434 C843.102355,434 844,434.898212 844,435.990795 L844,444.744289 Z" id="Oval-16" sketch:type="MSShapeGroup"></path>
            <path d="M919.409026,508.122526 C920.403446,508.607142 922.048096,508.661867 923.056082,508.223295 C923.056082,508.223295 949.008074,498.650498 954.923018,473.053459 C958.919955,455.756631 951.214381,443 941.319366,443 C931.424352,443 928.780699,450.739764 922.209582,452.084744 C915.743942,450.602131 912.060975,443 901.871814,443 C891.682653,443 883.642623,456.79625 886.631698,472.064128 C891.231113,495.557451 919.409026,508.122526 919.409026,508.122526 Z" id="Oval-16-Copy" sketch:type="MSShapeGroup"></path>
            <path d="M655,81 C655,76.581722 651.418278,73 647,73 C642.581722,73 639,76.581722 639,81 L655,81 Z" id="Oval-18" stroke-linecap="round" stroke-linejoin="round" sketch:type="MSShapeGroup"></path>
            <path d="M685,81 C685,76.581722 681.418278,73 677,73 C672.581722,73 669,76.581722 669,81 L685,81 Z" id="Oval-18-Copy" stroke-linecap="round" stroke-linejoin="round" sketch:type="MSShapeGroup"></path>
        </g>
    </g>
</svg>