<?xml version="1.0" encoding="UTF-8" standalone="no"?>
<svg width="420px" height="595px" viewBox="0 0 420 595" version="1.1" xmlns="http://www.w3.org/2000/svg" xmlns:xlink="http://www.w3.org/1999/xlink" xmlns:sketch="http://www.bohemiancoding.com/sketch/ns">
    <!-- Generator: Sketch 3.4 (15575) - http://www.bohemiancoding.com/sketch -->
    <title>A5</title>
    <desc>Created with Sketch.</desc>
    <defs></defs>
    <g id="Page-1" stroke="none" stroke-width="1" fill="none" fill-rule="evenodd" sketch:type="MSPage">
        <g id="A5" sketch:type="MSArtboardGroup" stroke="#000000" stroke-width="5">
            <g id="eyes" sketch:type="MSLayerGroup" transform="translate(180.000000, 52.000000)">
                <path d="M142.248461,0.84170687 L46.2938779,85.5735318" id="Line" stroke-linecap="square" sketch:type="MSShapeGroup"></path>
                <path d="M80.5232906,114.191565 L203.412494,0.280568957" id="Line" stroke-linecap="square" sketch:type="MSShapeGroup"></path>
                <path d="M46.647877,85.2743313 C22.0948053,74.9941094 0,100.885741 0,122.889203 C0,144.892665 17.8373301,162.729995 39.8407919,162.729995 C61.8442536,162.729995 85.6272345,138.414749 79.7232307,114.578444" id="Oval-1" stroke-linecap="round" stroke-linejoin="round" sketch:type="MSShapeGroup"></path>
                <path d="M145.023463,83.4396733 C119.856647,77.1926301 98.1991349,94.3281201 98.1991349,114.472134 C98.1991349,134.616149 114.529085,150.946099 134.673099,150.946099 C154.817114,150.946099 171.147064,134.616149 171.147064,114.472134" id="Oval-1" sketch:type="MSShapeGroup"></path>
                <path d="M211.829562,27.2151888 L138.881634,88.9403593" id="Line" stroke-linecap="square" sketch:type="MSShapeGroup"></path>
                <path d="M212.951838,77.717601 L171.427633,114.752703" id="Line-Copy" stroke-linecap="square" sketch:type="MSShapeGroup"></path>
            </g>
            <g id="body" sketch:type="MSLayerGroup" transform="translate(27.000000, 87.000000)" stroke-linecap="round" stroke-linejoin="round">
                <path d="M244.406249,10.7799854 C244.406249,10.7799854 208.190934,-13.2568834 160.248713,10.7799853 C160.248713,10.7799853 148.682336,15.9398239 128.636483,15.9398239 C133.116818,22.8312999 141.985428,32.6117573 141.985428,32.6117573 L118.198441,33.4446964 L127.926293,47.9115333 L117.105756,47.802484 C117.105756,47.802484 116.243226,47.9115322 123.557746,57.6963746 C123.557746,57.6963746 94.889298,88.3222233 103.01703,152.10783 C103.01703,152.10783 35.2870259,188.516584 28.443774,277.641074 C31.9706134,280.567328 33.1115208,283.909473 52.5299613,268.793828 C52.9047839,268.294065 29.9112811,328.978054 75.5234641,290.706702 C75.5037366,290.165292 71.1812211,344.845544 113.323555,295.612275 C113.323555,295.612275 114.599267,319.703935 145.676663,319.703942 L155.59083,299.746283 C155.59083,299.746283 180.039784,347.923034 180.039784,259.642458" id="Path-1" sketch:type="MSShapeGroup"></path>
                <path d="M37.1403157,240.839954 C37.1403157,240.839954 24.935566,240.839954 12.7308164,225.559906 C12.8513734,225.106173 7.73537382,236.576621 11.6041567,247.428941 C11.6041567,247.428941 6.52761267,240.710629 0.416469545,236.968979 C0.416469545,236.968979 -3.33394436,401.713368 194.846377,375.164534 C194.846377,375.164534 394.203789,351.377547 320.254133,168.51673 L316.997986,161.540865" id="Path-2" sketch:type="MSShapeGroup"></path>
                <path d="M320.436052,96.4948977 C320.436052,96.4948977 328.508985,113.010107 325.415055,139.635663 C325.726311,139.775947 253.170741,75.0412362 167.760509,160.139116 C167.760509,160.139116 207.068658,127.947116 299.759435,135.680298 C319.603113,137.874435 325.590411,144.550003 325.367928,151.577379 C325.629866,156.179367 276.285896,210.580154 173.634921,173.802605" id="Path-9" sketch:type="MSShapeGroup"></path>
                <path d="M224.687512,253.068815 C224.687512,253.068815 219.198881,277.517769 232.214651,277.517769 C241.322182,277.517769 249.802817,261.089142 249.802817,261.089142" id="Path-10" sketch:type="MSShapeGroup"></path>
                <path d="M271.610478,257.472433 C271.610478,264.394595 277.442147,273.874757 282.151541,273.874757 C286.860935,273.874757 299.906295,254.581257 299.906295,254.581257" id="Path-11" sketch:type="MSShapeGroup"></path>
                <path d="M218.407589,299.884376 C218.407589,299.884376 218.407589,307.307398 227.138106,314.730419 C227.138106,314.730419 231.322529,317.09772 251.111408,301.423121" id="Path-12" sketch:type="MSShapeGroup"></path>
                <path d="M269.633343,299.323238 C269.633343,299.323238 265.330555,305.769748 273.105384,311.216731 C278.51072,314.419163 292.376964,301.653275 292.376964,301.653275" id="Path-13" sketch:type="MSShapeGroup"></path>
                <path d="M203.478252,328.285407 C203.478252,328.285407 199.195192,334.12694 204.03939,343.065692 C208.883588,352.004443 227.554576,334.332983 227.554576,334.332983" id="Path-14" sketch:type="MSShapeGroup"></path>
                <path d="M248.595055,329.593998 C245.087943,339.718592 252.593163,340.240275 252.593163,340.240275 C252.593163,340.240275 256.209872,344.420314 270.098036,327.871129" id="Path-15" sketch:type="MSShapeGroup"></path>
                <path d="M129.949458,378.128044 L129.949458,414.333673 C129.949458,414.333673 86.5774429,423.683236 100.610274,454.348546 C100.610274,454.348546 99.4704641,447.654346 135.354795,439.232894 C135.354795,439.232894 132.945845,447.588588 140.409419,455.779886 C140.409419,455.779886 155.849481,452.733083 159.301794,431.986324 L182.358862,441.008369 C182.358862,441.008369 187.505548,417.618124 163.957484,411.215453 L163.790896,377.889122" id="Path-16" sketch:type="MSShapeGroup"></path>
                <path d="M248.040544,359.430753 L248.040544,398.122966 C248.040544,398.122966 197.544947,386.876096 216.235661,428.08247 C216.235661,428.08247 227.048526,414.338975 240.189235,415.211369 C240.189235,415.211369 231.748056,431.738634 244.117201,443.818443 C250.274375,428.352079 258.255246,434.445686 266.510113,425.421448 C277.382158,427.085135 285.117533,443.818443 285.117533,443.818443 C285.117533,443.818443 305.366721,425.232941 282.048569,406.165212 L281.881981,372.83888" id="Path-16-Copy" sketch:type="MSShapeGroup" transform="translate(252.678794, 401.624598) scale(-1, 1) translate(-252.678794, -401.624598) "></path>
            </g>
        </g>
    </g>
</svg>