M48
FMAT,2
INCH,LZ
T1C0.1181
T2C0.0394
T3C0.0200
%
T1
X019217Y083222
X038508Y083222
X038508Y071805
X019217Y071805
X01986Y077514
T2
X03611Y083014
X03511Y083014
X02836Y072014
X02736Y072014
X02636Y072014
T3
X02486Y082014
X02286Y082014
X03511Y078764
X03511Y077764
X02211Y072764
X03136Y077764
X03036Y078264
X02461Y078264
X03386Y082264
X03211Y072764
X03536Y074639
M30
