%FSTAX24Y24*%
%MOIN*%
%IN MakeAway.osm LAYER1.GBR *%
%ADD10C,0.0100*%
%ADD11C,0.0472*%
%ADD12C,0.0500*%
%ADD13R,0.0220X0.0940*%
%ADD14R,0.0394X0.0551*%
%ADD15R,0.0413X0.0512*%
%ADD16R,0.0512X0.0354*%
%ADD17R,0.0512X0.0413*%
%ADD18R,0.0591X0.1181*%
%ADD19R,0.0630X0.0787*%
%ADD20R,0.0709X0.1181*%
%ADD21R,0.0787X0.0630*%
%ADD22R,0.0787X0.1772*%
%ADD23R,0.1575X0.0591*%
%ADD24R,0.2362X0.2362*%
G54D24*X019217Y083222D03*G54D17*X02036Y079764D03*G54D13*
X02486Y079264D03*X02336Y081094D03*G54D15*X021435Y083014D03*G54D17*
X02586Y079764D03*G54D24*X019217Y071805D03*G54D13*X02486Y081094D03*
G54D12*Y082014D03*G54D13*X02186Y081094D03*X02236D03*X02286D03*G54D12*
Y082014D03*G54D13*X02436Y081094D03*G54D15*X02411Y083014D03*X024935D03*
G54D13*X02136Y079264D03*X02186D03*X02236D03*X02286D03*X02336D03*
X02386D03*G54D11*Y078264D03*G54D12*X02461D03*G54D13*X02436Y079264D03*
X02186Y075764D03*G54D16*Y076514D03*G54D13*X02286Y075764D03*X02336D03*
X02436D03*X02136Y073934D03*X02186D03*X02236D03*X02336D03*X02486D03*
G54D17*X02036Y074339D03*G54D13*X02236Y075764D03*G54D18*
X02636Y073764D03*G54D20*Y072014D03*G54D13*X02286Y073934D03*G54D11*
Y072764D03*G54D12*X02211D03*G54D13*X02386Y073934D03*G54D15*
X023435Y072014D03*G54D24*X01986Y077514D03*G54D13*X03286Y081094D03*
X03336D03*X03136Y079264D03*G54D12*X03036Y078264D03*G54D13*
X03186Y079264D03*G54D12*X03136Y077764D03*G54D13*X03286Y079264D03*
X03336Y075764D03*G54D15*X02236Y083014D03*G54D22*X02736Y082264D03*
G54D15*X023185Y083014D03*G54D13*X02386Y081094D03*G54D15*
X02586Y083014D03*G54D22*X02736Y078917D03*G54D17*X02586Y080689D03*
G54D15*X02436Y072014D03*G54D13*Y073934D03*G54D17*X03136Y072014D03*
G54D15*X032435D03*G54D17*X03036D03*G54D15*X03436D03*G54D13*
X03386Y073934D03*G54D15*X03336Y072014D03*X025685Y076514D03*G54D13*
X02386Y075764D03*G54D15*X03186Y083014D03*X032685D03*X030935D03*G54D13*
X03136Y081094D03*G54D17*X03036Y080689D03*G54D13*X02486Y075764D03*
G54D16*X02186Y077014D03*G54D13*X02136Y075764D03*G54D17*
X02036Y075264D03*G54D13*X02136Y081094D03*G54D17*X02036Y080689D03*
X03536Y080839D03*G54D21*X03689Y081199D03*G54D23*X036445Y075764D03*
G54D13*X03286D03*G54D17*X031854Y075333D03*X03036Y079764D03*G54D13*
X03436Y081094D03*X03386D03*G54D12*Y082264D03*G54D15*X03361Y083014D03*
G54D13*X03436Y079264D03*X03386D03*X03336D03*X03236Y081094D03*X03186D03*
G54D17*X02936Y072014D03*G54D15*X035285D03*G54D24*X038508Y071805D03*
G54D14*X036734Y072023D03*G54D13*X03436Y073934D03*Y075764D03*X03386D03*
G54D17*X031854Y074407D03*X029854Y074445D03*X03036Y072939D03*X02936D03*
X029854Y07537D03*G54D13*X03236Y079264D03*G54D11*Y078264D03*G54D17*
X03536Y081764D03*G54D20*X03511Y083014D03*G54D18*X02836Y073764D03*
X02736Y075764D03*G54D15*X02661Y076514D03*G54D20*X02736Y072014D03*
X02836D03*G54D19*X03086Y074314D03*G54D11*X03286Y072764D03*G54D12*
X03211D03*G54D13*X03286Y073934D03*G54D17*X03136Y072939D03*G54D13*
X03336Y073934D03*G54D21*X03809Y081199D03*G54D20*X03611Y083014D03*
G54D23*X03861Y077264D03*Y078264D03*Y079264D03*G54D24*X038508Y083222D03*
G54D23*X036445Y076764D03*G54D19*X03086Y075514D03*G54D23*
X036445Y077764D03*G54D12*X03511D03*G54D23*X036445Y078764D03*G54D12*
X03511D03*G54D14*X03636Y072889D03*G54D23*X03861Y076264D03*G54D15*
X03911Y074014D03*X036685D03*G54D12*X03536Y074639D03*G54D15*
X038185Y074014D03*X03761D03*G54D14*X035986Y072023D03*G54D10*
G01X019217Y083222D02*X01961Y082264D01*Y080014*X01986Y079764*X02036*
X02086*X02136Y080264*X02461*X02486Y080014*Y079264*Y080014*
X02461Y080264*X02336*Y081094*Y082264*X02311Y082514*X021435*Y083014*
X02486Y079264D02*X02586D01*Y079764*X02486Y081094D02*Y082014D01*
X02286Y081094D02*Y082014D01*X02436Y081094D02*Y082264D01*X02411Y082514*
Y083014*X024935*X02386Y079264D02*Y078264D01*X02461*X02186Y075764D02*
Y076514D01*X02236Y073934D02*Y074764D01*X02336*Y073934*Y074764*X02461*
X02486Y074514*Y073934*Y074514*X02461Y074764*X02236*X02086*
X02036Y074339*X02236Y074764D02*Y075764D01*X02486Y073934D02*X02636D01*
Y073764*Y072014*X02286Y073934D02*Y072764D01*X02211*X02386Y073934D02*
Y072764D01*X023435Y072339*Y072014*X02161*X02136Y072264*Y072764*
X02061Y073514*X01986*X01961Y073764*Y075764*X01986Y076014*Y077514*
X03136Y079264D02*Y079014D01*X03111*X03036Y078264*X03186Y079264D02*
Y078264D01*X03136Y077764*X02236Y083014D02*X023185D01*Y083589*
X02336Y083764*X02636*X02661Y083514*Y082264*X02736*X02661*Y083514*
X02636Y083764*X02336*X023185Y083589*Y083014*X02336Y082764*
X02386Y082264*Y081094*X02586Y083014D02*Y080689D01*X02661*Y078917*
X02736*X02661*Y080689*X02586*X02436Y072014D02*Y073934D01*
X03136Y072014D02*X032435D01*X03036*X03436D02*X03386D01*Y073934*Y072014*
X03336*X025685Y076514D02*X025285Y076764D01*X02411*X02386Y076514*
Y075764*X03186Y083014D02*X032685D01*X030935D02*X03086Y082939D01*
Y082514*X03136Y082014*Y081094*X03036*Y080689*Y080764*X02961*
X02936Y080514*Y078014*X02861Y077264*X02611*Y076014*X02586Y075764*
X02486*X02611Y077264D02*X02161D01*X02186*Y077014*X02161Y077264D02*
X02136Y077014D01*Y075764*X02061*X02036Y075514*Y075264*
X030935Y083014D02*X03086D01*Y083514*X02711*X02661Y084014*X02111*
X02086Y083764*Y081264*X02136*Y081094*Y081264*X02036*Y080689*
X03086Y083514D02*X03111Y083764D01*X03386*X03436Y083264*Y082014*
X03486Y081764*Y080839*X03536*X035935*X036295Y081199*X03689*
X03686Y080264*X03751Y079614*Y075764*X036445*X03536*X03511Y076014*
Y076514*X03486Y076764*X03311*X03286Y076514*Y075764*X03186*
X031854Y075333*X03036Y079764D02*X03086D01*X03136Y080264*X03436*Y081094*
Y080264*X03386*Y081094*Y082264*X03361Y082514*X03386Y082264*
X03361Y082514D02*Y083014D01*X03436Y080264D02*Y079264D01*Y080264*X03386*
Y079264*X03436D02*Y080264D01*X03336*Y079264*Y080264*X03236*Y081094*
X03336Y079264D02*Y080264D01*X03186*Y081094*X02936Y072014D02*
X02986Y071514D01*X03086*X03111Y071264*X035285*Y072014*Y071264*X03736*
X038508Y071805*X03829Y072023*X036734*X035285Y072014D02*Y072839D01*
X03511Y073014*X034615Y073009*X03436Y073264*Y073934*Y074764*Y075764*
X03386*X03436Y074764D02*X03236D01*X031854Y074407*X029854Y074445D02*
X02986Y072939D01*X03036*X02936*X029854Y07537D02*X02986Y076514D01*
X03061Y077264*X03211*X03236Y077514*Y078264*Y079264*Y078264D02*
X03536Y081764*Y082014D01*X03511Y082264*Y083014*X02836Y073764D02*
X02736D01*Y075764*Y076514*X02661*X02736Y075764D02*Y072014D01*X02836*
X03086Y074314D02*X03136Y073764D01*X03286*Y072764*X03211*
X03286Y073764D02*Y073934D01*Y073764*X03136*Y072939*X03286Y073934D02*
X03336D01*X03809Y081199D02*X03886D01*Y082264*X03861Y083014*X03611*
X03861Y077264D02*Y078264D01*Y079264*Y080014*X03886Y080264*Y082264*
X038508Y083222*X036445Y076764D02*X03536D01*X03511Y077014*X03136*
X03086Y076514*Y075514*X036445Y077764D02*X03511D01*X036445Y078764D02*
X03511D01*X03636Y072889D02*X036735D01*X03711Y073264*X038735*
X03911Y073639*Y076264*X03861*X03911*Y074014*X036685D02*X03586D01*
X03536Y074639*X038185Y074014D02*X03761D01*X037485*X036985Y073514*
X036235*X035735Y073139*Y072389*X035986Y072023*
M02*