%FSTAX24Y24*%
%MOIN*%
%IN MakeAway.osm SPASTE1.GBR *%
%ADD10C,0.0472*%
%ADD11R,0.0220X0.0940*%
%ADD12R,0.0394X0.0551*%
%ADD13R,0.0413X0.0512*%
%ADD14R,0.0512X0.0354*%
%ADD15R,0.0512X0.0413*%
%ADD16R,0.0591X0.1181*%
%ADD17R,0.0630X0.0787*%
%ADD18R,0.0787X0.0630*%
%ADD19R,0.0787X0.1772*%
%ADD20R,0.1575X0.0591*%
G54D15*X02036Y079764D03*G54D11*X02486Y079264D03*X02336Y081094D03*
G54D13*X021435Y083014D03*G54D15*X02586Y079764D03*G54D11*
X02486Y081094D03*X02186D03*X02236D03*X02286D03*X02436D03*G54D13*
X02411Y083014D03*X024935D03*G54D11*X02136Y079264D03*X02186D03*
X02236D03*X02286D03*X02336D03*X02386D03*G54D10*Y078264D03*G54D11*
X02436Y079264D03*X02186Y075764D03*G54D14*Y076514D03*G54D11*
X02286Y075764D03*X02336D03*X02436D03*X02136Y073934D03*X02186D03*
X02236D03*X02336D03*X02486D03*G54D15*X02036Y074339D03*G54D11*
X02236Y075764D03*G54D16*X02636Y073764D03*G54D11*X02286Y073934D03*
G54D10*Y072764D03*G54D11*X02386Y073934D03*G54D13*X023435Y072014D03*
G54D11*X03286Y081094D03*X03336D03*X03136Y079264D03*X03186D03*X03286D03*
X03336Y075764D03*G54D13*X02236Y083014D03*G54D19*X02736Y082264D03*
G54D13*X023185Y083014D03*G54D11*X02386Y081094D03*G54D13*
X02586Y083014D03*G54D19*X02736Y078917D03*G54D15*X02586Y080689D03*
G54D13*X02436Y072014D03*G54D11*Y073934D03*G54D15*X03136Y072014D03*
G54D13*X032435D03*G54D15*X03036D03*G54D13*X03436D03*G54D11*
X03386Y073934D03*G54D13*X03336Y072014D03*X025685Y076514D03*G54D11*
X02386Y075764D03*G54D13*X03186Y083014D03*X032685D03*X030935D03*G54D11*
X03136Y081094D03*G54D15*X03036Y080689D03*G54D11*X02486Y075764D03*
G54D14*X02186Y077014D03*G54D11*X02136Y075764D03*G54D15*
X02036Y075264D03*G54D11*X02136Y081094D03*G54D15*X02036Y080689D03*
X03536Y080839D03*G54D18*X03689Y081199D03*G54D20*X036445Y075764D03*
G54D11*X03286D03*G54D15*X031854Y075333D03*X03036Y079764D03*G54D11*
X03436Y081094D03*X03386D03*G54D13*X03361Y083014D03*G54D11*
X03436Y079264D03*X03386D03*X03336D03*X03236Y081094D03*X03186D03*G54D15*
X02936Y072014D03*G54D13*X035285D03*G54D12*X036734Y072023D03*G54D11*
X03436Y073934D03*Y075764D03*X03386D03*G54D15*X031854Y074407D03*
X029854Y074445D03*X03036Y072939D03*X02936D03*X029854Y07537D03*G54D11*
X03236Y079264D03*G54D10*Y078264D03*G54D15*X03536Y081764D03*G54D16*
X02836Y073764D03*X02736Y075764D03*G54D13*X02661Y076514D03*G54D17*
X03086Y074314D03*G54D10*X03286Y072764D03*G54D11*Y073934D03*G54D15*
X03136Y072939D03*G54D11*X03336Y073934D03*G54D18*X03809Y081199D03*
G54D20*X03861Y077264D03*Y078264D03*Y079264D03*X036445Y076764D03*G54D17*
X03086Y075514D03*G54D20*X036445Y077764D03*Y078764D03*G54D12*
X03636Y072889D03*G54D20*X03861Y076264D03*G54D13*X03911Y074014D03*
X036685D03*X038185D03*X03761D03*G54D12*X035986Y072023D03*
M02*