0
SECTION
2
HEADER
9
$INSUNITS
70
4
9
$ACADVER
1
AC1014
9
$HANDSEED
5
FFFF
0
ENDSEC
0
SECTION
2
TABLES
0
TABLE
2
VPORT
5
8
100
AcDbSymbolTable
0
ENDTAB
0
TABLE
2
LTYPE
5
5
100
AcDbSymbolTable
0
LTYPE
5
14
100
AcDbSymbolTableRecord
100
AcDbLinetypeTableRecord
2
BYBLOCK
70
0
0
LTYPE
5
15
100
AcDbSymbolTableRecord
100
AcDbLinetypeTableRecord
2
BYLAYER
70
0
0
ENDTAB
0
TABLE
2
LAYER
5
2
100
AcDbSymbolTable
70
2
0
LAYER
5
50
100
AcDbSymbolTableRecord
100
AcDbLayerTableRecord
2
0
70
0
6
CONTINUOUS
0
ENDTAB
0
TABLE
2
STYLE
5
3
100
AcDbSymbolTable
70
1
0
STYLE
5
11
100
AcDbSymbolTableRecord
100
AcDbTextStyleTableRecord
2
STANDARD
70
0
0
ENDTAB
0
TABLE
2
VIEW
5
6
100
AcDbSymbolTable
70
0
0
ENDTAB
0
TABLE
2
UCS
5
7
100
AcDbSymbolTable
70
0
0
ENDTAB
0
TABLE
2
APPID
5
9
100
AcDbSymbolTable
70
2
0
APPID
5
12
100
AcDbSymbolTableRecord
100
AcDbRegAppTableRecord
2
ACAD
70
0
0
ENDTAB
0
TABLE
2
DIMSTYLE
5
A
100
AcDbSymbolTable
70
1
0
ENDTAB
0
TABLE
2
BLOCK_RECORD
5
1
100
AcDbSymbolTable
70
1
0
BLOCK_RECORD
5
1F
100
AcDbSymbolTableRecord
100
AcDbBlockTableRecord
2
*MODEL_SPACE
0
BLOCK_RECORD
5
1B
100
AcDbSymbolTableRecord
100
AcDbBlockTableRecord
2
*PAPER_SPACE
0
ENDTAB
0
ENDSEC
0
SECTION
2
BLOCKS
0
BLOCK
5
20
100
AcDbEntity
100
AcDbBlockBegin
2
*MODEL_SPACE
0
ENDBLK
5
21
100
AcDbEntity
100
AcDbBlockEnd
0
BLOCK
5
1C
100
AcDbEntity
100
AcDbBlockBegin
2
*PAPER_SPACE
0
ENDBLK
5
1D
100
AcDbEntity
100
AcDbBlockEnd
0
ENDSEC
0
SECTION
2
ENTITIES
0
CIRCLE
5
100
100
AcDbEntity
8
0
100
AcDbCircle
10
-43.652477244357684
20
44.199209167436031
30
0
40
7.5
0
LWPOLYLINE
5
101
100
AcDbEntity
8
0
100
AcDbPolyline
90
68
70
1
43
0.0
10
-0.53534089206883806
20
9.9999999999999947
10
-0.53534089206884627
20
0
10
-9.6612859877023372
20
0
10
-9.6612859877023372
20
1.9999999999999916
10
-19.66128598770235
20
1.9999999999999925
10
-19.66128598770235
20
0
10
-29.658858167922439
20
0
10
-29.658858167922439
20
1.999999999999992
10
-39.658858167922439
20
1.9999999999999927
10
-39.658858167922439
20
0
10
-50
20
0
10
-50
20
1.9999999999999929
10
-60
20
1.9999999999999929
10
-60
20
0
10
-69.997572180220104
20
0
10
-69.997572180220104
20
1.9999999999999929
10
-79.997572180220104
20
1.9999999999999929
10
-79.997572180220104
20
0
10
-89.123517275853601
20
0
10
-89.123517275853601
20
10
10
-87.123517275853601
20
10
10
-87.123517275853601
20
20
10
-89.123517275853601
20
20
10
-89.123517275853601
20
30
10
-87.123517275853601
20
30
10
-87.123517275853601
20
40
10
-89.123517275853587
20
40
10
-89.123517275853587
20
50
10
-87.123517275853601
20
50
10
-87.123517275853601
20
60.000000000000007
10
-89.123517275853601
20
60.000000000000007
10
-89.123517275853601
20
70
10
-87.123517275853601
20
70
10
-87.123517275853601
20
80
10
-89.123517275853601
20
80
10
-89.123517275853601
20
90
10
-79.997572180220104
20
90
10
-79.997572180220104
20
88
10
-69.997572180220089
20
88
10
-69.997572180220089
20
90
10
-60
20
90
10
-60
20
88
10
-50
20
88
10
-50
20
90
10
-39.658858167922432
20
90
10
-39.658858167922432
20
88
10
-29.658858167922432
20
88
10
-29.658858167922432
20
90
10
-19.661285987702346
20
90
10
-19.661285987702346
20
88
10
-9.6612859877023318
20
88
10
-9.6612859877023318
20
90
10
-0.53534089206884061
20
90
10
-0.53534089206883095
20
80
10
-2.5353408920688256
20
80
10
-2.5353408920688287
20
69.999999999999986
10
-0.53534089206883717
20
69.999999999999986
10
-0.53534089206883573
20
60
10
-2.5353408920688372
20
60
10
-2.5353408920688292
20
50
10
-0.53534089206884905
20
50
10
-0.53534089206885516
20
40
10
-2.5353408920688301
20
40
10
-2.5353408920688301
20
30
10
-0.53534089206883761
20
30
10
-0.53534089206883739
20
20.000000000000004
10
-2.5353408920688301
20
20.000000000000004
10
-2.5353408920688301
20
9.9999999999999947
0
ENDSEC
0
SECTION
2
OBJECTS
0
DICTIONARY
5
C
100
AcDbDictionary
3
ACAD_GROUP
350
D
3
ACAD_MLINESTYLE
350
17
0
DICTIONARY
5
D
100
AcDbDictionary
0
DICTIONARY
5
1A
330
C
100
AcDbDictionary
0
DICTIONARY
5
17
100
AcDbDictionary
0
ENDSEC
0
EOF
