0
SECTION
2
HEADER
9
$INSUNITS
70
4
9
$ACADVER
1
AC1014
9
$HANDSEED
5
FFFF
0
ENDSEC
0
SECTION
2
TABLES
0
TABLE
2
VPORT
5
8
100
AcDbSymbolTable
0
ENDTAB
0
TABLE
2
LTYPE
5
5
100
AcDbSymbolTable
0
LTYPE
5
14
100
AcDbSymbolTableRecord
100
AcDbLinetypeTableRecord
2
BYBLOCK
70
0
0
LTYPE
5
15
100
AcDbSymbolTableRecord
100
AcDbLinetypeTableRecord
2
BYLAYER
70
0
0
ENDTAB
0
TABLE
2
LAYER
5
2
100
AcDbSymbolTable
70
2
0
LAYER
5
50
100
AcDbSymbolTableRecord
100
AcDbLayerTableRecord
2
0
70
0
6
CONTINUOUS
0
ENDTAB
0
TABLE
2
STYLE
5
3
100
AcDbSymbolTable
70
1
0
STYLE
5
11
100
AcDbSymbolTableRecord
100
AcDbTextStyleTableRecord
2
STANDARD
70
0
0
ENDTAB
0
TABLE
2
VIEW
5
6
100
AcDbSymbolTable
70
0
0
ENDTAB
0
TABLE
2
UCS
5
7
100
AcDbSymbolTable
70
0
0
ENDTAB
0
TABLE
2
APPID
5
9
100
AcDbSymbolTable
70
2
0
APPID
5
12
100
AcDbSymbolTableRecord
100
AcDbRegAppTableRecord
2
ACAD
70
0
0
ENDTAB
0
TABLE
2
DIMSTYLE
5
A
100
AcDbSymbolTable
70
1
0
ENDTAB
0
TABLE
2
BLOCK_RECORD
5
1
100
AcDbSymbolTable
70
1
0
BLOCK_RECORD
5
1F
100
AcDbSymbolTableRecord
100
AcDbBlockTableRecord
2
*MODEL_SPACE
0
BLOCK_RECORD
5
1B
100
AcDbSymbolTableRecord
100
AcDbBlockTableRecord
2
*PAPER_SPACE
0
ENDTAB
0
ENDSEC
0
SECTION
2
BLOCKS
0
BLOCK
5
20
100
AcDbEntity
100
AcDbBlockBegin
2
*MODEL_SPACE
0
ENDBLK
5
21
100
AcDbEntity
100
AcDbBlockEnd
0
BLOCK
5
1C
100
AcDbEntity
100
AcDbBlockBegin
2
*PAPER_SPACE
0
ENDBLK
5
1D
100
AcDbEntity
100
AcDbBlockEnd
0
ENDSEC
0
SECTION
2
ENTITIES
0
CIRCLE
5
100
100
AcDbEntity
8
0
100
AcDbCircle
10
-35.527811674397753
20
27.358421379685467
30
0
40
5
0
LWPOLYLINE
5
101
100
AcDbEntity
8
0
100
AcDbPolyline
90
30
70
1
43
0.0
10
5.708203932499373
20
-13.527864045000417
42
-0.55753651583505104
10
-3.2360679774997814
20
-28
10
-15.438030891522008
20
-28
10
-15.438030891522008
20
-30
10
-25.438030891522008
20
-30
10
-25.438030891522008
20
-28
10
-74.593485180902348
20
-28.000000000000004
10
-74.593485180902348
20
-30.000000000000004
10
-84.593485180902348
20
-30.000000000000004
10
-84.593485180902348
20
-28.000000000000004
10
-94.59348518090232
20
-28.000000000000014
42
-0.69630470887891716
10
-101.10139891546204
20
-10.407433976347029
10
-93.508832891809064
20
-3.8995202417873465
10
-94.810415638720997
20
-2.3810070370567566
10
-87.217849615068062
20
4.1269066975029283
10
-85.916266868156129
20
2.6083934927723362
10
-52.336338920386169
20
31.391188876575164
10
-53.637921667298102
20
32.909702081305753
10
-46.045355643645145
20
39.417615815865439
10
-44.743772896733205
20
37.899102611134843
10
-37.151206873080248
20
44.407016345694508
42
-0.48792836492648545
10
-21.699021228521399
20
41.286586277041117
10
-17.226885273521834
20
32.342314367041986
10
-15.438030891522004
20
33.236741558041906
10
-10.965894936522432
20
24.292469648042744
10
-12.754749318522263
20
23.398042457042827
10
-3.2360679774997907
20
4.3606797749978981
10
-1.4472135954999588
20
5.2551069659978147
10
3.0249223594996222
20
-3.6891649440013463
10
1.2360679774997889
20
-4.5835921350012621
0
ENDSEC
0
SECTION
2
OBJECTS
0
DICTIONARY
5
C
100
AcDbDictionary
3
ACAD_GROUP
350
D
3
ACAD_MLINESTYLE
350
17
0
DICTIONARY
5
D
100
AcDbDictionary
0
DICTIONARY
5
1A
330
C
100
AcDbDictionary
0
DICTIONARY
5
17
100
AcDbDictionary
0
ENDSEC
0
EOF
